<svg id="Layer_1" data-name="Layer 1" xmlns="http://www.w3.org/2000/svg" viewBox="0 0 477.98 449.25"><defs><style>.cls-1{fill:none;}.cls-2{fill:#fff;}</style></defs><path class="cls-1" d="M383.53,109.75a15.48,15.48,0,0,0-15.46-15.46H349.5v30.95H318.58V94.29H114.41v30.95H83.46V94.29H64.9a15.47,15.47,0,0,0-15.45,15.46v37.13H383.53Z" transform="translate(-18.5 -32.43)"/><path class="cls-1" d="M49.45,177.81V382A15.46,15.46,0,0,0,64.9,397.46H221.37v0h146.7A15.46,15.46,0,0,0,383.53,382V239.84h0v-62Z" transform="translate(-18.5 -32.43)"/><path class="cls-2" d="M64.9,397.46A15.46,15.46,0,0,1,49.45,382V177.81H383.53v62h30.94V109.75a46.45,46.45,0,0,0-46.4-46.39H349.5V32.43H318.58V63.36H114.41V32.43H83.46V63.36H64.9a46.46,46.46,0,0,0-46.4,46.39V382a46.46,46.46,0,0,0,46.4,46.39H221.37V397.46ZM49.45,109.75A15.47,15.47,0,0,1,64.9,94.29H83.46v30.95h31V94.29H318.58v30.95H349.5V94.29h18.57a15.48,15.48,0,0,1,15.46,15.46v37.13H49.45Z" transform="translate(-18.5 -32.43)"/><path class="cls-2" d="M489.69,304h-62v-6.84a20.53,20.53,0,0,0-20.51-20.5H352.51a20.52,20.52,0,0,0-20.5,20.5V304H270a6.85,6.85,0,0,0-6.83,6.83V461.18a20.53,20.53,0,0,0,20.5,20.5H476a20.53,20.53,0,0,0,20.51-20.5V310.94C496.22,306.45,493.46,304,489.69,304Zm-144-6.84a6.84,6.84,0,0,1,6.83-6.83h54.67a6.85,6.85,0,0,1,6.84,6.83V304H345.68Zm134.49,20.51-21.23,63.67a6.82,6.82,0,0,1-6.48,4.67H414v-6.83a6.84,6.84,0,0,0-6.84-6.84H352.51a6.83,6.83,0,0,0-6.83,6.84V386H307.23a6.83,6.83,0,0,1-6.48-4.67l-21.22-63.67ZM400.35,386v13.67h-41V386Zm82.47,75.18A6.85,6.85,0,0,1,476,468H283.71a6.84,6.84,0,0,1-6.83-6.83V352.94l10.9,32.71a20.47,20.47,0,0,0,19.45,14h38.45v6.83a6.83,6.83,0,0,0,6.83,6.84h54.67A6.84,6.84,0,0,0,414,406.5v-6.83h38.44a20.46,20.46,0,0,0,19.45-14l10.91-32.71Z" transform="translate(-18.5 -32.43)"/></svg>