<svg width="27" height="13" viewBox="0 0 27 13" fill="none" xmlns="http://www.w3.org/2000/svg">
<path d="M2.36654 3.93239C2.88294 3.44948 3.48275 3.05777 4.1388 2.77502C7.11321 1.48245 10.3437 0.834635 13.6041 0.876947C16.8645 0.919258 20.076 1.65069 23.0135 3.01998C23.9308 3.4377 24.7267 4.06888 25.3301 4.85706C25.8936 5.62065 26.2668 6.50004 26.4205 7.4264C26.5743 8.35276 26.5043 9.30095 26.2162 10.1968C25.9074 11.1431 25.3591 11.9998 24.6212 12.6891C24.5078 12.7944 24.3607 12.8591 24.2042 12.8724C24.0476 12.8858 23.8911 12.847 23.7604 12.7626L19.4689 9.99477C19.3726 9.93393 19.2941 9.85015 19.2409 9.75149C19.1877 9.65283 19.1616 9.54259 19.1651 9.43137L19.1968 6.90845C15.5261 5.68195 11.5449 5.63043 7.84161 6.76149L7.80993 9.28441C7.80689 9.39566 7.77592 9.50453 7.71968 9.60161C7.66344 9.6987 7.58365 9.7811 7.48715 9.84168L3.11976 12.4932C2.98595 12.5734 2.82799 12.6074 2.67166 12.5896C2.51533 12.5718 2.36986 12.5033 2.25895 12.3952C1.54068 11.6859 1.0164 10.8146 0.733509 9.86003C0.473127 8.95473 0.429861 8.00387 0.606949 7.07993C0.788323 6.16129 1.18691 5.2957 1.77156 4.55088C1.95289 4.32047 2.15177 4.1035 2.36654 3.90178V3.93239ZM24.0389 11.3726C24.4992 10.8271 24.826 10.1881 24.9951 9.5032C25.1641 8.81834 25.171 8.10538 25.0152 7.41758C24.8593 6.72978 24.5449 6.08495 24.0952 5.53128C23.6456 4.97761 23.0724 4.52943 22.4185 4.22022C19.6628 2.92663 16.6467 2.23521 13.584 2.19499C10.5212 2.15478 7.48683 2.76676 4.69581 3.98752C4.03358 4.27903 3.44808 4.71168 2.98319 5.25313C2.5183 5.79457 2.18605 6.43077 2.01132 7.11405C1.83658 7.79733 1.82389 8.51001 1.97419 9.19871C2.12449 9.88741 2.4339 10.5343 2.87923 11.0909L6.43009 8.93536L6.46807 6.29609C6.4709 6.1605 6.51677 6.02903 6.59942 5.9195C6.68207 5.80996 6.79753 5.72765 6.93015 5.68373C11.2154 4.25108 15.8833 4.31175 20.1272 5.85521C20.2565 5.90258 20.3683 5.9861 20.4483 6.09516C20.5284 6.20422 20.573 6.33387 20.5766 6.46757L20.5387 9.10684L24.0389 11.3726Z" fill="#A19D9D"/>
</svg>
