<?xml version="1.0" encoding="utf-8"?>
<!-- Generator: Adobe Illustrator 24.0.2, SVG Export Plug-In . SVG Version: 6.00 Build 0)  -->
<svg version="1.1" id="Layer_1" xmlns="http://www.w3.org/2000/svg" xmlns:xlink="http://www.w3.org/1999/xlink" x="0px" y="0px"
	 viewBox="0 0 512 512" style="enable-background:new 0 0 512 512;" xml:space="preserve">
<style type="text/css">
	.st0{fill:#0BB5FF;}
</style>
<g>
	<path class="st0" d="M454.5,397.2c-5.3-32-27.8-58.3-58.6-68.6l-68.4-22.8v-10.2h-15.9v14.9l-11.9,47.4l-32.1-38.5h-23.3
		l-32.1,38.5l-11.9-47.4v-14.9h-15.9v10.2l-68.4,22.8c-30.8,10.3-53.2,36.5-58.6,68.6L40,502.4h432L454.5,397.2z M264,486.5V359.3
		h-15.9v127.1H129.7l7.1-70.7l-15.8-1.6l-7.2,72.3H58.8l14.4-86.6c4.4-26.2,22.7-47.7,47.9-56.1l47.5-15.8v72.2
		c-13.7,3.5-23.8,15.9-23.8,30.7c0,17.5,14.3,31.8,31.8,31.8s31.8-14.3,31.8-31.8c0-14.8-10.2-27.1-23.8-30.7v-77.5l2.3-0.8
		l17.6,70.4l47.4-56.8h8.4l47.4,56.8l17.6-70.4l2.3,0.8v63.5l-30.1,15.1c-10.8,5.4-17.6,16.3-17.6,28.4v9.1
		c0,17.5,14.3,31.8,31.8,31.8h7.9v-15.9h-7.9c-8.8,0-15.9-7.1-15.9-15.9v-9.1c0-6.1,3.4-11.5,8.8-14.2l31-15.5l31,15.5
		c5.4,2.7,8.8,8.2,8.8,14.2v9.1c0,8.8-7.1,15.9-15.9,15.9h-8v15.9h8c7.9,0,15.1-3,20.6-7.8l2.4,23.7H264z M176.5,414.9
		c8.8,0,15.9,7.1,15.9,15.9c0,8.8-7.1,15.9-15.9,15.9s-15.9-7.1-15.9-15.9C160.6,422.1,167.8,414.9,176.5,414.9 M398.3,486.5
		l-7.2-72.3l-3.9,0.4c-3-5.6-7.7-10.3-13.7-13.3l-30.1-15v-58.2l47.5,15.8c25.2,8.4,43.6,29.9,47.9,56.1l14.4,86.6H398.3z"/>
	<path class="st0" d="M156.2,223.8c4.1,13.9,11.5,26.7,22.1,37.3l31,31c7.5,7.5,17.5,11.6,28.1,11.6h37.2c10.6,0,20.6-4.1,28.1-11.6
		l31-31c10.6-10.6,18-23.3,22.1-37.3c19.8-2.2,35.3-18.9,35.3-39.3c0-13-6.4-24.5-16.1-31.8h0.2v-23.8C375.2,63.1,321.7,9.6,256,9.6
		c-65.7,0-119.2,53.5-119.2,119.2v23.8h0.3c-9.7,7.2-16.1,18.7-16.1,31.8C120.9,204.9,136.4,221.5,156.2,223.8 M343.4,199.2
		c0,19.1-7.4,37.1-20.9,50.6l-31,31c-4.5,4.5-10.5,7-16.9,7h-37.2c-6.4,0-12.4-2.5-16.9-7l-31-31c-13.5-13.5-20.9-31.5-20.9-50.6
		v-38.6h58.8c18.6,0,36.6-5,52.5-14.4c15.9,9.5,33.9,14.4,52.5,14.4h11.1V199.2z M375.2,184.5c0,10.5-6.8,19.3-16.3,22.5
		c0.2-2.5,0.4-5.1,0.4-7.7v-37.1C368.5,165.4,375.2,174.1,375.2,184.5 M152.7,128.8c0-57,46.3-103.3,103.3-103.3
		c57,0,103.3,46.3,103.3,103.3v16.7c-2.6-0.5-5.2-0.8-8-0.8h-19c-17.2,0-33.8-5-48.1-14.6l-4.4-2.9l-4.4,2.9
		c-14.3,9.5-30.9,14.6-48.1,14.6h-66.7c-2.7,0-5.4,0.3-7.9,0.8V128.8z M152.7,162.1v37.1c0,2.6,0.1,5.2,0.4,7.7
		c-9.4-3.2-16.3-12-16.3-22.5C136.8,174.1,143.5,165.4,152.7,162.1"/>
</g>
</svg>
