<?xml version="1.0" encoding="utf-8"?>
<!-- Generator: Adobe Illustrator 19.0.0, SVG Export Plug-In . SVG Version: 6.00 Build 0)  -->
<svg version="1.1" id="Layer_1" xmlns:svgjs="http://svgjs.com/svgjs"
	 xmlns="http://www.w3.org/2000/svg" xmlns:xlink="http://www.w3.org/1999/xlink" x="0px" y="0px" viewBox="-41 164.9 512 512"
	 style="enable-background:new -41 164.9 512 512;" xml:space="preserve">
<style type="text/css">
	.st0{fill:#0BB5FF;}
</style>
<g>
	<g>
		<path class="st0" d="M432.3,164.9H0.5c-22.1,0-40.1,18-40.1,40.1v431.7c0,22.2,18,40.1,40.1,40.1h431.8c22.2,0,40.1-18,40.1-40.1
			V205C472.4,182.9,454.4,164.9,432.3,164.9z M430.3,634.8H2.5V207h427.8L430.3,634.8L430.3,634.8z"/>
		<path class="st0" d="M35.1,609l97.4,0c2.8,0,5.4-1.7,6.5-4.3c1.1-2.6,0.5-5.6-1.5-7.7l-33.8-33.8l254.4-255.8l33.8,33.8
			c2,2,5,2.6,7.7,1.5c2.6-1.1,4.3-3.7,4.3-6.5l0-97.4c0-3.9-3.1-7-7-7l-97.4,0c-2.8,0-5.4,1.7-6.5,4.3c-1.1,2.6-0.5,5.6,1.5,7.7
			l33.9,33.9L74,533.4l-33.9-33.8c-2-2-5-2.6-7.7-1.5c-2.6,1.1-4.3,3.7-4.3,6.5V602C28.1,605.8,31.3,609,35.1,609z"/>
	</g>
</g>
</svg>
