<?xml version="1.0"?>
<svg xmlns="http://www.w3.org/2000/svg" xmlns:xlink="http://www.w3.org/1999/xlink" xmlns:svgjs="http://svgjs.com/svgjs" version="1.1" width="512" height="512" x="0" y="0" viewBox="0 0 458.659 458.659" style="enable-background:new 0 0 512 512" xml:space="preserve" class=""><g>
<g xmlns="http://www.w3.org/2000/svg">
	<path style="" d="M428.281,0H114.979C98.906,0,85.863,13.037,85.863,29.124v27.444h30.563V30.563h310.408v310.401   H403.36v30.563h24.922c16.072,0,29.115-13.035,29.115-29.122V29.124C457.397,13.037,444.354,0,428.281,0z" fill="#0bb5ff" data-original="#020202" class=""/>
	<path style="" d="M343.68,87.131H30.376c-16.071,0-29.114,13.035-29.114,29.124v313.279   c0,16.089,13.043,29.124,29.114,29.124H343.68c16.073,0,29.116-13.035,29.116-29.124V116.255   C372.796,100.166,359.753,87.131,343.68,87.131z M342.233,428.095H31.825v-310.4h310.407V428.095z" fill="#0bb5ff" data-original="#020202" class=""/>
	<path style="" d="M55.493,409.381l70.706,0.023c2.061,0,3.926-1.246,4.716-3.149c0.792-1.902,0.345-4.097-1.103-5.56   l-24.535-24.54L289.91,190.528l24.52,24.527c1.462,1.455,3.656,1.895,5.552,1.103c1.91-0.79,3.15-2.649,3.15-4.708l0.014-70.691   c0-2.813-2.283-5.096-5.103-5.096l-70.692-0.023c-2.061,0-3.926,1.245-4.716,3.149c-0.792,1.902-0.358,4.096,1.104,5.558   l24.563,24.572L83.668,354.544l-24.564-24.556c-1.463-1.455-3.642-1.896-5.553-1.104c-1.91,0.791-3.147,2.649-3.147,4.708v70.692   C50.405,407.098,52.688,409.381,55.493,409.381z" fill="#0bb5ff" data-original="#020202" class=""/>
</g>
<g xmlns="http://www.w3.org/2000/svg">
</g>
<g xmlns="http://www.w3.org/2000/svg">
</g>
<g xmlns="http://www.w3.org/2000/svg">
</g>
<g xmlns="http://www.w3.org/2000/svg">
</g>
<g xmlns="http://www.w3.org/2000/svg">
</g>
<g xmlns="http://www.w3.org/2000/svg">
</g>
<g xmlns="http://www.w3.org/2000/svg">
</g>
<g xmlns="http://www.w3.org/2000/svg">
</g>
<g xmlns="http://www.w3.org/2000/svg">
</g>
<g xmlns="http://www.w3.org/2000/svg">
</g>
<g xmlns="http://www.w3.org/2000/svg">
</g>
<g xmlns="http://www.w3.org/2000/svg">
</g>
<g xmlns="http://www.w3.org/2000/svg">
</g>
<g xmlns="http://www.w3.org/2000/svg">
</g>
<g xmlns="http://www.w3.org/2000/svg">
</g>
</g></svg>
