<svg width="45" height="61" viewBox="0 0 45 61" fill="none" xmlns="http://www.w3.org/2000/svg">
<path d="M44.4403 1.51285L43.5107 0.583313L0.559101 45.6441L1.48864 46.5736L44.4403 1.51285Z" fill="#9A9A9B"/>
<path d="M24.0705 41.2282C26.92 41.2244 29.6517 40.103 31.6667 38.1099C33.6816 36.1169 34.8152 33.4148 34.819 30.5963V15.7059C34.8722 14.2777 34.6337 12.8536 34.1178 11.5187C33.6019 10.1838 32.8194 8.96544 31.8167 7.93648C30.814 6.90752 29.6119 6.08905 28.2822 5.53003C26.9525 4.97101 25.5225 4.68292 24.0777 4.68292C22.6329 4.68292 21.2029 4.97101 19.8732 5.53003C18.5435 6.08905 17.3414 6.90752 16.3387 7.93648C15.3361 8.96544 14.5535 10.1838 14.0376 11.5187C13.5217 12.8536 13.2832 14.2777 13.3364 15.7059V30.6395C13.3517 33.4481 14.4884 36.1369 16.499 38.1202C18.5095 40.1035 21.231 41.2206 24.0705 41.2282ZM16.638 15.6627C16.5936 14.6689 16.7531 13.6765 17.1069 12.7454C17.4607 11.8143 18.0016 10.9638 18.6969 10.245C19.3921 9.52627 20.2272 8.95424 21.152 8.56345C22.0768 8.17265 23.072 7.97116 24.0777 7.97116C25.0833 7.97116 26.0786 8.17265 27.0034 8.56345C27.9282 8.95424 28.7633 9.52627 29.4586 10.245C30.1538 10.9638 30.6946 11.8143 31.0484 12.7454C31.4023 13.6765 31.5619 14.6689 31.5174 15.6627V30.5963C31.4327 32.4917 30.6118 34.2817 29.2259 35.5933C27.84 36.9049 25.9958 37.6369 24.0777 37.6369C22.1596 37.6369 20.3155 36.9049 18.9295 35.5933C17.5436 34.2817 16.7227 32.4917 16.638 30.5963V15.6627Z" fill="#9A9A9B"/>
<path d="M36.3109 50.5262H29.7509V46.1056C33.1093 44.8921 36.0193 42.6487 38.0837 39.6818C40.148 36.7148 41.266 33.1689 41.2849 29.5283V21.8807H38.0121V29.5283C37.8957 33.2262 36.3766 36.7328 33.7761 39.3065C31.1756 41.8802 27.6976 43.3192 24.0777 43.3192C20.4577 43.3192 16.9797 41.8802 14.3791 39.3065C11.7786 36.7328 10.2595 33.2262 10.1431 29.5283V21.8807H6.87043V29.5283C6.88936 33.1689 8.00727 36.7148 10.0716 39.6818C12.1359 42.6487 15.046 44.8921 18.4044 46.1056V50.5262H11.8445C9.67375 50.5301 7.59297 51.4131 6.05804 52.9819C4.52311 54.5507 3.65909 56.6773 3.65527 58.8959V60.5757H44.5V58.8959C44.4962 56.6773 43.6322 54.5507 42.0972 52.9819C40.5623 51.4131 38.4816 50.5301 36.3109 50.5262ZM21.5618 46.9897C23.1925 47.2256 24.8475 47.2256 26.4782 46.9897V50.5262H21.5618V46.9897ZM7.14436 57.2161C7.48808 56.2385 8.11816 55.3929 8.94884 54.7944C9.77951 54.1959 10.7704 53.8735 11.7867 53.8711H36.2964C37.3113 53.8723 38.301 54.1944 39.1296 54.7933C39.9582 55.3922 40.5852 56.2385 40.9245 57.2161H7.14436Z" fill="#9A9A9B"/>
</svg>
