<?xml version="1.0" encoding="utf-8"?>
<!-- Generator: Adobe Illustrator 24.0.2, SVG Export Plug-In . SVG Version: 6.00 Build 0)  -->
<svg version="1.1" id="Layer_1" xmlns="http://www.w3.org/2000/svg" xmlns:xlink="http://www.w3.org/1999/xlink" x="0px" y="0px"
	 viewBox="0 0 512 512" style="enable-background:new 0 0 512 512;" xml:space="preserve">
<style type="text/css">
	.st0{fill:#0BB5FF;}
	.st1{fill:#FFFFFF;stroke:#FFFFFF;stroke-width:10;stroke-miterlimit:10;}
</style>
<g>
	<path class="st0" d="M493,256c0,130.9-106.1,237-237,237C125.1,493,19,386.9,19,256C19,125.1,125.1,19,256,19
		C386.9,19,493,125.1,493,256"/>
	<path class="st1" d="M382.7,164c-5.1-5.1-13.3-5.1-18.5,0L207.9,320.4l-60.1-60.1c-5.1-5.1-13.4-5.1-18.5,0
		c-5.1,5.1-5.1,13.3,0,18.5l69.3,69.3c5.1,5.1,13.4,5.1,18.5,0l165.6-165.6C387.8,177.3,387.8,169.1,382.7,164"/>
</g>
</svg>
