<svg width="59" height="53" viewBox="0 0 59 53" fill="none" xmlns="http://www.w3.org/2000/svg">
<path d="M37.492 52.6216H31.5307C30.502 52.6718 29.4952 52.3131 28.73 51.6237C27.9648 50.9343 27.5033 49.9702 27.4462 48.9418L24.0974 31.0947L4.29994 28.0404C3.32399 28.0404 2.38829 27.6526 1.69819 26.9625C1.00809 26.2724 0.620117 25.3365 0.620117 24.3606V18.9513C0.695785 16.9082 1.46634 14.9521 2.80456 13.4064C4.14279 11.8608 5.96855 10.8182 7.97977 10.4509L53.2418 0.441688C53.8901 0.307936 54.5608 0.3282 55.1999 0.500758C55.839 0.673315 56.4287 0.993425 56.9216 1.43531C57.4017 1.84973 57.7583 2.38822 57.953 2.99178C58.1477 3.59534 58.1727 4.24071 58.0253 4.85752V4.85752L46.9858 45.7403C46.3721 47.728 45.1201 49.4579 43.4237 50.662C41.7273 51.8661 39.6814 52.4772 37.6026 52.4008L37.492 52.6216ZM53.9408 3.82707L8.67917 13.8363C7.41315 14.0624 6.26244 14.7151 5.41889 15.6859C4.57535 16.6566 4.08977 17.8869 4.04255 19.1721V24.5813C4.04232 24.6377 4.05364 24.6936 4.07624 24.7453C4.09885 24.797 4.13214 24.8433 4.17372 24.8814C4.21529 24.9195 4.26447 24.9485 4.31791 24.9665C4.37135 24.9846 4.42795 24.9912 4.48411 24.9861H4.77834L25.9742 28.2612C26.3256 28.3047 26.6551 28.4553 26.9184 28.6922C27.1816 28.9291 27.366 29.2409 27.4462 29.5858L31.126 48.6842V48.9786C31.1307 49.0367 31.1466 49.0932 31.1732 49.145C31.1998 49.1969 31.2365 49.2431 31.281 49.2807C31.3255 49.3183 31.3769 49.3466 31.4324 49.3642C31.4879 49.3819 31.5464 49.3884 31.6044 49.3833H37.5657C38.8711 49.4256 40.1544 49.0382 41.2181 48.2803C42.2819 47.5224 43.067 46.4362 43.4533 45.1885L54.4928 4.30546C54.5292 4.251 54.5485 4.18701 54.5485 4.12151C54.5485 4.05601 54.5292 3.99203 54.4928 3.93757C54.428 3.85782 54.3375 3.80319 54.2368 3.78304C54.136 3.76289 54.0312 3.77838 53.9408 3.82707V3.82707Z" fill="#666666"/>
<path d="M25.6435 31.4627C25.1871 31.4694 24.743 31.3128 24.392 31.0212C24.2276 30.8761 24.0959 30.6977 24.0057 30.4978C23.9155 30.298 23.8691 30.0813 23.8691 29.862C23.8691 29.6427 23.9155 29.426 24.0057 29.2262C24.0959 29.0263 24.2276 28.8479 24.392 28.7028L42.3864 12.4381C42.7458 12.1322 43.2027 11.9642 43.6747 11.9642C44.1467 11.9642 44.6031 12.1322 44.9626 12.4381C45.1262 12.5797 45.2571 12.7549 45.3471 12.9517C45.437 13.1486 45.4836 13.3624 45.4836 13.5788C45.4836 13.7952 45.437 14.0091 45.3471 14.2059C45.2571 14.4027 45.1262 14.5779 44.9626 14.7196L26.9313 31.0212C26.5659 31.3127 26.1109 31.4687 25.6435 31.4627V31.4627Z" fill="#666666"/>
</svg>
