<?xml version="1.0" encoding="utf-8"?>
<!-- Generator: Adobe Illustrator 24.2.1, SVG Export Plug-In . SVG Version: 6.00 Build 0)  -->
<svg version="1.1" id="Layer_1" xmlns="http://www.w3.org/2000/svg" xmlns:xlink="http://www.w3.org/1999/xlink" x="0px" y="0px"
	 viewBox="0 0 512 512" style="enable-background:new 0 0 512 512;" xml:space="preserve">
<style type="text/css">
	.st0{fill:#FFFFFF;}
</style>
<g>
	<g>
		<path class="st0" d="M435.4,54.4h-42.7V32.1c0-8.2-6.7-14.9-14.9-14.9c-8.2,0-14.9,6.7-14.9,14.9v22.3H154.9V32.1
			c0-8.2-6.7-14.9-14.9-14.9s-14.9,6.7-14.9,14.9v22.3H82.4c-33.8,0-61.3,27.5-61.3,61.3v315.8c0,33.8,27.5,61.3,61.3,61.3h353
			c33.8,0,61.3-27.5,61.3-61.3V115.7C496.7,81.9,469.2,54.4,435.4,54.4z M82.4,84.1h42.7V99c0,8.2,6.7,14.9,14.9,14.9
			s14.9-6.7,14.9-14.9V84.1h208.1V99c0,8.2,6.7,14.9,14.9,14.9c8.2,0,14.9-6.7,14.9-14.9V84.1h42.7c17.4,0,31.6,14.2,31.6,31.6V151
			H50.8v-35.3C50.8,98.3,65,84.1,82.4,84.1z M435.4,463.1h-353c-17.4,0-31.6-14.2-31.6-31.6V180.7H467v250.8
			C467,448.9,452.8,463.1,435.4,463.1z"/>
	</g>
</g>
<g>
	<g>
		<g>
			<path class="st0" d="M217.9,282.9c-3.1,0-5.7,2.5-5.7,5.7s2.5,5.7,5.7,5.7s5.7-2.5,5.7-5.7S221,282.9,217.9,282.9z"/>
		</g>
	</g>
</g>
<g>
	<g>
		<g>
			<path class="st0" d="M183.9,192.4c-34.2,0-64,27.7-64,62.3v135.8c0,34.6,29.8,62.3,64,62.3c34.1,0,64-27.6,64-62.3V254.6
				C247.9,220,218.1,192.4,183.9,192.4z M236.6,390.5c0,28.7-25.1,50.9-52.6,50.9c-28.5,0-52.6-23.3-52.6-50.9v-62.3h105.3V390.5z
				 M236.6,316.9H131.3v-62.3c0-27.6,24.1-50.9,52.6-50.9s52.6,23.3,52.6,50.9V316.9z"/>
		</g>
	</g>
</g>
<g>
	<g>
		<g>
			<path class="st0" d="M197.1,217.3c-2.9-1-6.2,0.5-7.2,3.4c-1,2.9,0.5,6.2,3.4,7.2c11.3,4,18.9,14.7,18.9,26.7V266
				c0,3.1,2.5,5.7,5.7,5.7s5.7-2.5,5.7-5.7v-11.3C223.5,237.9,212.9,222.9,197.1,217.3z"/>
		</g>
	</g>
</g>
<g>
	<g>
		<g>
			<path class="st0" d="M334.5,303.9c-39.7,0-75.3,33.7-75.3,75.3c0,40.6,34.7,75.3,75.3,75.3c40.4,0,75.3-34.4,75.3-75.3
				C409.7,338.6,375.1,303.9,334.5,303.9z M334.5,443.1c-34.7,0-64-29.3-64-64c0-14.8,5.4-29.1,15.2-40.7l89.4,89.4
				C363.5,437.7,349.3,443.1,334.5,443.1z M383.2,419.9l-89.4-89.4c11.6-9.8,26.1-15.3,40.7-15.3c34.7,0,64,29.3,64,64
				C398.4,394,393,408.2,383.2,419.9z"/>
		</g>
	</g>
</g>
</svg>
