<svg width="162" height="126" viewBox="0 0 162 126" fill="none" xmlns="http://www.w3.org/2000/svg">
<path d="M64.3062 61.5255H56.4207V53.6401C56.4208 53.3483 56.3627 53.0594 56.2496 52.7904C56.1365 52.5214 55.9709 52.2778 55.7623 52.0737C55.5538 51.8697 55.3065 51.7094 55.0351 51.6022C54.7637 51.495 54.4735 51.4432 54.1818 51.4496H44.1062C43.5252 51.4496 42.9679 51.6804 42.5571 52.0912C42.1463 52.502 41.9154 53.0591 41.9154 53.6401V61.5255H33.9812C33.3958 61.5383 32.8386 61.7798 32.4292 62.1983C32.0197 62.6169 31.7909 63.1791 31.791 63.7646V73.8405C31.7909 74.426 32.0197 74.9883 32.4292 75.4069C32.8386 75.8254 33.3958 76.0669 33.9812 76.0796H41.9154V83.9651C41.9154 84.5461 42.1463 85.1032 42.5571 85.514C42.9679 85.9248 43.5252 86.1556 44.1062 86.1556H54.1818C54.4735 86.162 54.7637 86.1102 55.0351 86.003C55.3065 85.8958 55.5538 85.7355 55.7623 85.5315C55.9709 85.3274 56.1365 85.0837 56.2496 84.8148C56.3627 84.5458 56.4208 84.2569 56.4207 83.9651V76.0796H64.3062C64.8915 76.0669 65.4488 75.8254 65.8582 75.4069C66.2676 74.9883 66.4971 74.426 66.497 73.8405V63.7646C66.4971 63.1791 66.2676 62.6169 65.8582 62.1983C65.4488 61.7798 64.8915 61.5383 64.3062 61.5255ZM62.116 71.6501H54.1818C53.6009 71.6501 53.0435 71.8809 52.6328 72.2917C52.222 72.7025 51.9916 73.2596 51.9916 73.8405V81.726H46.2963V73.8405C46.2963 73.2596 46.0654 72.7025 45.6546 72.2917C45.2438 71.8809 44.6871 71.6501 44.1062 71.6501H36.2207V65.9551H44.1062C44.3938 65.9551 44.6782 65.8984 44.944 65.7883C45.2097 65.6782 45.4512 65.5169 45.6546 65.3135C45.858 65.1101 46.0193 64.8686 46.1294 64.6029C46.2394 64.3371 46.2963 64.0523 46.2963 63.7646V55.8791H51.9916V63.7646C51.9916 64.0523 52.0479 64.3371 52.158 64.6029C52.2681 64.8686 52.4294 65.1101 52.6328 65.3135C52.8362 65.5169 53.0777 65.6782 53.3434 65.7883C53.6092 65.8984 53.8942 65.9551 54.1818 65.9551H62.116V71.6501Z" fill="#595959"/>
<path d="M147.347 12.6064H79.7848C79.1949 12.6189 78.6328 12.8588 78.2155 13.276C77.7983 13.6933 77.5583 14.2556 77.5459 14.8455C77.5586 15.4309 77.8 15.988 78.2185 16.3974C78.6371 16.8069 79.1993 17.0361 79.7848 17.036H147.347C147.635 17.036 147.92 16.9793 148.185 16.8692C148.451 16.7591 148.693 16.5978 148.896 16.3944C149.099 16.191 149.261 15.9495 149.371 15.6838C149.481 15.418 149.537 15.1332 149.537 14.8455C149.537 14.26 149.308 13.6978 148.899 13.2792C148.49 12.8607 147.932 12.6192 147.347 12.6064V12.6064Z" fill="#595959"/>
<path d="M147.347 24.3857H79.7848C79.1949 24.3982 78.6328 24.6381 78.2155 25.0553C77.7983 25.4725 77.5583 26.0349 77.5459 26.6248C77.5586 27.2102 77.8 27.7673 78.2185 28.1767C78.6371 28.5862 79.1993 28.8154 79.7848 28.8152H147.347C147.635 28.8152 147.92 28.7586 148.185 28.6485C148.451 28.5384 148.693 28.3771 148.896 28.1737C149.099 27.9703 149.261 27.7288 149.371 27.4631C149.481 27.1973 149.537 26.9125 149.537 26.6248C149.537 26.0393 149.308 25.4771 148.899 25.0585C148.49 24.64 147.932 24.3985 147.347 24.3857V24.3857Z" fill="#595959"/>
<path d="M147.35 36.1649H108.409C107.819 36.1773 107.256 36.4172 106.839 36.8345C106.422 37.2517 106.182 37.8141 106.17 38.404C106.183 38.9894 106.424 39.5465 106.843 39.9559C107.261 40.3654 107.823 40.5946 108.409 40.5944H147.35C147.637 40.5944 147.922 40.5378 148.188 40.4277C148.454 40.3176 148.695 40.1563 148.899 39.9529C149.102 39.7495 149.263 39.508 149.373 39.2422C149.483 38.9765 149.54 38.6917 149.54 38.404C149.54 37.8185 149.311 37.2562 148.902 36.8377C148.492 36.4192 147.935 36.1776 147.35 36.1649V36.1649Z" fill="#595959"/>
<path d="M147.35 47.9458H108.409C107.819 47.9582 107.256 48.1981 106.839 48.6154C106.422 49.0326 106.182 49.595 106.17 50.1849C106.183 50.7703 106.424 51.3274 106.843 51.7368C107.261 52.1462 107.823 52.3754 108.409 52.3753H147.35C147.637 52.3753 147.922 52.3187 148.188 52.2086C148.454 52.0985 148.695 51.9371 148.899 51.7338C149.102 51.5304 149.263 51.2889 149.373 51.0231C149.483 50.7574 149.54 50.4726 149.54 50.1849C149.54 49.5994 149.311 49.0371 148.902 48.6186C148.492 48.2 147.935 47.9585 147.35 47.9458V47.9458Z" fill="#595959"/>
<path d="M153.628 0H73.4587C71.1995 0 69.0329 0.897453 67.4354 2.49494C65.8379 4.09243 64.9404 6.25909 64.9404 8.51828V36.3122H9.20676C6.94757 36.3122 4.78096 37.2097 3.18347 38.8072C1.58599 40.4046 0.688477 42.5713 0.688477 44.8305V92.7763C0.688477 95.0355 1.58599 97.2021 3.18347 98.7996C4.78096 100.397 6.94757 101.295 9.20676 101.295H28.6771V123.101C28.6898 123.687 28.9312 124.244 29.3497 124.653C29.7683 125.063 30.3305 125.292 30.916 125.292C31.343 125.277 31.7603 125.16 32.1329 124.951L67.764 101.295H89.0841C91.3433 101.295 93.5099 100.397 95.1074 98.7996C96.7048 97.2021 97.6023 95.0355 97.6023 92.7763V66.832L130.312 88.5414C130.805 88.8576 131.402 88.9685 131.975 88.8502C132.548 88.7319 133.052 88.394 133.379 87.9087C133.594 87.5384 133.711 87.1197 133.719 86.6918V65.031H153.482C155.746 65.0181 157.912 64.1099 159.508 62.5046C161.105 60.8994 162 58.7277 162 56.464V8.42093C161.975 6.20371 161.087 4.08363 159.523 2.51119C157.96 0.938741 155.845 0.0378707 153.628 0ZM89.2296 96.9137H67.2774C66.8463 96.8992 66.4213 97.0182 66.0605 97.2544L33.2524 118.964V99.1041C33.2524 98.8165 33.1961 98.5316 33.086 98.2659C32.9759 98.0001 32.8146 97.7587 32.6112 97.5553C32.4078 97.3519 32.1663 97.1905 31.9006 97.0804C31.6348 96.9704 31.3498 96.9137 31.0622 96.9137H9.20676C8.1179 96.9009 7.07789 96.4593 6.31247 95.6848C5.54704 94.9103 5.11807 93.8652 5.11815 92.7763V44.8305C5.11807 43.7416 5.54704 42.6965 6.31247 41.922C7.07789 41.1474 8.1179 40.7059 9.20676 40.6931H89.3758C90.4731 40.6931 91.5257 41.129 92.3016 41.9049C93.0775 42.6808 93.5131 43.7332 93.5131 44.8305V92.7763C93.5069 93.3302 93.3908 93.8773 93.1715 94.386C92.9522 94.8947 92.6341 95.3548 92.2356 95.7396C91.8372 96.1245 91.3666 96.4264 90.8506 96.628C90.3346 96.8295 89.7834 96.9266 89.2296 96.9137V96.9137ZM157.766 56.464C157.753 57.5574 157.313 58.6025 156.54 59.3757C155.767 60.1489 154.722 60.5889 153.628 60.6015H131.675C131.09 60.6014 130.528 60.8306 130.109 61.24C129.691 61.6494 129.449 62.2065 129.436 62.7919V82.6517L97.7479 61.6237V44.8305C97.7479 42.5713 96.851 40.4046 95.2535 38.8072C93.656 37.2097 91.4888 36.3122 89.2296 36.3122H69.3701V8.42093C69.3701 7.33652 69.8012 6.29652 70.568 5.52973C71.3348 4.76293 72.3743 4.33215 73.4587 4.33215H153.628C154.717 4.33208 155.762 4.76129 156.537 5.52672C157.311 6.29215 157.753 7.33206 157.766 8.42093V56.464Z" fill="#595959"/>
</svg>
