<!-- Generated by IcoMoon.io -->
<svg version="1.1" xmlns="http://www.w3.org/2000/svg" width="6" height="32" viewBox="0 0 6 32">
<title>dot-menu</title>
<path fill="#808080" d="M5.648 2.824c0 1.56-1.264 2.824-2.824 2.824s-2.824-1.264-2.824-2.824c0-1.56 1.264-2.824 2.824-2.824s2.824 1.264 2.824 2.824z"></path>
<path fill="#808080" d="M5.648 16.009c0 1.56-1.264 2.824-2.824 2.824s-2.824-1.264-2.824-2.824c0-1.56 1.264-2.824 2.824-2.824s2.824 1.264 2.824 2.824z"></path>
<path fill="#808080" d="M5.648 29.194c0 1.56-1.264 2.824-2.824 2.824s-2.824-1.264-2.824-2.824c0-1.56 1.264-2.824 2.824-2.824s2.824 1.264 2.824 2.824z"></path>
</svg>
