<svg xmlns="http://www.w3.org/2000/svg" viewBox="0 0 1849.95 440.91"><defs><style>.cls-1{fill:#fff;}</style></defs><g id="Layer_2" data-name="Layer 2"><g id="Layer_1-2" data-name="Layer 1"><path class="cls-1" d="M501,44.2C476.4,19.29,443.11,5.52,407.31,5.42,370.47,5.3,333.54,19.26,304,44.08,270.31,14.45,239.87,0,211.21,0c-40,0-77.17,15.77-104.33,44.14-20.41,20.41-34.39,47.21-40.45,77.5a16.81,16.81,0,1,0,33,6.59c4.76-23.76,15.56-44.62,31.52-60.58a110.07,110.07,0,0,1,80.3-34c22.29,0,49.29,15,80,44.35a17.92,17.92,0,0,0,12.73,5.38h0A17.92,17.92,0,0,0,316.66,78C341.42,53.22,374.31,39,406.92,39h.3c27.18.07,51.36,10,69.73,28.61a119.59,119.59,0,0,1,33.43,83c0,31.08-12.14,61.3-33,82.6L304.21,400.73,166.86,268a16.8,16.8,0,0,0-23.35,24.17l149,144a16.81,16.81,0,0,0,23.36,0l185.21-179C528.36,229.28,544,190.49,544,150.7A153.25,153.25,0,0,0,501,44.2Z"/><path class="cls-1" d="M513.74,189.36H378.16a16.81,16.81,0,0,0-12.22,5.26l-51,53.89-58.7-133.16a16.81,16.81,0,0,0-29.71-2l-46.62,76H72.27a16.81,16.81,0,0,0,0,33.62H189.35a16.82,16.82,0,0,0,14.33-8l34.78-56.69,56,127A16.81,16.81,0,0,0,307,295a17.27,17.27,0,0,0,2.86.25A16.79,16.79,0,0,0,322,290l63.38-67H513.74a16.81,16.81,0,0,0,0-33.61Z"/><circle class="cls-1" cx="15.27" cy="207.7" r="15.27"/><path class="cls-1" d="M813.55,87.81a101.32,101.32,0,0,1,33.37,31.7,115.63,115.63,0,0,1,9.8,19,106,106,0,0,1,6.46,24,133.21,133.21,0,0,1,1,29.19,164.44,164.44,0,0,1-6.46,34.62q-7.1,23.78-19.6,41.29a169.65,169.65,0,0,1-27.32,30.24,157.19,157.19,0,0,1-30.66,20.85,308.39,308.39,0,0,1-28.77,13.14,53,53,0,0,1-10,3.33l-5.84,1.67L666.32,152h-22.1l20.85-36.7h80.08L724.3,152H707.2l47.54,130.13A92,92,0,0,0,771,276.74a111.47,111.47,0,0,0,17.31-9.38,108.74,108.74,0,0,0,16-12.93A68.59,68.59,0,0,0,816.89,238q5.42-10.43,9.8-20a141.44,141.44,0,0,0,7.3-19.81,118.43,118.43,0,0,0,4-21.69,174.56,174.56,0,0,0,.21-25.65A99.8,99.8,0,0,0,833.57,126a117.38,117.38,0,0,0-8.34-19.81A104.12,104.12,0,0,0,813.55,87.81Z"/><path class="cls-1" d="M994.55,115.34,973.7,152h-7.92V335.13l-37.54-36.28V152H907.39l20.85-36.7h66.31Zm-20-60.48L947.84,81.55,921.57,54.86l26.27-26.27Z"/><path class="cls-1" d="M1188.91,115.34a34.83,34.83,0,0,1,10.42,7.3,119.54,119.54,0,0,1,10.43,11.47,134.51,134.51,0,0,1,9.39,13.34q4.36,7.1,7.71,12.93l-27.11,30.86a94.44,94.44,0,0,0-6.26-9.8,76.31,76.31,0,0,0-7.92-9.38,40.56,40.56,0,0,0-8.55-6.67q-4.38-2.5-8.13-1.67a56.25,56.25,0,0,0-13.56,5.21q-7.71,4-16.47,9.18t-17.52,11L1105.08,200V335.13l-37.54-36.28V152.46h-31.28l20.85-37.12h48v61.72q12.09-10.41,24.39-21.48l20.23-18.14q3.33-2.91,8.55-7.51a104.37,104.37,0,0,1,10.85-8.34,60.17,60.17,0,0,1,10.84-5.84C1183.41,114.37,1186.41,114.23,1188.91,115.34Z"/><path class="cls-1" d="M1471.68,152H1460V335.13l-37.54-36.28V272.57l-55,41.29-33.36,25.44c-2-1.66-3.9-3.48-5.84-5.42s-4-4-6.26-6.25a251.75,251.75,0,0,1-20.23-24.4,171.73,171.73,0,0,1-18.56-32.12,165.68,165.68,0,0,1-11.67-39q-3.77-21.27.41-45.88a149.1,149.1,0,0,1,9-34,132.39,132.39,0,0,1,13.76-25.86,110.13,110.13,0,0,1,16.27-18.77,100.1,100.1,0,0,1,17.31-12.72A108.46,108.46,0,0,1,1372,80.72a148.88,148.88,0,0,0-18.77,11.68A134.34,134.34,0,0,0,1337,106.79a88.51,88.51,0,0,0-14.6,20.22,156.61,156.61,0,0,0-11,23.36,127.28,127.28,0,0,0-5.84,21.27,152.45,152.45,0,0,0-2.3,20.86,197.62,197.62,0,0,0,.42,22.1,73.48,73.48,0,0,0,7.09,27.73,120.53,120.53,0,0,0,14.39,23.36,111,111,0,0,0,16.26,16.89c5.43,4.45,9.66,7.09,12.73,7.93l68.39-40.88V152H1391.6l20.85-36.7h80.08Z"/><path class="cls-1" d="M1583,335.13v19.19a57.86,57.86,0,0,1-3.13,19.6,65.27,65.27,0,0,1-8.13,15.85,60.65,60.65,0,0,1-11.47,12.3q-6.46,5.22-12.72,9.39A79.72,79.72,0,0,1,1514,423.34a107.5,107.5,0,0,1-35.45-1.25,81.11,81.11,0,0,1-29.2-11.88q-12.3-8.35-14.81-19.61a45,45,0,0,1-.83-8.75,31.37,31.37,0,0,1-.42-5l33-27.53c-.27,3.9-.55,7.78-.83,11.68-.28,3.34-.42,6.81-.42,10.43a37.73,37.73,0,0,0,.83,8.76q2.51,17.1,11.89,24.19a38.69,38.69,0,0,0,20.86,7.92,51.75,51.75,0,0,0,22.1-3.13q10.63-4,15.22-9.8,7.1-9.18,8.34-15.43a61.19,61.19,0,0,0,1.26-12.09V115.34L1583,151.62ZM1565.1,28.59l-26.28,26.69,26.28,26.27,26.69-26.27Z"/><path class="cls-1" d="M1850,300.1l-20.85,37.12h-71.73l-6.68-.42q6.25-10.83,12.93-22.52,5.84-10,12.51-22.31t12.93-24.82q15.43-30.85,19.81-55.68t1.05-39.41Q1807,160.39,1797,155.79q-11.68-5.83-30-3.33t-43.8,19.6a172.72,172.72,0,0,0-19.6,14.8q-8.76,7.72-15,14.39V335.13L1651,298.85V65.29h-5.84q-8.76,0-13.76-5.63a38,38,0,0,1-7.51-12.72,69.45,69.45,0,0,1-3.75-18.35h68.4V164.13q2.91-3.33,6-6.46l6.46-6.46a106.77,106.77,0,0,1,15.85-12.73A137.39,137.39,0,0,1,1737.76,127a164.23,164.23,0,0,1,23.57-8.34,90.11,90.11,0,0,1,23.56-3.33,61.23,61.23,0,0,1,29.2,7.09,67.23,67.23,0,0,1,21.06,17.1,60.64,60.64,0,0,1,12.3,24.6,75.8,75.8,0,0,1,1.25,30.66,142.36,142.36,0,0,1-8.75,31.07,244.13,244.13,0,0,1-15.23,30.86q-9,15.43-18.14,29.62-2.5,3.75-4.8,7.09t-4.38,6.67Z"/></g></g></svg>