<svg width="20" height="27" viewBox="0 0 20 27" fill="none" xmlns="http://www.w3.org/2000/svg">
<path d="M9.99663 17.875C11.3222 17.8732 12.5929 17.3516 13.5302 16.4245C14.4675 15.4973 14.9948 14.2404 14.9966 12.9293V6.00262C15.0213 5.33827 14.9104 4.67582 14.6704 4.05485C14.4305 3.43388 14.0664 2.86712 13.6 2.38848C13.1336 1.90983 12.5744 1.5291 11.9558 1.26906C11.3373 1.00901 10.6721 0.875 9.99998 0.875C9.32789 0.875 8.6627 1.00901 8.04416 1.26906C7.42562 1.5291 6.86643 1.90983 6.40001 2.38848C5.93359 2.86712 5.56955 3.43388 5.32958 4.05485C5.08961 4.67582 4.97866 5.33827 5.00338 6.00262V12.9494C5.01052 14.2559 5.53929 15.5067 6.47455 16.4292C7.40981 17.3518 8.67578 17.8715 9.99663 17.875ZM6.53922 5.98252C6.51855 5.52025 6.59274 5.05862 6.75734 4.62549C6.92194 4.19235 7.17355 3.7967 7.49695 3.46236C7.82035 3.12801 8.20884 2.86192 8.63903 2.68013C9.06922 2.49834 9.53217 2.40461 9.99998 2.40461C10.4678 2.40461 10.9308 2.49834 11.361 2.68013C11.7912 2.86192 12.1796 3.12801 12.503 3.46236C12.8264 3.7967 13.078 4.19235 13.2426 4.62549C13.4072 5.05862 13.4815 5.52025 13.4608 5.98252V12.9293C13.4214 13.811 13.0395 14.6437 12.3948 15.2538C11.7501 15.8639 10.8922 16.2044 9.99998 16.2044C9.10773 16.2044 8.24989 15.8639 7.60519 15.2538C6.96049 14.6437 6.57864 13.811 6.53922 12.9293V5.98252Z" fill="#A19D9D"/>
<path d="M15.6906 22.2002H12.6391V20.1438C14.2013 19.5794 15.555 18.5358 16.5153 17.1557C17.4756 15.7755 17.9956 14.126 18.0044 12.4325V8.875H16.482V12.4325C16.4279 14.1527 15.7212 15.7838 14.5115 16.9811C13.3018 18.1783 11.6839 18.8477 10 18.8477C8.31611 18.8477 6.69819 18.1783 5.48849 16.9811C4.2788 15.7838 3.57214 14.1527 3.518 12.4325V8.875H1.99561V12.4325C2.00442 14.126 2.52445 15.7755 3.48472 17.1557C4.44499 18.5358 5.7987 19.5794 7.36095 20.1438V22.2002H4.30942C3.29966 22.202 2.33172 22.6128 1.61771 23.3426C0.903695 24.0723 0.501773 25.0616 0.5 26.0936V26.875H19.5V26.0936C19.4982 25.0616 19.0963 24.0723 18.3823 23.3426C17.6683 22.6128 16.7004 22.202 15.6906 22.2002ZM8.82971 20.5551C9.58826 20.6648 10.3581 20.6648 11.1167 20.5551V22.2002H8.82971V20.5551ZM2.12304 25.3122C2.28293 24.8575 2.57603 24.4641 2.96244 24.1857C3.34885 23.9073 3.80979 23.7573 4.28257 23.7562H15.6839C16.156 23.7567 16.6164 23.9066 17.0018 24.1852C17.3873 24.4638 17.6789 24.8574 17.8368 25.3122H2.12304Z" fill="#A19D9D"/>
</svg>
