<svg width="23" height="15" viewBox="0 0 23 15" fill="none" xmlns="http://www.w3.org/2000/svg">
<path d="M14.2665 14.25H2.73346C2.00905 14.2483 1.31479 13.9712 0.802546 13.4792C0.290306 12.9872 0.00177771 12.3204 0 11.6246V2.87541C0 2.17911 0.28799 1.51132 0.800614 1.01897C1.31324 0.526606 2.0085 0.25 2.73346 0.25H14.2665C14.9915 0.25 15.6868 0.526606 16.1994 1.01897C16.712 1.51132 17 2.17911 17 2.87541V11.6246C16.9982 12.3204 16.7097 12.9872 16.1974 13.4792C15.6852 13.9712 14.9909 14.2483 14.2665 14.25V14.25ZM2.73346 2.0024C2.49178 2.0024 2.25987 2.09419 2.08834 2.25772C1.91682 2.42126 1.81957 2.64329 1.81779 2.87541V11.6246C1.81957 11.8567 1.91682 12.0787 2.08834 12.2423C2.25987 12.4058 2.49178 12.4976 2.73346 12.4976H14.2665C14.5076 12.4976 14.7388 12.4056 14.9092 12.2419C15.0797 12.0782 15.1754 11.8561 15.1754 11.6246V2.87541C15.1754 2.64388 15.0797 2.42183 14.9092 2.25812C14.7388 2.0944 14.5076 2.0024 14.2665 2.0024H2.73346Z" fill="#0BB5FF"/>
<path d="M22.0708 14.2499C21.9408 14.2521 21.8122 14.2252 21.695 14.1712L15.5459 11.5501C15.4351 11.5024 15.3352 11.4341 15.2519 11.3493C15.1685 11.2645 15.1034 11.1648 15.0603 11.0559C15.0171 10.947 14.9968 10.831 15.0004 10.7145C15.004 10.5981 15.0315 10.4834 15.0813 10.3771C15.1311 10.2709 15.2022 10.175 15.2906 10.0951C15.3791 10.0152 15.483 9.95281 15.5966 9.91144C15.7101 9.87006 15.8311 9.85055 15.9525 9.854C16.074 9.85746 16.1935 9.8838 16.3043 9.93156L21.1621 12.0285V3.50981L16.3043 5.60672C16.1935 5.65448 16.074 5.68082 15.9525 5.68427C15.8311 5.68772 15.7101 5.66821 15.5966 5.62684C15.483 5.58546 15.3791 5.52305 15.2906 5.44314C15.2022 5.36323 15.1311 5.26741 15.0813 5.16113C15.0315 5.05486 15.004 4.9402 15.0004 4.82374C14.9968 4.70727 15.0171 4.5913 15.0603 4.48238C15.1034 4.37346 15.1685 4.27373 15.2519 4.18893C15.3352 4.10414 15.4351 4.03592 15.5459 3.98816L21.695 1.32772C21.8359 1.26699 21.9904 1.2412 22.1444 1.25265C22.2984 1.2641 22.4469 1.31245 22.5764 1.39327C22.7059 1.47451 22.8123 1.58527 22.8863 1.71563C22.9602 1.846 22.9992 1.99191 23 2.1403V13.3652C23.0009 13.4822 22.9775 13.5982 22.931 13.7063C22.8845 13.8145 22.816 13.9127 22.7295 13.9951C22.6429 14.0775 22.5401 14.1425 22.427 14.1862C22.3138 14.23 22.1927 14.2516 22.0708 14.2499V14.2499Z" fill="#0BB5FF"/>
</svg>
