<?xml version="1.0" encoding="UTF-8" standalone="no"?>
<svg
   xmlns:dc="http://purl.org/dc/elements/1.1/"
   xmlns:cc="http://creativecommons.org/ns#"
   xmlns:rdf="http://www.w3.org/1999/02/22-rdf-syntax-ns#"
   xmlns:svg="http://www.w3.org/2000/svg"
   xmlns="http://www.w3.org/2000/svg"
   xmlns:sodipodi="http://sodipodi.sourceforge.net/DTD/sodipodi-0.dtd"
   xmlns:inkscape="http://www.inkscape.org/namespaces/inkscape"
   viewBox="3 3 16 16"
   width="100%"
   height="100%"
   preserveAspectRatio="xMidYMid meet"
   version="1.1"
   id="svg4638"
   sodipodi:docname="active-tick.svg"
   inkscape:version="0.92.4 (5da689c313, 2019-01-14)">
  <metadata
     id="metadata4642">
    <rdf:RDF>
      <cc:Work
         rdf:about="">
        <dc:format>image/svg+xml</dc:format>
        <dc:type
           rdf:resource="http://purl.org/dc/dcmitype/StillImage" />
      </cc:Work>
    </rdf:RDF>
  </metadata>
  <sodipodi:namedview
     pagecolor="#ffffff"
     bordercolor="#666666"
     borderopacity="1"
     objecttolerance="10"
     gridtolerance="10"
     guidetolerance="10"
     inkscape:pageopacity="0"
     inkscape:pageshadow="2"
     inkscape:window-width="1920"
     inkscape:window-height="1013"
     id="namedview4640"
     showgrid="false"
     inkscape:zoom="14.75"
     inkscape:cx="-3.1525424"
     inkscape:cy="8"
     inkscape:window-x="1699"
     inkscape:window-y="-9"
     inkscape:window-maximized="1"
     inkscape:current-layer="g4636" />
  <rect
     id="svgEditorBackground"
     x="3"
     y="3"
     width="16"
     height="16"
     style="fill:none;stroke:none;" />
  <defs
     id="defs4630">
    <linearGradient
       gradientUnits="userSpaceOnUse"
       y2="-2.623"
       x2="0"
       y1="986.67"
       id="0">
      <stop
         stop-color="#ffce3b"
         id="stop4619" />
      <stop
         offset="1"
         stop-color="#ffd762"
         id="stop4621" />
    </linearGradient>
    <linearGradient
       y2="-2.623"
       x2="0"
       y1="986.67"
       gradientUnits="userSpaceOnUse"
       id="linearGradient4628">
      <stop
         stop-color="#ffce3b"
         id="stop4624" />
      <stop
         offset="1"
         stop-color="#fef4ab"
         id="stop4626" />
    </linearGradient>
  </defs>
  <g
     transform="matrix(1.99997 0 0 1.99997-10.994-2071.68)"
     fill="#da4453"
     id="g4636">
    <rect
       y="1037.36"
       x="7"
       height="8"
       width="8"
       fill="darkturquoise"
       rx="4"
       id="rect4632"
       style="fill:#0bb5ff;fill-opacity:1" />
    <path
       d="m 13.054457,1040.2069 -0.38791,-0.39 c -0.05321,-0.054 -0.117913,-0.08 -0.193955,-0.08 -0.07608,0 -0.14074,0.027 -0.19399,0.08 l -1.871281,1.884 -0.8385928,-0.8461 c -0.05325,-0.053 -0.1179134,-0.08 -0.193955,-0.08 -0.076077,0 -0.1407399,0.027 -0.19399,0.08 l -0.3879101,0.39 c -0.05325,0.053 -0.079858,0.1185 -0.079858,0.195 0,0.076 0.026608,0.1415 0.079858,0.195 l 1.032548,1.0379 0.3879099,0.39 c 0.05321,0.053 0.117879,0.08 0.193955,0.08 0.07604,0 0.14074,-0.027 0.193955,-0.08 l 0.38791,-0.39 2.065096,-2.0759 c 0.05321,-0.054 0.07986,-0.1186 0.07986,-0.195 3e-6,-0.076 -0.02664,-0.1415 -0.07986,-0.195"
       id="path4634"
       inkscape:connector-curvature="0"
       style="fill:#ffffff;stroke:none;stroke-width:0.33388934" />
  </g>
</svg>
