<svg width="21" height="20" viewBox="0 0 21 20" fill="none" xmlns="http://www.w3.org/2000/svg">
<g clip-path="url(#clip0)">
<path d="M13.907 20.1C17.3312 20.1 20.107 17.3242 20.107 13.9C20.107 10.4758 17.3312 7.7 13.907 7.7C10.4829 7.7 7.70703 10.4758 7.70703 13.9C7.70703 17.3242 10.4829 20.1 13.907 20.1Z" fill="white"/>
<path d="M2.00742 15.5C1.70742 15.5 1.40742 15.2 1.40742 14.9V6.69999H14.8074V7.69999C15.2074 7.79999 15.6074 7.89999 16.0074 7.99999V3.99999C16.0074 2.99999 15.2074 2.09999 14.1074 2.09999H13.4074V0.899994H12.1074V2.09999H3.90742V0.899994H2.70742V2.09999H2.00742C0.907422 2.09999 0.107422 2.99999 0.107422 3.99999V14.9C0.107422 15.9 0.907422 16.8 2.00742 16.8H8.50742C8.30742 16.4 8.10742 16 8.00742 15.6H2.00742V15.5ZM1.30742 3.99999C1.30742 3.69999 1.60742 3.39999 1.90742 3.39999H2.60742V4.59999H3.80742V3.39999H12.1074V4.59999H13.3074V3.39999H14.1074C14.4074 3.39999 14.7074 3.69999 14.7074 3.99999V5.49999H1.30742V3.99999Z" fill="#F39C12"/>
<path d="M3.70781 8H2.50781V9.2H3.70781V8Z" fill="#F39C12"/>
<path d="M6.1082 8H4.9082V9.2H6.1082V8Z" fill="#F39C12"/>
<path d="M8.6082 8H7.4082V9.2H8.6082V8Z" fill="#F39C12"/>
<path d="M9.9082 8V9.2C10.3082 8.9 10.7082 8.6 11.1082 8.4V8H9.9082Z" fill="#F39C12"/>
<path d="M3.70781 10.5H2.50781V11.7H3.70781V10.5Z" fill="#F39C12"/>
<path d="M6.1082 10.5H4.9082V11.7H6.1082V10.5Z" fill="#F39C12"/>
<path d="M7.4082 10.5V11.7H8.1082C8.2082 11.3 8.4082 10.9 8.6082 10.6V10.5H7.4082Z" fill="#F39C12"/>
<path d="M3.70781 13H2.50781V14.2H3.70781V13Z" fill="#F39C12"/>
<path d="M6.1082 13H4.9082V14.2H6.1082V13Z" fill="#F39C12"/>
<path d="M7.4082 14.2H7.7082C7.7082 14.1 7.7082 14 7.7082 13.8C7.7082 13.5 7.7082 13.2 7.8082 12.9H7.4082V14.2Z" fill="#F39C12"/>
<path d="M13.9074 19.2C16.8345 19.2 19.2074 16.8271 19.2074 13.9C19.2074 10.9729 16.8345 8.59999 13.9074 8.59999C10.9803 8.59999 8.60742 10.9729 8.60742 13.9C8.60742 16.8271 10.9803 19.2 13.9074 19.2Z" fill="white"/>
<path d="M16.0078 8V9.3C17.7078 10.1 18.9078 11.8 18.9078 13.8C18.9078 16.5 16.7078 18.8 13.9078 18.8C12.2078 18.8 10.8078 18 9.90781 16.7H8.50781C9.50781 18.6 11.6078 20 14.0078 20C17.4078 20 20.2078 17.2 20.2078 13.8C20.1078 11.2 18.4078 8.9 16.0078 8Z" fill="#F39C12"/>
<path d="M9.90664 11V10.5H10.3066C10.9066 9.89999 11.6066 9.39999 12.4066 9.09999V7.99999H13.6066V8.89999C13.7066 8.89999 13.8066 8.89999 13.9066 8.89999C14.2066 8.89999 14.4066 8.89999 14.7066 8.99999V7.69999C14.4066 7.69999 14.2066 7.59999 13.9066 7.59999C12.9066 7.59999 12.0066 7.79999 11.1066 8.29999V9.19999H9.90664C9.40664 9.59999 9.00664 10.1 8.70664 10.6V11.7H8.10664C8.00664 12.1 7.90664 12.5 7.80664 12.9H8.60664V14.1H7.80664C7.80664 14.5 7.90664 15 8.00664 15.4H9.30664C9.10664 15 9.00664 14.4 9.00664 13.9C9.00664 12.8 9.30664 11.8 9.90664 11Z" fill="#F39C12"/>
<path d="M9.20781 15.5H8.00781C8.10781 15.9 8.30781 16.3 8.50781 16.7H9.90781C9.60781 16.4 9.40781 16 9.20781 15.5Z" fill="#F39C12"/>
<path d="M14.707 9C15.107 9.1 15.607 9.2 15.907 9.4V8C15.507 7.9 15.107 7.8 14.707 7.7V9Z" fill="#F39C12"/>
<path d="M9.9082 9.29999H11.1082V8.39999C10.7082 8.59999 10.3082 8.89999 9.9082 9.29999Z" fill="#F39C12"/>
<path d="M12.4082 8V9.1C12.8082 9 13.2082 8.9 13.6082 8.9V8H12.4082Z" fill="#F39C12"/>
<path d="M8.70703 11.7V10.6C8.50703 10.9 8.30703 11.3 8.20703 11.7H8.70703Z" fill="#F39C12"/>
<path d="M9.9082 11C10.0082 10.8 10.1082 10.7 10.3082 10.5H9.9082V11Z" fill="#F39C12"/>
<path d="M7.80703 14.2H8.70703V13H7.80703C7.80703 13.3 7.70703 13.6 7.70703 13.9C7.70703 14 7.70703 14.1 7.80703 14.2Z" fill="#F39C12"/>
<path d="M16.3074 13.4H14.3074V11.4C14.3074 11.2 14.1074 11 13.9074 11C13.7074 11 13.5074 11.2 13.5074 11.4V13.4H11.5074C11.3074 13.4 11.1074 13.6 11.1074 13.8C11.1074 14 11.3074 14.2 11.5074 14.2H13.5074V16.2C13.5074 16.4 13.7074 16.6 13.9074 16.6C14.1074 16.6 14.3074 16.4 14.3074 16.2V14.2H16.3074C16.5074 14.2 16.7074 14 16.7074 13.8C16.7074 13.6 16.6074 13.4 16.3074 13.4Z" fill="#F39C12"/>
</g>
<defs>
<clipPath id="clip0">
<rect width="20" height="19.1" fill="white" transform="translate(0.107422 0.899994)"/>
</clipPath>
</defs>
</svg>
