<svg xmlns="http://www.w3.org/2000/svg" viewBox="0 0 20.71 20.71"><defs><style>.cls-1{fill:#626363;}</style></defs><g id="Layer_2" data-name="Layer 2"><g id="Layer_1-2" data-name="Layer 1"><path class="cls-1" d="M19.42,0H1.29A1.29,1.29,0,0,0,0,1.29V16a1.29,1.29,0,0,0,1.29,1.29H11.65V16.4H1.29A.44.44,0,0,1,.86,16V1.29A.44.44,0,0,1,1.29.86H19.42a.43.43,0,0,1,.43.43V16a.43.43,0,0,1-.43.43h-.86v.86h.86A1.29,1.29,0,0,0,20.71,16V1.29A1.29,1.29,0,0,0,19.42,0Z"/><path class="cls-1" d="M18.12,4.32A1.73,1.73,0,0,1,16.4,2.59.43.43,0,0,0,16,2.16H4.75a.43.43,0,0,0-.43.43A1.74,1.74,0,0,1,2.59,4.32a.43.43,0,0,0-.43.43v7.76a.44.44,0,0,0,.43.44,1.73,1.73,0,0,1,1.73,1.72.43.43,0,0,0,.43.43h5.61v-.86H5.14A2.57,2.57,0,0,0,3,12.12v-7A2.57,2.57,0,0,0,5.14,3H15.57a2.59,2.59,0,0,0,2.12,2.12V8.63h.87V4.75A.44.44,0,0,0,18.12,4.32Z"/><path class="cls-1" d="M15.1,9.06A3.89,3.89,0,1,0,19,13,3.89,3.89,0,0,0,15.1,9.06Zm0,6.91a3,3,0,1,1,3-3A3,3,0,0,1,15.1,16Z"/><path class="cls-1" d="M16.83,15.53v3.85l-1.46-1.16a.42.42,0,0,0-.54,0l-1.45,1.16V15.53h-.87v4.75a.45.45,0,0,0,.1.27.43.43,0,0,0,.61.07l1.88-1.51L17,20.62a.44.44,0,0,0,.27.09.43.43,0,0,0,.43-.43V15.53Z"/><path class="cls-1" d="M14.67,4.32H6a.43.43,0,0,0-.43.43V6.47A.43.43,0,0,0,6,6.9h8.63a.43.43,0,0,0,.43-.43V4.75A.43.43,0,0,0,14.67,4.32ZM14.24,6H6.47V5.18h7.77Z"/><rect class="cls-1" x="5.18" y="8.2" width="0.86" height="0.86"/><rect class="cls-1" x="6.9" y="8.2" width="0.86" height="0.86"/><rect class="cls-1" x="5.18" y="9.92" width="5.18" height="0.86"/><path class="cls-1" d="M15.1,10.79A2.16,2.16,0,1,0,17.26,13,2.15,2.15,0,0,0,15.1,10.79Zm0,3.45A1.3,1.3,0,1,1,16.4,13,1.29,1.29,0,0,1,15.1,14.24Z"/><rect class="cls-1" x="2.16" y="14.24" width="0.86" height="0.86"/><rect class="cls-1" x="17.69" y="2.16" width="0.86" height="0.86"/><rect class="cls-1" x="2.16" y="2.16" width="0.86" height="0.86"/></g></g></svg>