<!-- Generated by IcoMoon.io -->
<svg version="1.1" xmlns="http://www.w3.org/2000/svg" width="28" height="32" viewBox="0 0 28 32">
<title>doctor</title>
<path fill="#808080" d="M28.357 30.367l-1.416-8.291c-0.151-0.895-0.789-1.61-1.628-1.869l-0.017-0.004-3.826-1.142c-0.095-0.981-0.513-1.85-1.144-2.514l0.002 0.002c-0.497-0.518-1.12-0.912-1.819-1.134l-0.031-0.008c0.114-0.137 0.228-0.263 0.331-0.4 0.74-0.914 1.273-2.025 1.511-3.242l0.008-0.047h0.297c0.010 0 0.023 0 0.035 0 0.77 0 1.393-0.624 1.393-1.393 0-0.016-0-0.032-0.001-0.048l0 0.002v-0.72c-0.002-0.522-0.288-0.978-0.713-1.218l-0.007-0.004v-1.713c0-0.259-0.21-0.468-0.468-0.468v0c-0.256 0.006-0.462 0.212-0.468 0.468v1.931c-0.231 0.037-0.438 0.101-0.632 0.189l0.015-0.006h-0.069l-0.148 0.080v-3.757c-0.006-1.044-0.851-1.889-1.895-1.896h-1.291c-0.47 0.001-0.901 0.169-1.237 0.448l0.003-0.003-0.126 0.103c-0.223 0.185-0.512 0.297-0.828 0.297s-0.605-0.112-0.83-0.299l0.002 0.002-0.126-0.103c-0.332-0.276-0.763-0.444-1.233-0.445h-1.291c-1.044 0.006-1.889 0.851-1.896 1.895v3.781l-0.148-0.080c-0.195-0.091-0.421-0.163-0.658-0.203l-0.016-0.002v-4.865c0 0 0 0 0-0 0-1.516 1.226-2.746 2.74-2.752h6.853c1.52 0 2.752 1.232 2.752 2.752v0.742c0.006 0.256 0.212 0.462 0.468 0.468h0.001c0.259 0 0.468-0.21 0.468-0.468v0-0.742c0-0 0-0 0-0 0-2.017-1.619-3.656-3.629-3.688l-0.003-0h-6.852c-0.017-0-0.037-0-0.057-0-2.037 0-3.689 1.652-3.689 3.689 0 0 0 0 0 0v-0 4.648c-0.431 0.244-0.718 0.7-0.72 1.222v0.72c0 0 0 0 0 0 0 0.765 0.617 1.387 1.381 1.393h0.286c0.246 1.264 0.779 2.375 1.53 3.303l-0.011-0.014c0.103 0.137 0.217 0.263 0.343 0.4-1.624 0.526-2.805 1.957-2.957 3.684l-0.001 0.016-3.826 1.142c-0.854 0.265-1.491 0.979-1.643 1.859l-0.002 0.014-0.582 3.426c-0.003 0.020-0.004 0.042-0.004 0.065 0 0.234 0.168 0.429 0.39 0.471l0.003 0c0.022 0.004 0.048 0.006 0.074 0.006 0.232 0 0.425-0.169 0.462-0.392l0-0.003 0.582-3.358c0.086-0.546 0.473-0.983 0.984-1.139l0.010-0.003 3.506-1.119v0.925c-0.822 0.155-1.485 0.719-1.776 1.469l-0.005 0.016c-0.065 0.183-0.113 0.396-0.136 0.616l-0.001 0.012-0.308 4.34c-0.003 0.031-0.005 0.068-0.005 0.105 0 0.31 0.124 0.592 0.325 0.798l-0-0c0.21 0.232 0.512 0.377 0.848 0.377 0.007 0 0.014-0 0.021-0h0.581c0.239-0.005 0.433-0.187 0.457-0.421l0-0.002c0-0.259-0.21-0.468-0.468-0.468v0h-0.571c-0.003 0-0.006 0-0.009 0-0.069 0-0.132-0.031-0.173-0.080l-0-0c-0.043-0.050-0.069-0.115-0.069-0.186 0-0.003 0-0.006 0-0.009v0l0.343-4.374c0.010-0.142 0.038-0.274 0.083-0.398l-0.003 0.010c0.212-0.533 0.722-0.902 1.32-0.902 0.006 0 0.012 0 0.017 0h0.079c0.007-0 0.015-0 0.022-0 0.571 0 1.063 0.338 1.287 0.825l0.004 0.009c0.054 0.134 0.091 0.289 0.102 0.452l0 0.005 0.32 4.374c0.002 0.011 0.004 0.024 0.004 0.038 0 0.062-0.028 0.118-0.072 0.156l-0 0c-0.042 0.049-0.104 0.080-0.174 0.080-0.003 0-0.006-0-0.009-0h-0.559c-0.259 0-0.468 0.21-0.468 0.468v0c0 0.259 0.21 0.468 0.468 0.468v0h0.582c0.002 0 0.005 0 0.008 0 0.631 0 1.142-0.511 1.142-1.142 0-0.048-0.003-0.096-0.009-0.143l0.001 0.006-0.343-4.385c-0.024-0.273-0.089-0.525-0.189-0.758l0.006 0.016c-0.308-0.719-0.955-1.241-1.734-1.369l-0.013-0.002v-1.211l1.622-0.48c0.137 0.308 0.434 0.971 1.005 2.41s1.302 3.312 1.999 5.116c0 0 0 0 0 0 0.457 1.211 0.914 2.387 1.29 3.426 0.076 0.171 0.244 0.288 0.44 0.288s0.364-0.117 0.438-0.285l0.001-0.003c0.377-1.028 0.834-2.204 1.29-3.426v0c0.685-1.804 1.405-3.666 1.987-5.116s0.868-2.101 1.016-2.41l1.61 0.48v2.775c-1.114 0.227-1.941 1.199-1.941 2.364 0 1.331 1.079 2.41 2.41 2.41s2.41-1.079 2.41-2.41c0-1.165-0.827-2.137-1.926-2.361l-0.015-0.003v-2.49l3.529 1.062c0.52 0.159 0.908 0.596 0.993 1.134l0.001 0.008 1.473 8.28c0.005 0.025 0.008 0.054 0.008 0.083 0 0.113-0.042 0.216-0.111 0.294l0-0c-0.078 0.105-0.201 0.172-0.34 0.172-0.005 0-0.010-0-0.015-0l0.001 0h-25.547c-0.001 0-0.002 0-0.003 0-0.142 0-0.269-0.067-0.35-0.17l-0.001-0.001c-0.069-0.078-0.111-0.181-0.111-0.294 0-0.029 0.003-0.058 0.008-0.086l-0 0.003 0.468-2.729c0.003-0.020 0.005-0.043 0.005-0.067 0-0.236-0.167-0.434-0.39-0.481l-0.003-0.001c-0.020-0.003-0.042-0.004-0.065-0.004-0.234 0-0.429 0.168-0.471 0.39l-0 0.003-0.491 2.741c-0.010 0.062-0.015 0.133-0.015 0.206 0 0.776 0.629 1.405 1.405 1.405 0.005 0 0.011-0 0.016-0h25.57c0.002 0 0.005 0 0.008 0 0.428 0 0.811-0.195 1.064-0.5l0.002-0.002c0.203-0.236 0.327-0.546 0.327-0.884 0-0.079-0.007-0.156-0.020-0.232l0.001 0.008zM20.363 9.502c0.132-0.032 0.285-0.052 0.442-0.057l0.003-0c0.034 0.008 0.074 0.013 0.114 0.013s0.080-0.005 0.118-0.013l-0.004 0.001c0.005 0.026 0.008 0.055 0.008 0.086s-0.003 0.060-0.009 0.089l0-0.003v0.662c0 0 0 0 0 0 0 0.248-0.198 0.45-0.445 0.457h-0.263v-1.233zM7.994 10.724h-0.285c-0.243-0.006-0.439-0.202-0.445-0.445v-0.72c-0.005-0.026-0.008-0.055-0.008-0.086s0.003-0.060 0.009-0.089l-0 0.003c0.034 0.008 0.074 0.013 0.114 0.013s0.080-0.005 0.118-0.013l-0.004 0.001c0.186 0.020 0.356 0.060 0.517 0.119l-0.015-0.005v1.222zM8.942 11.249v-1.233c0.065 0.024 0.139 0.039 0.217 0.039s0.152-0.014 0.221-0.040l-0.004 0.001c0.243-0.098 0.411-0.332 0.411-0.605 0-0 0-0 0-0v0-4.351c0-0 0-0 0-0 0-0.526 0.423-0.953 0.947-0.959h1.291c0.002 0 0.004-0 0.006-0 0.242 0 0.463 0.086 0.635 0.23l-0.002-0.001 0.126 0.103c0.383 0.319 0.88 0.513 1.422 0.513s1.039-0.194 1.425-0.516l-0.004 0.003 0.126-0.103c0.171-0.142 0.392-0.228 0.634-0.228 0.002 0 0.004 0 0.006 0h1.29c0.527 0.006 0.953 0.432 0.959 0.959v4.329c-0 0.003-0 0.007-0 0.012 0 0.353 0.286 0.64 0.64 0.64 0.004 0 0.008-0 0.012-0h-0.001c0.029 0.005 0.063 0.008 0.097 0.008s0.068-0.003 0.101-0.009l-0.003 0.001v1.211c-0.156 1.205-0.644 2.274-1.367 3.139l0.008-0.010c-0.333 0.434-0.709 0.809-1.128 1.131l-0.014 0.011c-0.757 0.578-1.717 0.927-2.758 0.927s-2.001-0.348-2.769-0.935l0.011 0.008c-0.434-0.333-0.809-0.709-1.131-1.128l-0.011-0.014c-0.738-0.85-1.245-1.919-1.412-3.097l-0.004-0.032zM17.279 18.821l-3.061 2.284-3.072-2.284c0.283-0.367 0.457-0.83 0.468-1.334l0-0.003v-0.754c0.752 0.409 1.647 0.65 2.598 0.65s1.846-0.241 2.627-0.665l-0.029 0.014v0.754c0.004 0.503 0.171 0.967 0.45 1.342l-0.004-0.006zM10.335 18.273c-0.118-0.041-0.253-0.064-0.394-0.064s-0.276 0.023-0.403 0.067l0.009-0.003-1.622 0.491c0.287-1.365 1.378-2.409 2.745-2.624l0.019-0.002v1.359c-0.022 0.305-0.153 0.576-0.354 0.777l0-0zM11.615 22.030v0l-0.069-0.183-0.126-0.148-0.206-0.503-0.057-0.137v-0.126l-0.148-0.377v-0.24c0-0.126-0.103-0.251-0.148-0.365v0l-0.080-0.183v-0.091l2.638 1.976-1.142 0.468-0.468 0.194zM12.757 24.896c-0.103-0.24-0.194-0.48-0.286-0.72l-0.423-1.074 0.183-0.080 0.708 0.834zM14.218 28.711c0.002-0.012 0.003-0.026 0.003-0.040s-0.001-0.028-0.003-0.041l0 0.002c-0.206-0.56-0.48-1.268-0.777-2.044l0.434-2.398h0.765l0.434 2.398zM14.767 23.252h-1.142l-0.525-0.605 1.085-0.468 1.074 0.468zM15.909 24.177l-0.274 0.72-0.194-1.039 0.708-0.834 0.183 0.080zM17.702 19.677l-0.069 0.171-0.069 0.183-0.069 0.16v0.24c-0.030 0.096-0.061 0.176-0.097 0.253l0.005-0.013v0.126l-0.057 0.137c-0.069 0.148-0.137 0.32-0.206 0.491v0l-0.069 0.171-0.069 0.183-0.080 0.194-0.468-0.194-1.142-0.468 2.638-1.976zM18.844 18.238v0c-0.123-0.043-0.264-0.069-0.411-0.069s-0.289 0.025-0.42 0.071l0.009-0.003c-0.195-0.213-0.316-0.498-0.32-0.81v-1.303c1.39 0.207 2.486 1.257 2.76 2.605l0.004 0.021zM22.498 24.896c0 0.82-0.665 1.485-1.485 1.485s-1.485-0.665-1.485-1.485c0-0.82 0.665-1.485 1.485-1.485v0c0.82 0 1.485 0.665 1.485 1.485v0z"></path>
</svg>
