<svg xmlns="http://www.w3.org/2000/svg" viewBox="0 0 19.11 21.05"><defs><style>.cls-1{fill:#626363;}</style></defs><g id="Layer_2" data-name="Layer 2"><g id="Layer_1-2" data-name="Layer 1"><path class="cls-1" d="M7,1.74a.25.25,0,0,0,0,.07l0,.06.06,0,.07,0,.08,0H7.5l.08,0,.07,0,.06,0,0-.06a.25.25,0,0,0,0-.07.24.24,0,0,0,0-.08.19.19,0,0,0,0-.08.4.4,0,0,0-.12-.29l-.06-.05-.07,0-.08,0a.43.43,0,0,0-.16,0l-.08,0-.07,0-.06.05A.4.4,0,0,0,7,1.58a.19.19,0,0,0,0,.08A.24.24,0,0,0,7,1.74Z"/><path class="cls-1" d="M19.11,15.87a3.77,3.77,0,0,0-3.29-3.74V12a1.31,1.31,0,0,0-1.31-1.31h-.77v-.39A.79.79,0,0,0,13,9.52H12.8v-1a1,1,0,0,0-1-1V5.8a2.45,2.45,0,0,0-.31-1.18l-.42-.75A1.19,1.19,0,0,1,11,3.29V3.14h.12a1,1,0,0,0,1-1V1a1,1,0,0,0-1-1H6.83a1,1,0,0,0-1,1V2.18a1,1,0,0,0,.79.95,1.21,1.21,0,0,1-.3.41l-.75.68a2.79,2.79,0,0,0-.92,2.07V7.48H4a1,1,0,0,0-1,1v1H2.87a.79.79,0,0,0-.79.79v.39H1.31A1.31,1.31,0,0,0,0,12v7.73a1.31,1.31,0,0,0,1.31,1.31h13.2a1.31,1.31,0,0,0,1.31-1.31v-.12a3.77,3.77,0,0,0,3.29-3.75ZM12.92,10.7H11.85v-.35h1.07ZM6.69,1A.15.15,0,0,1,6.83.82h4.24a.15.15,0,0,1,.14.15V2.18a.14.14,0,0,1-.14.14H6.83a.15.15,0,0,1-.14-.14ZM5.51,6.29a2,2,0,0,1,.65-1.46l.76-.68a2,2,0,0,0,.59-1h2.62v.15a2,2,0,0,0,.25,1L10.8,5a1.65,1.65,0,0,1,.2.78V8.18a.86.86,0,0,1-.41.74,1.06,1.06,0,0,1-.34.16,1.55,1.55,0,0,1-.36.08l-2.72.18A.19.19,0,0,1,7,9.24a1.18,1.18,0,0,1-.12-.53V7.89h0V6.71a.42.42,0,0,0-.39-.42.41.41,0,0,0-.44.41v.78H5.51Zm.54,2.39a.61.61,0,0,1-.5-.37h.5ZM3.85,8.5A.18.18,0,0,1,4,8.31h.67A1.41,1.41,0,0,0,6.1,9.5h.11l.06.12a1,1,0,0,0,.89.54h.07L9.94,10a2.21,2.21,0,0,0,.57-.11A2.57,2.57,0,0,0,11,9.62a1.7,1.7,0,0,0,.78-1.31A.19.19,0,0,1,12,8.5v1h-.16a.79.79,0,0,0-.78.79v.39H4.8v-.39A.79.79,0,0,0,4,9.52H3.85Zm-.94,1.85H4v.35H2.91ZM15,19.74a.49.49,0,0,1-.48.48H1.31a.49.49,0,0,1-.49-.48V14.47l1,.24.1,0a.42.42,0,0,0,.4-.31.4.4,0,0,0-.29-.5l-1.16-.3V12a.48.48,0,0,1,.49-.48h13.2A.48.48,0,0,1,15,12v.1h-.12l-.09,0h0l-.11,0h0l-.14,0h0l-.11,0h0l-.09,0h-.06l-.08,0,0,0-.08,0-.05,0-.08,0,0,0-.08,0-.05,0-.07,0,0,0-.07,0-.05,0-.07,0,0,0-.07,0,0,0-.08,0,0,0-.09.07v0l-.22.19,0,0-.07.08,0,0-.07.07,0,0-.06.07,0,0-.06.07,0,0,0,.07,0,.05-.05.07,0,0a.56.56,0,0,1-.05.08l0,.05a.56.56,0,0,0-.05.08l0,0-.05.09,0,0,0,.09,0,0s0,0,0,.06l-2.65.69a.94.94,0,0,0-.78-.41h-.3a.94.94,0,0,0-.87.57l-2.41-.63a.41.41,0,1,0-.21.8l2.53.65v.49a1,1,0,0,0,1,.95h.3a1,1,0,0,0,.95-.95v-.67l2.23-.57a3,3,0,0,0,0,.52,1.09,1.09,0,0,0,0,.18h0a1,1,0,0,0,0,.17v0c0,.05,0,.1,0,.16v0l0,.15v0a.83.83,0,0,0,0,.15v0s0,.1,0,.15v0a.88.88,0,0,0,0,.15v0l.06.15h0a1,1,0,0,0,.07.15,1,1,0,0,0,.07.15h0l.08.14h0a1,1,0,0,0,.08.14h0a.57.57,0,0,0,.08.13v0l.09.12,0,0,.09.12h0l.11.12h0a.57.57,0,0,0,.11.11h0l.25.22h0l.13.1h0l.13.1h0a.57.57,0,0,1,.13.08h0l.13.08h0l.14.07h0l.14.07h0l.15.06h0l.15.06h0l.16.05h0l.16,0h0l.16,0h0l.15,0h0l.16,0h0v.1ZM8.52,15.61a.36.36,0,0,0,0,.1h0v.87a.13.13,0,0,1-.13.13h-.3A.13.13,0,0,1,8,16.59v-.92a.13.13,0,0,1,.13-.13h.3A.11.11,0,0,1,8.52,15.61Zm6.88,3.22h-.07a3,3,0,0,1-2.95-3v-.14a1.64,1.64,0,0,1,0-.22v0s0-.06,0-.09a.17.17,0,0,1,0-.07.11.11,0,0,1,0-.05s0-.07,0-.1v0a2.17,2.17,0,0,1,.07-.24,3,3,0,0,1,2.79-2h.07a3,3,0,0,1,0,5.91Z"/><path class="cls-1" d="M15.78,15.06l-.43.3-1-.89a.41.41,0,0,0-.58,0,.42.42,0,0,0,0,.58l1.3,1.09a.42.42,0,0,0,.26.1.43.43,0,0,0,.24-.08l.68-.48a.41.41,0,0,0-.47-.67Z"/><path class="cls-1" d="M15.33,14.18a.41.41,0,0,0,.41-.41v-.18a.41.41,0,0,0-.82,0v.18A.41.41,0,0,0,15.33,14.18Z"/><path class="cls-1" d="M15.33,17.57a.41.41,0,0,0-.41.41v.18a.41.41,0,1,0,.82,0V18A.41.41,0,0,0,15.33,17.57Z"/><path class="cls-1" d="M17.62,15.46h-.18a.42.42,0,0,0,0,.83h.18a.42.42,0,0,0,0-.83Z"/><path class="cls-1" d="M13.22,15.46h-.17a.42.42,0,1,0,0,.83h.17a.42.42,0,0,0,0-.83Z"/><path class="cls-1" d="M3.67,14.52a.25.25,0,0,0,0-.07l0-.06-.06-.05-.07,0-.08,0H3.21l-.08,0-.07,0L3,14.39l0,.06a.25.25,0,0,0,0,.07.24.24,0,0,0,0,.08.32.32,0,0,0,0,.16.24.24,0,0,0,0,.08.25.25,0,0,0,0,.07L3,15l.06,0,.07,0,.08,0h.16l.08,0,.07,0,.06,0,0-.06a.25.25,0,0,0,0-.07.24.24,0,0,0,0-.08.33.33,0,0,0,0-.16A.24.24,0,0,0,3.67,14.52Z"/></g></g></svg>