<svg xmlns="http://www.w3.org/2000/svg" viewBox="0 0 22 18.33"><defs><style>.cls-1{fill:#626363;}</style></defs><g id="Layer_2" data-name="Layer 2"><g id="Layer_1-2" data-name="Layer 1"><path class="cls-1" d="M19.48,18.33h-17A2.52,2.52,0,0,1,0,15.81V4.35A2.52,2.52,0,0,1,2.52,1.83H8A.69.69,0,1,1,8,3.21H2.52A1.14,1.14,0,0,0,1.38,4.35V15.81A1.15,1.15,0,0,0,2.52,17h17a1.16,1.16,0,0,0,1.15-1.15V4.35a1.15,1.15,0,0,0-1.15-1.14H14a.69.69,0,0,1,0-1.38h5.5A2.52,2.52,0,0,1,22,4.35V15.81A2.52,2.52,0,0,1,19.48,18.33Z"/><path class="cls-1" d="M13.06,5H8.94a1.61,1.61,0,0,1-1.61-1.6V1.6A1.61,1.61,0,0,1,8.94,0h4.12a1.61,1.61,0,0,1,1.61,1.6V3.44A1.61,1.61,0,0,1,13.06,5ZM8.94,1.38a.22.22,0,0,0-.23.22V3.44a.23.23,0,0,0,.23.23h4.12a.23.23,0,0,0,.23-.23V1.6a.22.22,0,0,0-.23-.22Z"/><path class="cls-1" d="M6.88,11A2.29,2.29,0,1,1,9.17,8.71,2.3,2.3,0,0,1,6.88,11Zm0-3.21a.92.92,0,1,0,.91.92A.92.92,0,0,0,6.88,7.79Z"/><path class="cls-1" d="M10.31,15.58a.67.67,0,0,1-.68-.68v-.46a1.16,1.16,0,0,0-1.15-1.15H5.27a1.15,1.15,0,0,0-1.14,1.15v.46a.69.69,0,0,1-1.38,0v-.46a2.52,2.52,0,0,1,2.52-2.52H8.48A2.52,2.52,0,0,1,11,14.44v.46A.68.68,0,0,1,10.31,15.58Z"/><path class="cls-1" d="M18.56,8.25h-5a.69.69,0,0,1-.69-.69.68.68,0,0,1,.69-.68h5a.68.68,0,0,1,.69.68A.69.69,0,0,1,18.56,8.25Z"/><path class="cls-1" d="M18.56,11.92h-5a.69.69,0,0,1,0-1.38h5a.69.69,0,0,1,0,1.38Z"/><path class="cls-1" d="M18.56,15.58h-5a.68.68,0,0,1-.69-.68.69.69,0,0,1,.69-.69h5a.69.69,0,0,1,.69.69A.68.68,0,0,1,18.56,15.58Z"/></g></g></svg>