<svg xmlns="http://www.w3.org/2000/svg" viewBox="0 0 19.6 17.23"><defs><style>.cls-1{fill:#626363;}</style></defs><g id="Layer_2" data-name="Layer 2"><g id="Layer_1-2" data-name="Layer 1"><path class="cls-1" d="M19,2.3H13.82V1.72A1.72,1.72,0,0,0,12.1,0H7.5A1.72,1.72,0,0,0,5.78,1.72V2.3H.57A.57.57,0,0,0,0,2.87V15.51a1.72,1.72,0,0,0,1.72,1.72H17.88a1.72,1.72,0,0,0,1.72-1.72V2.88h0A.55.55,0,0,0,19,2.3ZM6.93,1.72a.58.58,0,0,1,.57-.57h4.6a.57.57,0,0,1,.57.57V2.3H6.93Zm11.3,1.73L16.45,8.8a.58.58,0,0,1-.55.39H12.67V8.62A.57.57,0,0,0,12.1,8H7.5a.58.58,0,0,0-.57.58v.57H3.7a.58.58,0,0,1-.55-.39L1.37,3.45ZM11.52,9.19v1.15H8.08V9.19Zm6.94,6.32a.58.58,0,0,1-.58.57H1.72a.58.58,0,0,1-.57-.57V6.41l.92,2.75A1.72,1.72,0,0,0,3.7,10.34H6.93v.57a.58.58,0,0,0,.57.58h4.6a.57.57,0,0,0,.57-.58v-.57H15.9a1.73,1.73,0,0,0,1.64-1.18l.92-2.75Z"/></g></g></svg>