<!-- Generated by IcoMoon.io -->
<svg version="1.1" xmlns="http://www.w3.org/2000/svg" width="25" height="32" viewBox="0 0 25 32">
<title>notify</title>
<path fill="#808080" d="M24.799 25.469c-0.678-0.537-1.209-1.229-1.546-2.024l-0.013-0.034c-0.995-2.535-1.572-5.471-1.572-8.542 0-0.285 0.005-0.569 0.015-0.851l-0.001 0.041v-0.031c0-0.013 0-0.029 0-0.045 0-3.646-2.154-6.788-5.259-8.224l-0.056-0.023v-2.167c0 0 0-0 0-0 0-1.966-1.589-3.561-3.553-3.569h-0.344c-1.944 0.035-3.507 1.619-3.507 3.569 0 0 0 0 0 0.001v-0 2.167c-3.178 1.452-5.346 4.604-5.346 8.261 0 0.011 0 0.022 0 0.033v-0.002c0.010 0.255 0.015 0.554 0.015 0.855 0 3.056-0.578 5.976-1.63 8.659l0.056-0.161c-0.345 0.831-0.877 1.524-1.548 2.049l-0.011 0.008c-0.313 0.155-0.525 0.473-0.525 0.84 0 0.078 0.010 0.154 0.027 0.226l-0.001-0.006c0.108 0.424 0.487 0.733 0.938 0.733 0.005 0 0.009-0 0.014-0h6.842c0.149 2.548 2.252 4.558 4.824 4.558s4.675-2.010 4.824-4.544l0.001-0.013h6.874c0.45-0.001 0.827-0.309 0.934-0.726l0.001-0.007c0.019-0.069 0.030-0.148 0.030-0.229 0-0.345-0.193-0.644-0.477-0.797l-0.005-0.002zM10.771 3.647c-0.001-0.023-0.002-0.051-0.002-0.078 0-0.93 0.754-1.683 1.683-1.683 0.006 0 0.012 0 0.018 0h0.295c0.014-0 0.030-0.001 0.047-0.001 0.93 0 1.683 0.754 1.683 1.683 0 0 0 0 0 0.001v-0 1.559c-0.539-0.114-1.158-0.179-1.793-0.179s-1.254 0.065-1.851 0.189l0.059-0.010v-1.559zM12.594 30.145c-0 0-0 0-0.001 0-1.605 0-2.91-1.284-2.945-2.88l-0-0.003h5.939c-0.060 1.581-1.344 2.843-2.928 2.868l-0.002 0zM16.382 25.376h-13.264c0.156-0.238 0.317-0.518 0.461-0.808l0.022-0.049c1.21-2.751 1.914-5.958 1.914-9.33 0-0.408-0.010-0.814-0.031-1.217l0.002 0.057c-0.005-0.1-0.008-0.217-0.008-0.335 0-3.969 3.217-7.186 7.186-7.186s7.186 3.217 7.186 7.186c0 0.118-0.003 0.235-0.008 0.351l0.001-0.016c-0.017 0.335-0.026 0.726-0.026 1.121 0 3.374 0.704 6.584 1.972 9.491l-0.060-0.153c0.171 0.327 0.343 0.608 0.499 0.857z"></path>
</svg>
