<!-- Generated by IcoMoon.io -->
<svg version="1.1" xmlns="http://www.w3.org/2000/svg" width="26" height="32" viewBox="0 0 26 32">
<title>patient</title>
<path fill="#808080" opacity="0.6" d="M25.536 30.967l-1.517-14.719c-0.189-1.726-1.639-3.056-3.399-3.056-0.003 0-0.006 0-0.009 0h-3.165c1.287-1.207 2.089-2.918 2.089-4.816 0-0.011-0-0.023-0-0.034v0.002-1.748c-0.171-3.561-3.1-6.383-6.687-6.383-3.619 0-6.567 2.871-6.691 6.46l-0 0.011v1.627c-0 0.008-0 0.017-0 0.026 0 1.912 0.806 3.636 2.096 4.851l0.003 0.003h-3.177c-0 0-0 0-0 0-1.694 0-3.1 1.232-3.372 2.849l-0.003 0.020-1.704 9.97c-0.028 0.165-0.044 0.356-0.044 0.55 0 1.894 1.536 3.43 3.43 3.43 0.012 0 0.023-0 0.035-0h0.581l-0.099 0.945c-0.003 0.028-0.005 0.061-0.005 0.093 0 0.519 0.42 0.939 0.939 0.939 0.486 0 0.885-0.369 0.934-0.842l0-0.004 0.11-1.099h10.52c1.888 0 3.419-1.531 3.419-3.419s-1.531-3.419-3.419-3.419h-0.209l4.694-8.146c0.696 0.129 1.223 0.712 1.264 1.425l0 0.004 1.517 14.719c0.049 0.474 0.447 0.841 0.93 0.841 0.037 0 0.073-0.002 0.108-0.006l-0.004 0c0.477-0.040 0.849-0.437 0.849-0.92 0-0.055-0.005-0.11-0.014-0.162l0.001 0.006zM12.851 1.88c0.006-0 0.014-0 0.022-0 2.303 0 4.229 1.613 4.71 3.771l0.006 0.032h-0.649l-1.627-1.616c-0.168-0.171-0.401-0.277-0.66-0.277s-0.492 0.106-0.659 0.277l-0 0c-1.533 1.522-3.629 2.478-5.949 2.528l-0.010 0c0.079-2.6 2.204-4.678 4.814-4.683h0.001zM8.036 8.475c2.519-0.021 4.821-0.931 6.612-2.432l-0.016 0.013 1.242 1.264c0.166 0.175 0.4 0.285 0.659 0.286h1.099v0.748c0 0.018 0 0.039 0 0.060 0 2.659-2.156 4.815-4.815 4.815-2.638 0-4.781-2.122-4.815-4.752l-0-0.003zM3.562 16.335c0.116-0.739 0.748-1.297 1.51-1.297 0.002 0 0.005 0 0.007 0h9.058l-12.092 10.52zM2.374 27.735l14.62-12.697h1.759l-7.618 13.103h-7.695c-0.402-0.005-0.768-0.159-1.046-0.408l0.001 0.001zM16.401 25.042c0.856 0 1.55 0.694 1.55 1.55s-0.694 1.55-1.55 1.55v0h-3.1l1.803-3.1z"></path>
</svg>
