<svg xmlns="http://www.w3.org/2000/svg" viewBox="0 0 17.6 17.6"><defs><style>.cls-1{fill:#626363;}</style></defs><g id="Layer_2" data-name="Layer 2"><g id="Layer_1-2" data-name="Layer 1"><path class="cls-1" d="M16.19,11.55a9.78,9.78,0,0,1-3.14-.5,1.38,1.38,0,0,0-1.39.3l-2,1.49A10.93,10.93,0,0,1,4.76,7.93L6.21,6a1.42,1.42,0,0,0,.35-1.44,10.13,10.13,0,0,1-.5-3.15A1.41,1.41,0,0,0,4.65,0H1.41A1.41,1.41,0,0,0,0,1.41,16.2,16.2,0,0,0,16.19,17.6a1.41,1.41,0,0,0,1.41-1.41V13A1.42,1.42,0,0,0,16.19,11.55Zm.44,4.64a.44.44,0,0,1-.44.44A15.23,15.23,0,0,1,1,1.41.43.43,0,0,1,1.41,1H4.65a.43.43,0,0,1,.43.43,11.07,11.07,0,0,0,.55,3.45.48.48,0,0,1-.16.5L3.79,7.58a.49.49,0,0,0,0,.52A12.18,12.18,0,0,0,9.5,13.86a.51.51,0,0,0,.52,0l2.28-1.72a.43.43,0,0,1,.44-.11,10.88,10.88,0,0,0,3.45.55.44.44,0,0,1,.44.44Z"/></g></g></svg>