<!-- Generated by IcoMoon.io -->
<svg version="1.1" xmlns="http://www.w3.org/2000/svg" width="27" height="32" viewBox="0 0 27 32">
<title>progress</title>
<path fill="#808080" opacity="0.6" d="M23.33 32h-19.993c-1.84-0.008-3.329-1.497-3.337-3.336v-25.327c0.008-1.84 1.497-3.329 3.336-3.337h19.994c1.84 0.008 3.329 1.497 3.337 3.336v25.327c-0.008 1.84-1.497 3.329-3.336 3.337h-0.001zM3.337 1.34c-0.004-0-0.009-0-0.013-0-1.095 0-1.983 0.888-1.983 1.983 0 0.005 0 0.009 0 0.014v-0.001 25.327c-0 0.004-0 0.009-0 0.013 0 1.103 0.894 1.997 1.997 1.997 0 0 0 0 0 0h19.993c1.11 0 2.010-0.9 2.010-2.010v0-25.327c0 0 0-0 0-0 0-1.103-0.894-1.997-1.997-1.997-0.005 0-0.009 0-0.014 0h0.001z"></path>
<path fill="#808080" opacity="0.6" d="M22.003 16h-2.68c-0.37 0-0.67-0.3-0.67-0.67s0.3-0.67 0.67-0.67v0h2.68c0.37 0 0.67 0.3 0.67 0.67s-0.3 0.67-0.67 0.67v0z"></path>
<path fill="#808080" opacity="0.6" d="M22.003 12.060h-2.68c-0.37 0-0.67-0.3-0.67-0.67v0c0-0.37 0.3-0.67 0.67-0.67v0h2.68c0.37 0 0.67 0.3 0.67 0.67v0c-0.007 0.367-0.303 0.663-0.669 0.67h-0.001z"></path>
<path fill="#808080" opacity="0.6" d="M22.003 20.007h-2.68c-0.37 0-0.67-0.3-0.67-0.67v0c0-0.37 0.3-0.67 0.67-0.67v0h2.68c0.37 0 0.67 0.3 0.67 0.67v0c-0.007 0.367-0.303 0.663-0.669 0.67h-0.001z"></path>
<path fill="#808080" opacity="0.6" d="M22.003 24h-2.68c-0.37 0-0.67-0.3-0.67-0.67s0.3-0.67 0.67-0.67v0h2.68c0.37 0 0.67 0.3 0.67 0.67s-0.3 0.67-0.67 0.67v0z"></path>
<path fill="#808080" opacity="0.6" d="M22.003 28.007h-17.34c-0.358-0.015-0.643-0.309-0.643-0.669 0-0 0-0 0-0.001v0c-0-0.004-0-0.009-0-0.013 0-0.363 0.294-0.657 0.657-0.657 0 0 0 0 0 0h17.327c0.37 0 0.67 0.3 0.67 0.67v0c-0.007 0.367-0.303 0.663-0.669 0.67h-0.001z"></path>
<path fill="#808080" opacity="0.6" d="M10.72 24c-3.7 0-6.7-3-6.7-6.7s3-6.7 6.7-6.7c3.7 0 6.7 3 6.7 6.7v0c0 3.7-3 6.7-6.7 6.7v0zM10.72 12.060c-2.96 0-5.36 2.4-5.36 5.36s2.4 5.36 5.36 5.36c2.96 0 5.36-2.4 5.36-5.36v0c0-2.96-2.4-5.36-5.36-5.36v0z"></path>
<path fill="#808080" opacity="0.6" d="M6.419 22.245c-0.366-0.005-0.661-0.303-0.661-0.67 0-0.183 0.073-0.348 0.192-0.469l4.020-4.020v-5.749c0.026-0.349 0.315-0.621 0.668-0.621 0.029 0 0.057 0.002 0.085 0.005l-0.003-0c0.37 0 0.67 0.3 0.67 0.67v0 6.003c-0.001 0.184-0.078 0.35-0.201 0.469l-0 0-4.288 4.181c-0.123 0.124-0.294 0.201-0.482 0.201h-0z"></path>
</svg>
