<svg xmlns="http://www.w3.org/2000/svg" viewBox="0 0 19.43 19.43"><defs><style>.cls-1{fill:#626363;}</style></defs><g id="Layer_2" data-name="Layer 2"><g id="Layer_1-2" data-name="Layer 1"><path class="cls-1" d="M9.71,0a9.72,9.72,0,1,0,9.72,9.71A9.73,9.73,0,0,0,9.71,0Zm0,18.21a8.5,8.5,0,1,1,8.5-8.5A8.51,8.51,0,0,1,9.71,18.21Z"/><path class="cls-1" d="M12.75,7.28h-.67a3,3,0,0,0-.56-1.21h1.23a.61.61,0,1,0,0-1.21H6.68a.61.61,0,1,0,0,1.21H9.11a1.83,1.83,0,0,1,1.71,1.21H6.68a.61.61,0,0,0-.61.61.61.61,0,0,0,.61.61h4.14A1.83,1.83,0,0,1,9.11,9.71H6.68a.63.63,0,0,0-.56.38.62.62,0,0,0,.13.66L11.1,15.6a.61.61,0,0,0,.43.18.63.63,0,0,0,.43-.17.6.6,0,0,0,0-.86L8.14,10.93h1a3,3,0,0,0,3-2.43h.67a.61.61,0,0,0,.61-.61A.62.62,0,0,0,12.75,7.28Z"/></g></g></svg>