<!-- Generated by IcoMoon.io -->
<svg version="1.1" xmlns="http://www.w3.org/2000/svg" width="32" height="32" viewBox="0 0 32 32">
<title>search</title>
<path fill="#808080" d="M14.184 0c-7.834 0-14.184 6.351-14.184 14.184s6.351 14.184 14.184 14.184c7.834 0 14.184-6.351 14.184-14.184v0c0-7.834-6.351-14.184-14.184-14.184v0zM14.184 25.532c-0.042 0.001-0.091 0.001-0.141 0.001-6.345 0-11.489-5.144-11.489-11.489s5.144-11.489 11.489-11.489c6.345 0 11.489 5.144 11.489 11.489 0 0.050-0 0.099-0.001 0.148l0-0.008c-0.079 6.235-5.112 11.269-11.34 11.347l-0.008 0z"></path>
<path fill="#808080" d="M31.631 29.787l-7.461-7.461c-0.232-0.214-0.543-0.345-0.884-0.345-0.721 0-1.305 0.584-1.305 1.305 0 0.342 0.131 0.653 0.346 0.885l-0.001-0.001 7.461 7.461c0.23 0.228 0.548 0.369 0.898 0.369 0.004 0 0.007 0 0.011-0h-0.001c0.72-0.001 1.304-0.585 1.304-1.305 0-0.353-0.14-0.673-0.368-0.908l0 0z"></path>
</svg>
