<!-- Generated by IcoMoon.io -->
<svg version="1.1" xmlns="http://www.w3.org/2000/svg" width="32" height="32" viewBox="0 0 32 32">
<title>settings</title>
<path fill="#808080" d="M17.086 32h-2.099c-1.621-0.014-2.929-1.331-2.929-2.953 0-0 0-0 0-0v0-0.683c-0.784-0.244-1.455-0.526-2.092-0.862l0.067 0.032-0.464 0.488c-0.534 0.534-1.272 0.864-2.087 0.864s-1.553-0.33-2.087-0.864l-1.416-1.416c-0.54-0.532-0.874-1.27-0.874-2.087s0.334-1.555 0.873-2.087l0.489-0.489c-0.296-0.554-0.585-1.215-0.823-1.9l-0.031-0.102h-0.659c-0 0-0.001 0-0.002 0-1.597 0-2.898-1.267-2.952-2.851l-0-0.005v-2.099c0.014-1.621 1.331-2.929 2.953-2.929 0 0 0 0 0 0h0.659c0.27-0.797 0.559-1.466 0.893-2.108l-0.039 0.082-0.488-0.464c-0.54-0.532-0.874-1.27-0.874-2.087s0.334-1.555 0.873-2.087l1.416-1.416c0.532-0.54 1.27-0.874 2.087-0.874s1.555 0.334 2.087 0.873l0 0 0.464 0.488c0.572-0.312 1.242-0.602 1.94-0.83l0.086-0.024v-0.659c0-0 0-0 0-0 0-1.623 1.308-2.94 2.928-2.953h2.1c1.621 0.014 2.929 1.331 2.929 2.953 0 0 0 0 0 0v0 0.659c0.757 0.256 1.402 0.545 2.014 0.886l-0.061-0.031 0.488-0.488c0.532-0.54 1.27-0.874 2.087-0.874s1.555 0.334 2.087 0.873l1.416 1.416c0.534 0.534 0.864 1.272 0.864 2.087s-0.33 1.553-0.864 2.087l0-0-0.488 0.464c0.304 0.571 0.586 1.242 0.806 1.94l0.024 0.086h0.683c0 0 0 0 0 0 1.623 0 2.94 1.308 2.953 2.928v2.1c-0.014 1.621-1.331 2.929-2.953 2.929-0 0-0 0-0 0h-0.683c-0.244 0.774-0.525 1.437-0.861 2.066l0.031-0.064 0.488 0.488c0.534 0.534 0.864 1.272 0.864 2.087s-0.33 1.553-0.864 2.087l-1.416 1.416c-0.534 0.534-1.272 0.864-2.087 0.864s-1.553-0.33-2.087-0.864l-0.488-0.488c-0.565 0.305-1.227 0.586-1.917 0.807l-0.085 0.023v0.683c-0.040 1.574-1.306 2.84-2.877 2.88l-0.004 0zM10.349 25.556c0.828 0.546 1.785 0.988 2.808 1.276l0.072 0.017c0.397 0.111 0.684 0.469 0.684 0.895 0 0.003 0 0.006-0 0.009v-0 1.391c0 0.593 0.481 1.074 1.074 1.074h2.099c0.583-0.014 1.050-0.489 1.050-1.074 0-0 0-0 0-0v0-1.391c0-0.002-0-0.004-0-0.006 0-0.412 0.262-0.763 0.628-0.895l0.007-0.002c1.092-0.279 2.051-0.689 2.927-1.223l-0.047 0.026c0.133-0.075 0.293-0.12 0.462-0.12 0.257 0 0.489 0.102 0.661 0.267l-0-0 0.976 1.001c0.197 0.187 0.463 0.302 0.757 0.302s0.56-0.115 0.757-0.303l-0 0 1.44-1.44c0.187-0.197 0.302-0.463 0.302-0.757s-0.115-0.56-0.303-0.757l0 0-1.001-0.976c-0.165-0.171-0.266-0.404-0.266-0.66 0-0.17 0.044-0.329 0.122-0.467l-0.002 0.005c0.55-0.856 0.993-1.847 1.277-2.904l0.017-0.074c0.11-0.405 0.471-0.7 0.902-0.708h1.392c0.519-0.047 0.93-0.457 0.976-0.972l0-0.004v-2.099c0-0.593-0.481-1.074-1.074-1.074v0h-1.391c-0.389-0.039-0.704-0.313-0.804-0.677l-0.002-0.007c-0.273-1.092-0.684-2.051-1.221-2.925l0.025 0.044c-0.075-0.133-0.12-0.293-0.12-0.462 0-0.257 0.102-0.489 0.267-0.661l1-1c0.187-0.197 0.302-0.463 0.302-0.757s-0.115-0.56-0.303-0.757l0 0-1.44-1.416c-0.194-0.193-0.461-0.312-0.757-0.312s-0.563 0.119-0.757 0.312l-0.976 0.976c-0.161 0.176-0.392 0.286-0.648 0.286-0.176 0-0.34-0.052-0.478-0.141l0.003 0.002c-0.829-0.488-1.788-0.889-2.801-1.154l-0.079-0.018c-0.408-0.12-0.703-0.489-0.708-0.927v-1.368c0-0.007 0-0.016 0-0.025 0-0.58-0.47-1.050-1.050-1.050-0.009 0-0.017 0-0.026 0l0.001-0h-2.099c-0.593 0-1.074 0.481-1.074 1.074v0 1.367c0 0.004 0 0.009 0 0.014 0 0.43-0.285 0.794-0.677 0.912l-0.007 0.002c-1.092 0.277-2.051 0.678-2.931 1.2l0.051-0.028c-0.134 0.087-0.298 0.139-0.475 0.139-0.256 0-0.487-0.11-0.648-0.285l-0.001-0.001-1.001-0.976c-0.194-0.193-0.461-0.312-0.757-0.312s-0.563 0.119-0.757 0.312l-1.416 1.416c-0.193 0.194-0.312 0.461-0.312 0.757s0.119 0.563 0.312 0.757l-0-0 0.976 1.001c0.176 0.161 0.286 0.392 0.286 0.648 0 0.176-0.052 0.34-0.141 0.478l0.002-0.003c-0.493 0.829-0.895 1.788-1.155 2.804l-0.017 0.076c-0.12 0.398-0.483 0.684-0.913 0.684-0.005 0-0.010-0-0.015-0h-1.366c-0.593 0-1.074 0.481-1.074 1.074v2.099c0 0 0 0 0 0 0 0.58 0.47 1.050 1.050 1.050 0.009 0 0.017-0 0.026-0l-0.001 0h1.367c0.439 0.005 0.808 0.299 0.926 0.701l0.002 0.007c0.282 1.093 0.684 2.051 1.201 2.934l-0.029-0.054c0.087 0.134 0.139 0.298 0.139 0.474 0 0.256-0.11 0.487-0.285 0.648l-0.001 0.001-0.976 0.976c-0.193 0.194-0.312 0.461-0.312 0.757s0.119 0.563 0.312 0.757l-0-0 1.416 1.44c0.197 0.187 0.463 0.302 0.757 0.302s0.56-0.115 0.757-0.303l-0 0 1.001-1.001c0.171-0.165 0.404-0.266 0.66-0.266 0.17 0 0.329 0.044 0.467 0.122l-0.005-0.002z"></path>
<path fill="#808080" d="M15.988 22.969c-3.855 0-6.981-3.125-6.981-6.981s3.125-6.981 6.981-6.981c3.855 0 6.981 3.125 6.981 6.981v0c0 3.855-3.125 6.981-6.981 6.981v0zM15.988 10.911c-2.817 0-5.101 2.284-5.101 5.101s2.284 5.101 5.101 5.101c2.817 0 5.101-2.284 5.101-5.101 0-0.009-0-0.017-0-0.026v0.001c0 0 0-0 0-0 0-2.804-2.273-5.077-5.077-5.077-0.009 0-0.017 0-0.026 0h0.001z"></path>
</svg>
