<?xml version="1.0" encoding="utf-8"?>
<!-- Generator: Adobe Illustrator 25.1.0, SVG Export Plug-In . SVG Version: 6.00 Build 0)  -->
<svg version="1.1" id="Layer_1" xmlns="http://www.w3.org/2000/svg" xmlns:xlink="http://www.w3.org/1999/xlink" x="0px" y="0px"
	 viewBox="0 0 18.2 16.2" style="enable-background:new 0 0 18.2 16.2;" xml:space="preserve">
<style type="text/css">
	.st0{clip-path:url(#SVGID_2_);fill:#4D95D0;}
	.st1{clip-path:url(#SVGID_2_);fill:#4D96D1;}
	.st2{clip-path:url(#SVGID_2_);fill:#4C97D2;}
	.st3{clip-path:url(#SVGID_2_);fill:#4D99D3;}
	.st4{clip-path:url(#SVGID_2_);fill:#4C9AD4;}
	.st5{clip-path:url(#SVGID_2_);fill:#4C9CD5;}
	.st6{clip-path:url(#SVGID_2_);fill:#4B9DD6;}
	.st7{clip-path:url(#SVGID_2_);fill:#4C9ED7;}
	.st8{clip-path:url(#SVGID_2_);fill:#4B9FD8;}
	.st9{clip-path:url(#SVGID_2_);fill:#4BA1D9;}
	.st10{clip-path:url(#SVGID_2_);fill:#4AA2DA;}
	.st11{clip-path:url(#SVGID_2_);fill:#4BA3DA;}
	.st12{clip-path:url(#SVGID_2_);fill:#48A4DB;}
	.st13{clip-path:url(#SVGID_2_);fill:#49A5DC;}
	.st14{clip-path:url(#SVGID_2_);fill:#48A6DD;}
	.st15{clip-path:url(#SVGID_2_);fill:#49A8DE;}
	.st16{clip-path:url(#SVGID_2_);fill:#47A9DF;}
	.st17{clip-path:url(#SVGID_2_);fill:#46AAE0;}
	.st18{clip-path:url(#SVGID_2_);fill:#45ABE0;}
	.st19{clip-path:url(#SVGID_2_);fill:#46ACE1;}
	.st20{clip-path:url(#SVGID_2_);fill:#45AFE3;}
	.st21{clip-path:url(#SVGID_2_);fill:#45B0E4;}
	.st22{clip-path:url(#SVGID_2_);fill:#46B2E5;}
	.st23{clip-path:url(#SVGID_2_);fill:#45B3E6;}
	.st24{clip-path:url(#SVGID_2_);fill:#44B4E7;}
	.st25{clip-path:url(#SVGID_2_);fill:#43B5E7;}
	.st26{clip-path:url(#SVGID_2_);fill:#42B6E8;}
	.st27{clip-path:url(#SVGID_2_);fill:#43B7E9;}
	.st28{clip-path:url(#SVGID_2_);fill:#41B9EA;}
	.st29{clip-path:url(#SVGID_2_);fill:#40B9EB;}
	.st30{clip-path:url(#SVGID_2_);fill:#3FBAEC;}
	.st31{clip-path:url(#SVGID_2_);fill:#3EBBED;}
	.st32{clip-path:url(#SVGID_2_);fill:#3CBDED;}
	.st33{clip-path:url(#SVGID_2_);fill:#3BBEEE;}
	.st34{clip-path:url(#SVGID_2_);fill:#39BFEF;}
	.st35{clip-path:url(#SVGID_2_);fill:#38C0F0;}
	.st36{clip-path:url(#SVGID_2_);fill:#36C1F1;}
	.st37{clip-path:url(#SVGID_2_);fill:#35C2F2;}
	.st38{clip-path:url(#SVGID_2_);fill:#30C5F4;}
	.st39{clip-path:url(#SVGID_2_);fill:#32C5F4;}
	.st40{clip-path:url(#SVGID_2_);fill:#36C6F3;}
	.st41{clip-path:url(#SVGID_2_);fill:#3AC6F2;}
	.st42{clip-path:url(#SVGID_2_);fill:#3BC6EF;}
	.st43{clip-path:url(#SVGID_2_);fill:#3EC6F0;}
	.st44{fill:url(#SVGID_3_);}
	.st45{clip-path:url(#SVGID_5_);fill:#4D95D0;}
	.st46{clip-path:url(#SVGID_5_);fill:#4D96D1;}
	.st47{clip-path:url(#SVGID_5_);fill:#4C97D2;}
	.st48{clip-path:url(#SVGID_5_);fill:#4D99D3;}
	.st49{clip-path:url(#SVGID_5_);fill:#4C9AD4;}
	.st50{clip-path:url(#SVGID_5_);fill:#4C9CD5;}
	.st51{clip-path:url(#SVGID_5_);fill:#4B9DD6;}
	.st52{clip-path:url(#SVGID_5_);fill:#4C9ED7;}
	.st53{clip-path:url(#SVGID_5_);fill:#4B9FD8;}
	.st54{clip-path:url(#SVGID_5_);fill:#4BA1D9;}
	.st55{clip-path:url(#SVGID_5_);fill:#4AA2DA;}
	.st56{clip-path:url(#SVGID_5_);fill:#4BA3DA;}
	.st57{clip-path:url(#SVGID_5_);fill:#48A4DB;}
	.st58{clip-path:url(#SVGID_5_);fill:#49A5DC;}
	.st59{clip-path:url(#SVGID_5_);fill:#48A6DD;}
	.st60{clip-path:url(#SVGID_5_);fill:#49A8DE;}
	.st61{clip-path:url(#SVGID_5_);fill:#47A9DF;}
	.st62{clip-path:url(#SVGID_5_);fill:#46AAE0;}
	.st63{clip-path:url(#SVGID_5_);fill:#45ABE0;}
	.st64{clip-path:url(#SVGID_5_);fill:#46ACE1;}
	.st65{clip-path:url(#SVGID_5_);fill:#45AFE3;}
	.st66{clip-path:url(#SVGID_5_);fill:#45B0E4;}
	.st67{clip-path:url(#SVGID_5_);fill:#46B2E5;}
	.st68{clip-path:url(#SVGID_5_);fill:#45B3E6;}
	.st69{clip-path:url(#SVGID_5_);fill:#44B4E7;}
	.st70{clip-path:url(#SVGID_5_);fill:#43B5E7;}
	.st71{clip-path:url(#SVGID_5_);fill:#42B6E8;}
	.st72{clip-path:url(#SVGID_5_);fill:#43B7E9;}
	.st73{clip-path:url(#SVGID_5_);fill:#41B9EA;}
	.st74{clip-path:url(#SVGID_5_);fill:#40B9EB;}
	.st75{clip-path:url(#SVGID_5_);fill:#3FBAEC;}
	.st76{clip-path:url(#SVGID_5_);fill:#3EBBED;}
	.st77{clip-path:url(#SVGID_5_);fill:#3CBDED;}
	.st78{clip-path:url(#SVGID_5_);fill:#3BBEEE;}
	.st79{clip-path:url(#SVGID_5_);fill:#39BFEF;}
	.st80{clip-path:url(#SVGID_5_);fill:#38C0F0;}
	.st81{clip-path:url(#SVGID_5_);fill:#36C1F1;}
	.st82{clip-path:url(#SVGID_5_);fill:#35C2F2;}
	.st83{clip-path:url(#SVGID_5_);fill:#30C5F4;}
	.st84{clip-path:url(#SVGID_5_);fill:#32C5F4;}
	.st85{clip-path:url(#SVGID_5_);fill:#36C6F3;}
	.st86{clip-path:url(#SVGID_5_);fill:#3AC6F2;}
	.st87{clip-path:url(#SVGID_5_);fill:#3BC6EF;}
	.st88{clip-path:url(#SVGID_5_);fill:#3EC6F0;}
	.st89{fill:url(#SVGID_6_);}
	.st90{clip-path:url(#SVGID_8_);fill:#4D95D0;}
	.st91{clip-path:url(#SVGID_8_);fill:#4D96D1;}
	.st92{clip-path:url(#SVGID_8_);fill:#4D97D2;}
	.st93{clip-path:url(#SVGID_8_);fill:#4D98D2;}
	.st94{clip-path:url(#SVGID_8_);fill:#4D98D3;}
	.st95{clip-path:url(#SVGID_8_);fill:#4D99D3;}
	.st96{clip-path:url(#SVGID_8_);fill:#4C9AD4;}
	.st97{clip-path:url(#SVGID_8_);fill:#4C9BD5;}
	.st98{clip-path:url(#SVGID_8_);fill:#4C9CD5;}
	.st99{clip-path:url(#SVGID_8_);fill:#4C9CD6;}
	.st100{clip-path:url(#SVGID_8_);fill:#4C9DD6;}
	.st101{clip-path:url(#SVGID_8_);fill:#4C9ED7;}
	.st102{clip-path:url(#SVGID_8_);fill:#4B9FD7;}
	.st103{clip-path:url(#SVGID_8_);fill:#4B9FD8;}
	.st104{clip-path:url(#SVGID_8_);fill:#4BA0D8;}
	.st105{clip-path:url(#SVGID_8_);fill:#4BA1D9;}
	.st106{clip-path:url(#SVGID_8_);fill:#4AA1D9;}
	.st107{clip-path:url(#SVGID_8_);fill:#4AA2DA;}
	.st108{clip-path:url(#SVGID_8_);fill:#4AA3DA;}
	.st109{clip-path:url(#SVGID_8_);fill:#49A3DB;}
	.st110{clip-path:url(#SVGID_8_);fill:#49A4DB;}
	.st111{clip-path:url(#SVGID_8_);fill:#49A5DC;}
	.st112{clip-path:url(#SVGID_8_);fill:#48A6DD;}
	.st113{clip-path:url(#SVGID_8_);fill:#48A7DE;}
	.st114{clip-path:url(#SVGID_8_);fill:#48A8DE;}
	.st115{clip-path:url(#SVGID_8_);fill:#47A8DE;}
	.st116{clip-path:url(#SVGID_8_);fill:#47A9DF;}
	.st117{clip-path:url(#SVGID_8_);fill:#46AAE0;}
	.st118{clip-path:url(#SVGID_8_);fill:#46ABE0;}
	.st119{clip-path:url(#SVGID_8_);fill:#46ABE1;}
	.st120{clip-path:url(#SVGID_8_);fill:#46ACE1;}
	.st121{clip-path:url(#SVGID_8_);fill:#45ACE1;}
	.st122{clip-path:url(#SVGID_8_);fill:#45ADE2;}
	.st123{clip-path:url(#SVGID_8_);fill:#45AEE2;}
	.st124{clip-path:url(#SVGID_8_);fill:#44AEE3;}
	.st125{clip-path:url(#SVGID_8_);fill:#44AFE3;}
	.st126{clip-path:url(#SVGID_8_);fill:#44AFE4;}
	.st127{clip-path:url(#SVGID_8_);fill:#43B0E4;}
	.st128{clip-path:url(#SVGID_8_);fill:#43B1E5;}
	.st129{clip-path:url(#SVGID_8_);fill:#42B2E5;}
	.st130{clip-path:url(#SVGID_8_);fill:#42B2E6;}
	.st131{clip-path:url(#SVGID_8_);fill:#42B3E6;}
	.st132{clip-path:url(#SVGID_8_);fill:#41B3E7;}
	.st133{clip-path:url(#SVGID_8_);fill:#41B4E7;}
	.st134{clip-path:url(#SVGID_8_);fill:#41B5E8;}
	.st135{clip-path:url(#SVGID_8_);fill:#40B6E9;}
	.st136{clip-path:url(#SVGID_8_);fill:#40B7E9;}
	.st137{clip-path:url(#SVGID_8_);fill:#3FB8EA;}
	.st138{clip-path:url(#SVGID_8_);fill:#3FB9EB;}
	.st139{clip-path:url(#SVGID_8_);fill:#3EBAEB;}
	.st140{clip-path:url(#SVGID_8_);fill:#3EBAEC;}
	.st141{clip-path:url(#SVGID_8_);fill:#3EBBEC;}
	.st142{clip-path:url(#SVGID_8_);fill:#3DBBED;}
	.st143{clip-path:url(#SVGID_8_);fill:#3DBCED;}
	.st144{clip-path:url(#SVGID_8_);fill:#3CBDED;}
	.st145{clip-path:url(#SVGID_8_);fill:#3DBDED;}
	.st146{clip-path:url(#SVGID_8_);fill:#3DBEED;}
	.st147{clip-path:url(#SVGID_8_);fill:#3EBFED;}
	.st148{clip-path:url(#SVGID_8_);fill:#3EC0EE;}
	.st149{clip-path:url(#SVGID_8_);fill:#3EC1EE;}
	.st150{clip-path:url(#SVGID_8_);fill:#3EC2EE;}
	.st151{clip-path:url(#SVGID_8_);fill:#3FC3EE;}
	.st152{clip-path:url(#SVGID_8_);fill:#3EC4EF;}
	.st153{clip-path:url(#SVGID_8_);fill:#3EC5EF;}
	.st154{clip-path:url(#SVGID_8_);fill:#3EC6F0;}
	.st155{fill:url(#SVGID_9_);}
	.st156{fill:url(#SVGID_10_);}
	.st157{clip-path:url(#SVGID_12_);fill:#4D95D0;}
	.st158{clip-path:url(#SVGID_12_);fill:#4D96D1;}
	.st159{clip-path:url(#SVGID_12_);fill:#4C97D2;}
	.st160{clip-path:url(#SVGID_12_);fill:#4D99D3;}
	.st161{clip-path:url(#SVGID_12_);fill:#4C9AD4;}
	.st162{clip-path:url(#SVGID_12_);fill:#4C9CD5;}
	.st163{clip-path:url(#SVGID_12_);fill:#4B9DD6;}
	.st164{clip-path:url(#SVGID_12_);fill:#4C9ED7;}
	.st165{clip-path:url(#SVGID_12_);fill:#4B9FD8;}
	.st166{clip-path:url(#SVGID_12_);fill:#4BA1D9;}
	.st167{clip-path:url(#SVGID_12_);fill:#4AA2DA;}
	.st168{clip-path:url(#SVGID_12_);fill:#4BA3DA;}
	.st169{clip-path:url(#SVGID_12_);fill:#48A4DB;}
	.st170{clip-path:url(#SVGID_12_);fill:#49A5DC;}
	.st171{clip-path:url(#SVGID_12_);fill:#48A6DD;}
	.st172{clip-path:url(#SVGID_12_);fill:#49A8DE;}
	.st173{clip-path:url(#SVGID_12_);fill:#47A9DF;}
	.st174{clip-path:url(#SVGID_12_);fill:#46AAE0;}
	.st175{clip-path:url(#SVGID_12_);fill:#45ABE0;}
	.st176{clip-path:url(#SVGID_12_);fill:#46ACE1;}
	.st177{clip-path:url(#SVGID_12_);fill:#45AFE3;}
	.st178{clip-path:url(#SVGID_12_);fill:#45B0E4;}
	.st179{clip-path:url(#SVGID_12_);fill:#46B2E5;}
	.st180{clip-path:url(#SVGID_12_);fill:#45B3E6;}
	.st181{clip-path:url(#SVGID_12_);fill:#44B4E7;}
	.st182{clip-path:url(#SVGID_12_);fill:#43B5E7;}
	.st183{clip-path:url(#SVGID_12_);fill:#42B6E8;}
	.st184{clip-path:url(#SVGID_12_);fill:#43B7E9;}
	.st185{clip-path:url(#SVGID_12_);fill:#41B9EA;}
	.st186{clip-path:url(#SVGID_12_);fill:#40B9EB;}
	.st187{clip-path:url(#SVGID_12_);fill:#3FBAEC;}
	.st188{clip-path:url(#SVGID_12_);fill:#3EBBED;}
	.st189{clip-path:url(#SVGID_12_);fill:#3CBDED;}
	.st190{clip-path:url(#SVGID_12_);fill:#3BBEEE;}
	.st191{clip-path:url(#SVGID_12_);fill:#39BFEF;}
	.st192{clip-path:url(#SVGID_12_);fill:#38C0F0;}
	.st193{clip-path:url(#SVGID_12_);fill:#36C1F1;}
	.st194{clip-path:url(#SVGID_12_);fill:#35C2F2;}
	.st195{clip-path:url(#SVGID_12_);fill:#30C5F4;}
	.st196{clip-path:url(#SVGID_12_);fill:#32C5F4;}
	.st197{clip-path:url(#SVGID_12_);fill:#36C6F3;}
	.st198{clip-path:url(#SVGID_12_);fill:#3AC6F2;}
	.st199{clip-path:url(#SVGID_12_);fill:#3BC6EF;}
	.st200{clip-path:url(#SVGID_12_);fill:#3EC6F0;}
	.st201{fill:url(#SVGID_13_);}
	.st202{clip-path:url(#SVGID_15_);fill:#4D95D0;}
	.st203{clip-path:url(#SVGID_15_);fill:#4D96D1;}
	.st204{clip-path:url(#SVGID_15_);fill:#4C97D2;}
	.st205{clip-path:url(#SVGID_15_);fill:#4D99D3;}
	.st206{clip-path:url(#SVGID_15_);fill:#4C9AD4;}
	.st207{clip-path:url(#SVGID_15_);fill:#4C9CD5;}
	.st208{clip-path:url(#SVGID_15_);fill:#4B9DD6;}
	.st209{clip-path:url(#SVGID_15_);fill:#4C9ED7;}
	.st210{clip-path:url(#SVGID_15_);fill:#4B9FD8;}
	.st211{clip-path:url(#SVGID_15_);fill:#4BA1D9;}
	.st212{clip-path:url(#SVGID_15_);fill:#4AA2DA;}
	.st213{clip-path:url(#SVGID_15_);fill:#4BA3DA;}
	.st214{clip-path:url(#SVGID_15_);fill:#48A4DB;}
	.st215{clip-path:url(#SVGID_15_);fill:#49A5DC;}
	.st216{clip-path:url(#SVGID_15_);fill:#48A6DD;}
	.st217{clip-path:url(#SVGID_15_);fill:#49A8DE;}
	.st218{clip-path:url(#SVGID_15_);fill:#47A9DF;}
	.st219{clip-path:url(#SVGID_15_);fill:#46AAE0;}
	.st220{clip-path:url(#SVGID_15_);fill:#45ABE0;}
	.st221{clip-path:url(#SVGID_15_);fill:#46ACE1;}
	.st222{clip-path:url(#SVGID_15_);fill:#45AFE3;}
	.st223{clip-path:url(#SVGID_15_);fill:#45B0E4;}
	.st224{clip-path:url(#SVGID_15_);fill:#46B2E5;}
	.st225{clip-path:url(#SVGID_15_);fill:#45B3E6;}
	.st226{clip-path:url(#SVGID_15_);fill:#44B4E7;}
	.st227{clip-path:url(#SVGID_15_);fill:#43B5E7;}
	.st228{clip-path:url(#SVGID_15_);fill:#42B6E8;}
	.st229{clip-path:url(#SVGID_15_);fill:#43B7E9;}
	.st230{clip-path:url(#SVGID_15_);fill:#41B9EA;}
	.st231{clip-path:url(#SVGID_15_);fill:#40B9EB;}
	.st232{clip-path:url(#SVGID_15_);fill:#3FBAEC;}
	.st233{clip-path:url(#SVGID_15_);fill:#3EBBED;}
	.st234{clip-path:url(#SVGID_15_);fill:#3CBDED;}
	.st235{clip-path:url(#SVGID_15_);fill:#3BBEEE;}
	.st236{clip-path:url(#SVGID_15_);fill:#39BFEF;}
	.st237{clip-path:url(#SVGID_15_);fill:#38C0F0;}
	.st238{clip-path:url(#SVGID_15_);fill:#36C1F1;}
	.st239{clip-path:url(#SVGID_15_);fill:#35C2F2;}
	.st240{clip-path:url(#SVGID_15_);fill:#30C5F4;}
	.st241{clip-path:url(#SVGID_15_);fill:#32C5F4;}
	.st242{clip-path:url(#SVGID_15_);fill:#36C6F3;}
	.st243{clip-path:url(#SVGID_15_);fill:#3AC6F2;}
	.st244{clip-path:url(#SVGID_15_);fill:#3BC6EF;}
	.st245{clip-path:url(#SVGID_15_);fill:#3EC6F0;}
	.st246{fill:url(#SVGID_16_);}
</style>
<g>
	<g>
		<defs>
			<circle id="SVGID_1_" cx="6.4" cy="5.9" r="1.1"/>
		</defs>
		<clipPath id="SVGID_2_">
			<use xlink:href="#SVGID_1_"  style="overflow:visible;"/>
		</clipPath>
		<path class="st0" d="M5.3,4.8V7V4.8z"/>
		<rect x="5.3" y="4.8" class="st0" width="0.1" height="2.2"/>
		<rect x="5.4" y="4.8" class="st0" width="0.1" height="2.2"/>
		<rect x="5.5" y="4.8" class="st1" width="0.1" height="2.2"/>
		<rect x="5.5" y="4.8" class="st2" width="0.1" height="2.2"/>
		<rect x="5.6" y="4.8" class="st3" width="0.1" height="2.2"/>
		<rect x="5.7" y="4.8" class="st4" width="0.1" height="2.2"/>
		<rect x="5.7" y="4.8" class="st5" width="0.1" height="2.2"/>
		<rect x="5.8" y="4.8" class="st6" width="0.1" height="2.2"/>
		<rect x="5.9" y="4.8" class="st7" width="0.1" height="2.2"/>
		<rect x="5.9" y="4.8" class="st7" width="0" height="2.2"/>
		<rect x="6" y="4.8" class="st8" width="0" height="2.2"/>
		<rect x="6" y="4.8" class="st9" width="0" height="2.2"/>
		<rect x="6.1" y="4.8" class="st10" width="0" height="2.2"/>
		<rect x="6.1" y="4.8" class="st11" width="0" height="2.2"/>
		<rect x="6.2" y="4.8" class="st12" width="0" height="2.2"/>
		<rect x="6.2" y="4.8" class="st13" width="0" height="2.2"/>
		<rect x="6.2" y="4.8" class="st14" width="0" height="2.2"/>
		<rect x="6.3" y="4.8" class="st15" width="0" height="2.2"/>
		<rect x="6.3" y="4.8" class="st16" width="0" height="2.2"/>
		<rect x="6.4" y="4.8" class="st17" width="0" height="2.2"/>
		<rect x="6.4" y="4.8" class="st18" width="0" height="2.2"/>
		<rect x="6.4" y="4.8" class="st19" width="0" height="2.2"/>
		<rect x="6.5" y="4.8" class="st20" width="0" height="2.2"/>
		<rect x="6.5" y="4.8" class="st21" width="0" height="2.2"/>
		<rect x="6.6" y="4.8" class="st22" width="0" height="2.2"/>
		<rect x="6.6" y="4.8" class="st23" width="0" height="2.2"/>
		<rect x="6.7" y="4.8" class="st24" width="0" height="2.2"/>
		<rect x="6.7" y="4.8" class="st25" width="0" height="2.2"/>
		<rect x="6.7" y="4.8" class="st26" width="0" height="2.2"/>
		<rect x="6.8" y="4.8" class="st27" width="0" height="2.2"/>
		<rect x="6.8" y="4.8" class="st28" width="0" height="2.2"/>
		<rect x="6.9" y="4.8" class="st29" width="0" height="2.2"/>
		<rect x="6.9" y="4.8" class="st30" width="0" height="2.2"/>
		<rect x="6.9" y="4.8" class="st31" width="0" height="2.2"/>
		<rect x="7" y="4.8" class="st32" width="0" height="2.2"/>
		<rect x="7" y="4.8" class="st32" width="0" height="2.2"/>
		<rect x="7.1" y="4.8" class="st33" width="0" height="2.2"/>
		<rect x="7.1" y="4.8" class="st34" width="0" height="2.2"/>
		<rect x="7.1" y="4.8" class="st35" width="0" height="2.2"/>
		<rect x="7.2" y="4.8" class="st36" width="0" height="2.2"/>
		<rect x="7.2" y="4.8" class="st37" width="0" height="2.2"/>
		<rect x="7.2" y="4.8" class="st38" width="0" height="2.2"/>
		<rect x="7.3" y="4.8" class="st38" width="0" height="2.2"/>
		<rect x="7.3" y="4.8" class="st39" width="0" height="2.2"/>
		<rect x="7.3" y="4.8" class="st40" width="0" height="2.2"/>
		<rect x="7.4" y="4.8" class="st41" width="0" height="2.2"/>
		<rect x="7.4" y="4.8" class="st42" width="0" height="2.2"/>
		<rect x="7.5" y="4.8" class="st43" width="0" height="2.2"/>
		<rect x="7.5" y="4.8" class="st43" width="0" height="2.2"/>
	</g>
	
		<linearGradient id="SVGID_3_" gradientUnits="userSpaceOnUse" x1="5.301" y1="8.0656" x2="7.5206" y2="8.0656" gradientTransform="matrix(1 0 0 -1 0 13.9224)">
		<stop  offset="0" style="stop-color:#4D95D0"/>
		<stop  offset="0.29" style="stop-color:#4C9ED7"/>
		<stop  offset="0.78" style="stop-color:#3CBDED"/>
		<stop  offset="0.99" style="stop-color:#3EC6F0"/>
	</linearGradient>
	<path class="st44" d="M6.4,7C5.8,7,5.3,6.5,5.3,5.9s0.5-1.1,1.1-1.1s1.1,0.5,1.1,1.1S7,7,6.4,7z M6.4,4.8c-0.6,0-1.1,0.5-1.1,1.1
		s0.5,1.1,1.1,1.1s1.1-0.5,1.1-1.1S7,4.8,6.4,4.8z"/>
</g>
<g>
	<g>
		<defs>
			<circle id="SVGID_4_" cx="12.4" cy="5.9" r="1.2"/>
		</defs>
		<clipPath id="SVGID_5_">
			<use xlink:href="#SVGID_4_"  style="overflow:visible;"/>
		</clipPath>
		<path class="st45" d="M11.3,4.7V7V4.7z"/>
		<rect x="11.3" y="4.7" class="st45" width="0.1" height="2.3"/>
		<rect x="11.3" y="4.7" class="st45" width="0.1" height="2.3"/>
		<rect x="11.4" y="4.7" class="st46" width="0.1" height="2.3"/>
		<rect x="11.5" y="4.7" class="st47" width="0.1" height="2.3"/>
		<rect x="11.6" y="4.7" class="st48" width="0.1" height="2.3"/>
		<rect x="11.6" y="4.7" class="st49" width="0.1" height="2.3"/>
		<rect x="11.7" y="4.7" class="st50" width="0.1" height="2.3"/>
		<rect x="11.8" y="4.7" class="st51" width="0.1" height="2.3"/>
		<rect x="11.9" y="4.7" class="st52" width="0.1" height="2.3"/>
		<rect x="11.9" y="4.7" class="st52" width="0" height="2.3"/>
		<rect x="12" y="4.7" class="st53" width="0" height="2.3"/>
		<rect x="12" y="4.7" class="st54" width="0" height="2.3"/>
		<rect x="12.1" y="4.7" class="st55" width="0" height="2.3"/>
		<rect x="12.1" y="4.7" class="st56" width="0" height="2.3"/>
		<rect x="12.2" y="4.7" class="st57" width="0" height="2.3"/>
		<rect x="12.2" y="4.7" class="st58" width="0" height="2.3"/>
		<rect x="12.2" y="4.7" class="st59" width="0" height="2.3"/>
		<rect x="12.3" y="4.7" class="st60" width="0" height="2.3"/>
		<rect x="12.3" y="4.7" class="st61" width="0" height="2.3"/>
		<rect x="12.4" y="4.7" class="st62" width="0" height="2.3"/>
		<rect x="12.4" y="4.7" class="st63" width="0" height="2.3"/>
		<rect x="12.5" y="4.7" class="st64" width="0" height="2.3"/>
		<rect x="12.5" y="4.7" class="st65" width="0" height="2.3"/>
		<rect x="12.6" y="4.7" class="st66" width="0" height="2.3"/>
		<rect x="12.6" y="4.7" class="st67" width="0" height="2.3"/>
		<rect x="12.6" y="4.7" class="st68" width="0" height="2.3"/>
		<rect x="12.7" y="4.7" class="st69" width="0" height="2.3"/>
		<rect x="12.7" y="4.7" class="st70" width="0" height="2.3"/>
		<rect x="12.8" y="4.7" class="st71" width="0" height="2.3"/>
		<rect x="12.8" y="4.7" class="st72" width="0" height="2.3"/>
		<rect x="12.9" y="4.7" class="st73" width="0" height="2.3"/>
		<rect x="12.9" y="4.7" class="st74" width="0" height="2.3"/>
		<rect x="12.9" y="4.7" class="st75" width="0" height="2.3"/>
		<rect x="13" y="4.7" class="st76" width="0" height="2.3"/>
		<rect x="13" y="4.7" class="st77" width="0" height="2.3"/>
		<rect x="13.1" y="4.7" class="st77" width="0" height="2.3"/>
		<rect x="13.1" y="4.7" class="st78" width="0" height="2.3"/>
		<rect x="13.2" y="4.7" class="st79" width="0" height="2.3"/>
		<rect x="13.2" y="4.7" class="st80" width="0" height="2.3"/>
		<rect x="13.2" y="4.7" class="st81" width="0" height="2.3"/>
		<rect x="13.3" y="4.7" class="st82" width="0" height="2.3"/>
		<rect x="13.3" y="4.7" class="st83" width="0" height="2.3"/>
		<rect x="13.3" y="4.7" class="st83" width="0" height="2.3"/>
		<rect x="13.4" y="4.7" class="st84" width="0" height="2.3"/>
		<rect x="13.4" y="4.7" class="st85" width="0" height="2.3"/>
		<rect x="13.5" y="4.7" class="st86" width="0" height="2.3"/>
		<rect x="13.5" y="4.7" class="st87" width="0" height="2.3"/>
		<rect x="13.5" y="4.7" class="st88" width="0" height="2.3"/>
		<rect x="13.6" y="4.7" class="st88" width="0" height="2.3"/>
	</g>
	
		<linearGradient id="SVGID_6_" gradientUnits="userSpaceOnUse" x1="11.2619" y1="8.0656" x2="13.599" y2="8.0656" gradientTransform="matrix(1 0 0 -1 0 13.9224)">
		<stop  offset="0" style="stop-color:#4D95D0"/>
		<stop  offset="0.29" style="stop-color:#4C9ED7"/>
		<stop  offset="0.78" style="stop-color:#3CBDED"/>
		<stop  offset="0.99" style="stop-color:#3EC6F0"/>
	</linearGradient>
	<path class="st89" d="M12.4,7c-0.6,0-1.2-0.5-1.2-1.2s0.5-1.2,1.2-1.2c0.6,0,1.2,0.5,1.2,1.2S13.1,7,12.4,7z M12.4,4.7
		c-0.6,0-1.1,0.5-1.1,1.1S11.8,7,12.4,7c0.6,0,1.1-0.5,1.1-1.1S13.1,4.7,12.4,4.7z"/>
</g>
<g>
	<g>
		<defs>
			<path id="SVGID_7_" d="M13.3,7.8c-0.2,0.6-2.4,5.1-4,5.1c0,0-0.1,0-0.1,0c-1.9-0.2-3.8-5.1-3.8-5.1l1.9,0c0,0,1,3.5,2,3.6
				c1,0,2-3.6,2-3.6L13.3,7.8z"/>
		</defs>
		<clipPath id="SVGID_8_">
			<use xlink:href="#SVGID_7_"  style="overflow:visible;"/>
		</clipPath>
		<path class="st90" d="M5.5,7.8v5.1V7.8z"/>
		<rect x="5.5" y="7.8" class="st90" width="0.1" height="5.1"/>
		<rect x="5.6" y="7.8" class="st90" width="0.1" height="5.1"/>
		<rect x="5.8" y="7.8" class="st91" width="0.1" height="5.1"/>
		<rect x="5.9" y="7.8" class="st91" width="0.1" height="5.1"/>
		<rect x="6" y="7.8" class="st92" width="0.1" height="5.1"/>
		<rect x="6.2" y="7.8" class="st93" width="0.1" height="5.1"/>
		<rect x="6.3" y="7.8" class="st94" width="0.1" height="5.1"/>
		<rect x="6.5" y="7.8" class="st95" width="0.1" height="5.1"/>
		<rect x="6.6" y="7.8" class="st96" width="0.1" height="5.1"/>
		<rect x="6.8" y="7.8" class="st96" width="0.1" height="5.1"/>
		<rect x="6.9" y="7.8" class="st97" width="0.1" height="5.1"/>
		<rect x="7" y="7.8" class="st98" width="0.1" height="5.1"/>
		<rect x="7.2" y="7.8" class="st99" width="0.1" height="5.1"/>
		<rect x="7.3" y="7.8" class="st100" width="0.1" height="5.1"/>
		<rect x="7.5" y="7.8" class="st100" width="0.1" height="5.1"/>
		<rect x="7.6" y="7.8" class="st101" width="0.1" height="5.1"/>
		<rect x="7.8" y="7.8" class="st101" width="0.1" height="5.1"/>
		<rect x="7.8" y="7.8" class="st102" width="0.1" height="5.1"/>
		<rect x="7.9" y="7.8" class="st103" width="0.1" height="5.1"/>
		<rect x="8" y="7.8" class="st104" width="0.1" height="5.1"/>
		<rect x="8" y="7.8" class="st105" width="0.1" height="5.1"/>
		<rect x="8.1" y="7.8" class="st106" width="0.1" height="5.1"/>
		<rect x="8.2" y="7.8" class="st107" width="0.1" height="5.1"/>
		<rect x="8.3" y="7.8" class="st107" width="0.1" height="5.1"/>
		<rect x="8.3" y="7.8" class="st108" width="0.1" height="5.1"/>
		<rect x="8.4" y="7.8" class="st109" width="0.1" height="5.1"/>
		<rect x="8.5" y="7.8" class="st110" width="0.1" height="5.1"/>
		<rect x="8.6" y="7.8" class="st111" width="0.1" height="5.1"/>
		<rect x="8.6" y="7.8" class="st111" width="0.1" height="5.1"/>
		<rect x="8.7" y="7.8" class="st112" width="0.1" height="5.1"/>
		<rect x="8.8" y="7.8" class="st112" width="0.1" height="5.1"/>
		<rect x="8.9" y="7.8" class="st113" width="0.1" height="5.1"/>
		<rect x="8.9" y="7.8" class="st114" width="0.1" height="5.1"/>
		<rect x="9" y="7.8" class="st115" width="0.1" height="5.1"/>
		<rect x="9.1" y="7.8" class="st116" width="0.1" height="5.1"/>
		<rect x="9.2" y="7.8" class="st116" width="0.1" height="5.1"/>
		<rect x="9.2" y="7.8" class="st117" width="0.1" height="5.1"/>
		<rect x="9.3" y="7.8" class="st118" width="0.1" height="5.1"/>
		<rect x="9.4" y="7.8" class="st119" width="0.1" height="5.1"/>
		<rect x="9.5" y="7.8" class="st120" width="0.1" height="5.1"/>
		<rect x="9.5" y="7.8" class="st121" width="0.1" height="5.1"/>
		<rect x="9.6" y="7.8" class="st122" width="0.1" height="5.1"/>
		<rect x="9.7" y="7.8" class="st123" width="0.1" height="5.1"/>
		<rect x="9.7" y="7.8" class="st124" width="0.1" height="5.1"/>
		<rect x="9.8" y="7.8" class="st125" width="0.1" height="5.1"/>
		<rect x="9.9" y="7.8" class="st126" width="0.1" height="5.1"/>
		<rect x="10" y="7.8" class="st127" width="0.1" height="5.1"/>
		<rect x="10" y="7.8" class="st128" width="0.1" height="5.1"/>
		<rect x="10.1" y="7.8" class="st128" width="0.1" height="5.1"/>
		<rect x="10.2" y="7.8" class="st129" width="0.1" height="5.1"/>
		<rect x="10.3" y="7.8" class="st130" width="0.1" height="5.1"/>
		<rect x="10.3" y="7.8" class="st131" width="0.1" height="5.1"/>
		<rect x="10.4" y="7.8" class="st132" width="0.1" height="5.1"/>
		<rect x="10.5" y="7.8" class="st133" width="0.1" height="5.1"/>
		<rect x="10.6" y="7.8" class="st134" width="0.1" height="5.1"/>
		<rect x="10.6" y="7.8" class="st134" width="0.1" height="5.1"/>
		<rect x="10.7" y="7.8" class="st135" width="0.1" height="5.1"/>
		<rect x="10.8" y="7.8" class="st136" width="0.1" height="5.1"/>
		<rect x="10.9" y="7.8" class="st136" width="0.1" height="5.1"/>
		<rect x="10.9" y="7.8" class="st137" width="0.1" height="5.1"/>
		<rect x="11" y="7.8" class="st137" width="0.1" height="5.1"/>
		<rect x="11.1" y="7.8" class="st138" width="0.1" height="5.1"/>
		<rect x="11.2" y="7.8" class="st139" width="0.1" height="5.1"/>
		<rect x="11.2" y="7.8" class="st140" width="0.1" height="5.1"/>
		<rect x="11.3" y="7.8" class="st141" width="0.1" height="5.1"/>
		<rect x="11.4" y="7.8" class="st142" width="0.1" height="5.1"/>
		<rect x="11.5" y="7.8" class="st143" width="0.1" height="5.1"/>
		<rect x="11.5" y="7.8" class="st144" width="0.1" height="5.1"/>
		<rect x="11.6" y="7.8" class="st144" width="0.1" height="5.1"/>
		<rect x="11.7" y="7.8" class="st145" width="0.1" height="5.1"/>
		<rect x="11.9" y="7.8" class="st146" width="0.1" height="5.1"/>
		<rect x="12" y="7.8" class="st147" width="0.1" height="5.1"/>
		<rect x="12.1" y="7.8" class="st147" width="0.1" height="5.1"/>
		<rect x="12.3" y="7.8" class="st148" width="0.1" height="5.1"/>
		<rect x="12.4" y="7.8" class="st149" width="0.1" height="5.1"/>
		<rect x="12.6" y="7.8" class="st150" width="0.1" height="5.1"/>
		<rect x="12.7" y="7.8" class="st151" width="0.1" height="5.1"/>
		<rect x="12.8" y="7.8" class="st152" width="0.1" height="5.1"/>
		<rect x="13" y="7.8" class="st153" width="0.1" height="5.1"/>
		<rect x="13.1" y="7.8" class="st154" width="0.1" height="5.1"/>
		<rect x="13.2" y="7.8" class="st154" width="0.1" height="5.1"/>
	</g>
	
		<linearGradient id="SVGID_9_" gradientUnits="userSpaceOnUse" x1="5.4557" y1="3.6065" x2="13.3423" y2="3.6065" gradientTransform="matrix(1 0 0 -1 0 13.9224)">
		<stop  offset="0" style="stop-color:#4D95D0"/>
		<stop  offset="0.29" style="stop-color:#4C9ED7"/>
		<stop  offset="0.78" style="stop-color:#3CBDED"/>
		<stop  offset="0.99" style="stop-color:#3EC6F0"/>
	</linearGradient>
	<path class="st155" d="M9.4,12.9C9.3,12.9,9.3,12.9,9.4,12.9c-0.5,0-1-0.3-1.5-0.9c-0.4-0.4-0.8-1-1.2-1.7C6,9,5.5,7.8,5.5,7.8l0,0
		l1.9,0l0,0c0,0,0.3,0.9,0.6,1.8c0.5,1.2,1,1.8,1.3,1.8c0,0,0,0,0,0c0.4,0,0.9-0.6,1.3-1.8c0.4-0.9,0.6-1.8,0.6-1.8l0,0l0,0l1.9,0
		l0,0c-0.1,0.3-0.7,1.5-1.5,2.8C11.2,11.6,10.2,12.9,9.4,12.9z M5.5,7.8C5.5,7.9,6,9.1,6.7,10.3C7.1,11,7.5,11.6,7.9,12
		c0.5,0.5,1,0.8,1.4,0.9c0,0,0.1,0,0.1,0c0.8,0,1.8-1.3,2.5-2.3c0.8-1.2,1.4-2.5,1.4-2.7l-1.9,0c0,0.1-0.3,0.9-0.6,1.8
		c-0.2,0.5-0.4,0.9-0.6,1.2c-0.3,0.4-0.5,0.6-0.7,0.6c0,0,0,0,0,0c-0.2,0-0.5-0.2-0.7-0.6C8.4,10.5,8.2,10.1,8,9.6
		C7.7,8.7,7.4,7.9,7.4,7.8L5.5,7.8z"/>
</g>
<linearGradient id="SVGID_10_" gradientUnits="userSpaceOnUse" x1="0.1723" y1="5.8546" x2="18.061" y2="5.8546" gradientTransform="matrix(1 0 0 -1 0 13.9224)">
	<stop  offset="0" style="stop-color:#4D95D0"/>
	<stop  offset="0.29" style="stop-color:#4C9ED7"/>
	<stop  offset="0.78" style="stop-color:#3CBDED"/>
	<stop  offset="0.99" style="stop-color:#3EC6F0"/>
</linearGradient>
<path class="st156" d="M14.6,15.5c-0.4,0-1-0.1-1.7-0.5c-0.7-0.3-1.6,0-2.3,0.2c-0.6,0.2-1.1,0.3-1.4,0.1c-0.1-0.1-0.2-0.2-0.2-0.4
	v-2.1h0.3V15c0,0.1,0,0.2,0.1,0.2c0.1,0.1,0.6,0,1.1-0.2c0.8-0.2,1.7-0.5,2.5-0.2l0,0c1.5,0.7,2.2,0.4,2.8,0
	c0.2-0.1,0.4-0.2,0.6-0.3c0.4-0.2,0.6-0.7,0.7-1.2l0.3-1.6c0.2-0.7,0.3-1.5,0.3-2.2c0-4.6-3.6-8.4-8.2-8.6C7.2,0.8,4.8,1.7,3.1,3.4
	s-2.7,4-2.6,6.4c0,1.5,0.5,3,1.3,4.2l-0.3,0.2c-0.8-1.3-1.3-2.8-1.3-4.4c0-1.3,0.2-2.5,0.7-3.7C1.3,5,2,4,2.9,3.2s1.9-1.5,3-2
	c1.2-0.5,2.4-0.7,3.7-0.6c2.3,0.1,4.4,1.1,6,2.8c1.6,1.7,2.5,3.9,2.5,6.2c0,0.8-0.1,1.5-0.3,2.3l-0.3,1.6c-0.1,0.6-0.3,1.2-0.9,1.4
	c-0.2,0.1-0.4,0.2-0.5,0.3C15.6,15.3,15.2,15.5,14.6,15.5z"/>
<g>
	<g>
		<defs>
			<circle id="SVGID_11_" cx="17" cy="13.8" r="0.9"/>
		</defs>
		<clipPath id="SVGID_12_">
			<use xlink:href="#SVGID_11_"  style="overflow:visible;"/>
		</clipPath>
		<path class="st157" d="M16.1,12.9v1.8V12.9z"/>
		<rect x="16.1" y="12.9" class="st157" width="0.1" height="1.8"/>
		<rect x="16.1" y="12.9" class="st157" width="0.1" height="1.8"/>
		<rect x="16.2" y="12.9" class="st158" width="0.1" height="1.8"/>
		<rect x="16.3" y="12.9" class="st159" width="0.1" height="1.8"/>
		<rect x="16.3" y="12.9" class="st160" width="0.1" height="1.8"/>
		<rect x="16.4" y="12.9" class="st161" width="0.1" height="1.8"/>
		<rect x="16.4" y="12.9" class="st162" width="0.1" height="1.8"/>
		<rect x="16.5" y="12.9" class="st163" width="0.1" height="1.8"/>
		<rect x="16.5" y="12.9" class="st164" width="0.1" height="1.8"/>
		<rect x="16.6" y="12.9" class="st164" width="0" height="1.8"/>
		<rect x="16.6" y="12.9" class="st165" width="0" height="1.8"/>
		<rect x="16.7" y="12.9" class="st166" width="0" height="1.8"/>
		<rect x="16.7" y="12.9" class="st167" width="0" height="1.8"/>
		<rect x="16.7" y="12.9" class="st168" width="0" height="1.8"/>
		<rect x="16.8" y="12.9" class="st169" width="0" height="1.8"/>
		<rect x="16.8" y="12.9" class="st170" width="0" height="1.8"/>
		<rect x="16.8" y="12.9" class="st171" width="0" height="1.8"/>
		<rect x="16.9" y="12.9" class="st172" width="0" height="1.8"/>
		<rect x="16.9" y="12.9" class="st173" width="0" height="1.8"/>
		<rect x="16.9" y="12.9" class="st174" width="0" height="1.8"/>
		<rect x="17" y="12.9" class="st175" width="0" height="1.8"/>
		<rect x="17" y="12.9" class="st176" width="0" height="1.8"/>
		<rect x="17" y="12.9" class="st177" width="0" height="1.8"/>
		<rect x="17.1" y="12.9" class="st178" width="0" height="1.8"/>
		<rect x="17.1" y="12.9" class="st179" width="0" height="1.8"/>
		<rect x="17.1" y="12.9" class="st180" width="0" height="1.8"/>
		<rect x="17.2" y="12.9" class="st181" width="0" height="1.8"/>
		<rect x="17.2" y="12.9" class="st182" width="0" height="1.8"/>
		<rect x="17.2" y="12.9" class="st183" width="0" height="1.8"/>
		<rect x="17.3" y="12.9" class="st184" width="0" height="1.8"/>
		<rect x="17.3" y="12.9" class="st185" width="0" height="1.8"/>
		<rect x="17.3" y="12.9" class="st186" width="0" height="1.8"/>
		<rect x="17.4" y="12.9" class="st187" width="0" height="1.8"/>
		<rect x="17.4" y="12.9" class="st188" width="0" height="1.8"/>
		<rect x="17.4" y="12.9" class="st189" width="0" height="1.8"/>
		<rect x="17.5" y="12.9" class="st189" width="0" height="1.8"/>
		<rect x="17.5" y="12.9" class="st190" width="0" height="1.8"/>
		<rect x="17.5" y="12.9" class="st191" width="0" height="1.8"/>
		<rect x="17.6" y="12.9" class="st192" width="0" height="1.8"/>
		<rect x="17.6" y="12.9" class="st193" width="0" height="1.8"/>
		<rect x="17.6" y="12.9" class="st194" width="0" height="1.8"/>
		<rect x="17.7" y="12.9" class="st195" width="0" height="1.8"/>
		<rect x="17.7" y="12.9" class="st195" width="0" height="1.8"/>
		<rect x="17.7" y="12.9" class="st196" width="0" height="1.8"/>
		<rect x="17.7" y="12.9" class="st197" width="0" height="1.8"/>
		<rect x="17.8" y="12.9" class="st198" width="0" height="1.8"/>
		<rect x="17.8" y="12.9" class="st199" width="0" height="1.8"/>
		<rect x="17.8" y="12.9" class="st200" width="0" height="1.8"/>
		<rect x="17.9" y="12.9" class="st200" width="0" height="1.8"/>
	</g>
	
		<linearGradient id="SVGID_13_" gradientUnits="userSpaceOnUse" x1="16.0749" y1="0.1288" x2="17.8867" y2="0.1288" gradientTransform="matrix(1 0 0 -1 0 13.9224)">
		<stop  offset="0" style="stop-color:#4D95D0"/>
		<stop  offset="0.29" style="stop-color:#4C9ED7"/>
		<stop  offset="0.78" style="stop-color:#3CBDED"/>
		<stop  offset="0.99" style="stop-color:#3EC6F0"/>
	</linearGradient>
	<path class="st201" d="M17,14.7c-0.5,0-0.9-0.4-0.9-0.9c0-0.5,0.4-0.9,0.9-0.9c0.5,0,0.9,0.4,0.9,0.9C17.9,14.3,17.5,14.7,17,14.7z
		 M17,12.9c-0.5,0-0.9,0.4-0.9,0.9c0,0.5,0.4,0.9,0.9,0.9c0.5,0,0.9-0.4,0.9-0.9C17.9,13.3,17.5,12.9,17,12.9z"/>
</g>
<g>
	<g>
		<defs>
			<circle id="SVGID_14_" cx="2" cy="13.8" r="0.9"/>
		</defs>
		<clipPath id="SVGID_15_">
			<use xlink:href="#SVGID_14_"  style="overflow:visible;"/>
		</clipPath>
		<path class="st202" d="M1.1,12.9v1.8V12.9z"/>
		<rect x="1.1" y="12.9" class="st202" width="0.1" height="1.8"/>
		<rect x="1.1" y="12.9" class="st202" width="0.1" height="1.8"/>
		<rect x="1.2" y="12.9" class="st203" width="0.1" height="1.8"/>
		<rect x="1.2" y="12.9" class="st204" width="0.1" height="1.8"/>
		<rect x="1.3" y="12.9" class="st205" width="0.1" height="1.8"/>
		<rect x="1.3" y="12.9" class="st206" width="0.1" height="1.8"/>
		<rect x="1.4" y="12.9" class="st207" width="0.1" height="1.8"/>
		<rect x="1.5" y="12.9" class="st208" width="0.1" height="1.8"/>
		<rect x="1.5" y="12.9" class="st209" width="0.1" height="1.8"/>
		<rect x="1.6" y="12.9" class="st209" width="0" height="1.8"/>
		<rect x="1.6" y="12.9" class="st210" width="0" height="1.8"/>
		<rect x="1.6" y="12.9" class="st211" width="0" height="1.8"/>
		<rect x="1.7" y="12.9" class="st212" width="0" height="1.8"/>
		<rect x="1.7" y="12.9" class="st213" width="0" height="1.8"/>
		<rect x="1.7" y="12.9" class="st214" width="0" height="1.8"/>
		<rect x="1.8" y="12.9" class="st215" width="0" height="1.8"/>
		<rect x="1.8" y="12.9" class="st216" width="0" height="1.8"/>
		<rect x="1.8" y="12.9" class="st217" width="0" height="1.8"/>
		<rect x="1.9" y="12.9" class="st218" width="0" height="1.8"/>
		<rect x="1.9" y="12.9" class="st219" width="0" height="1.8"/>
		<rect x="1.9" y="12.9" class="st220" width="0" height="1.8"/>
		<rect x="2" y="12.9" class="st221" width="0" height="1.8"/>
		<rect x="2" y="12.9" class="st222" width="0" height="1.8"/>
		<rect x="2" y="12.9" class="st223" width="0" height="1.8"/>
		<rect x="2.1" y="12.9" class="st224" width="0" height="1.8"/>
		<rect x="2.1" y="12.9" class="st225" width="0" height="1.8"/>
		<rect x="2.1" y="12.9" class="st226" width="0" height="1.8"/>
		<rect x="2.2" y="12.9" class="st227" width="0" height="1.8"/>
		<rect x="2.2" y="12.9" class="st228" width="0" height="1.8"/>
		<rect x="2.3" y="12.9" class="st229" width="0" height="1.8"/>
		<rect x="2.3" y="12.9" class="st230" width="0" height="1.8"/>
		<rect x="2.3" y="12.9" class="st231" width="0" height="1.8"/>
		<rect x="2.4" y="12.9" class="st232" width="0" height="1.8"/>
		<rect x="2.4" y="12.9" class="st233" width="0" height="1.8"/>
		<rect x="2.4" y="12.9" class="st234" width="0" height="1.8"/>
		<rect x="2.5" y="12.9" class="st234" width="0" height="1.8"/>
		<rect x="2.5" y="12.9" class="st235" width="0" height="1.8"/>
		<rect x="2.5" y="12.9" class="st236" width="0" height="1.8"/>
		<rect x="2.5" y="12.9" class="st237" width="0" height="1.8"/>
		<rect x="2.6" y="12.9" class="st238" width="0" height="1.8"/>
		<rect x="2.6" y="12.9" class="st239" width="0" height="1.8"/>
		<rect x="2.6" y="12.9" class="st240" width="0" height="1.8"/>
		<rect x="2.7" y="12.9" class="st240" width="0" height="1.8"/>
		<rect x="2.7" y="12.9" class="st241" width="0" height="1.8"/>
		<rect x="2.7" y="12.9" class="st242" width="0" height="1.8"/>
		<rect x="2.7" y="12.9" class="st243" width="0" height="1.8"/>
		<rect x="2.8" y="12.9" class="st244" width="0" height="1.8"/>
		<rect x="2.8" y="12.9" class="st245" width="0" height="1.8"/>
		<rect x="2.8" y="12.9" class="st245" width="0" height="1.8"/>
	</g>
	
		<linearGradient id="SVGID_16_" gradientUnits="userSpaceOnUse" x1="1.0454" y1="0.1228" x2="2.8572" y2="0.1228" gradientTransform="matrix(1 0 0 -1 0 13.9224)">
		<stop  offset="0" style="stop-color:#4D95D0"/>
		<stop  offset="0.29" style="stop-color:#4C9ED7"/>
		<stop  offset="0.78" style="stop-color:#3CBDED"/>
		<stop  offset="0.99" style="stop-color:#3EC6F0"/>
	</linearGradient>
	<path class="st246" d="M2,14.7c-0.5,0-0.9-0.4-0.9-0.9s0.4-0.9,0.9-0.9s0.9,0.4,0.9,0.9S2.5,14.7,2,14.7z M2,12.9
		c-0.5,0-0.9,0.4-0.9,0.9s0.4,0.9,0.9,0.9s0.9-0.4,0.9-0.9S2.4,12.9,2,12.9z"/>
</g>
</svg>
