<svg width="30" height="30" viewBox="0 0 30 30" fill="none" xmlns="http://www.w3.org/2000/svg">
<path d="M7.36106 24.9383C7.61422 24.6851 7.93068 24.4953 8.24713 24.3054C9.70283 23.6092 11.3484 23.2927 12.994 23.2927C14.6395 23.2927 16.2851 23.6725 17.7408 24.432C18.1838 24.6851 18.6269 25.0016 18.88 25.3813C19.1332 25.7611 19.3231 26.2041 19.4497 26.7104C19.513 27.2168 19.513 27.6598 19.3231 28.1661C19.1965 28.6725 18.88 29.1155 18.5003 29.432C18.3737 29.5585 18.1838 29.5585 18.0573 29.4953L15.9054 28.0396C15.7788 27.9763 15.7788 27.8497 15.7788 27.7231V26.394C13.9433 25.7611 11.918 25.7611 10.0826 26.3307V27.6598C10.0826 27.7864 10.0193 27.913 9.8927 27.9763L7.67751 29.3687C7.55093 29.432 7.36106 29.432 7.23448 29.3054C6.85473 28.9256 6.60156 28.4826 6.47498 27.9763C6.3484 27.5332 6.3484 27.0269 6.41169 26.5206C6.47498 26.0142 6.72815 25.5712 6.98131 25.1915C7.17118 25.1282 7.23447 25.0649 7.36106 24.9383ZM18.1838 28.7991C18.6269 28.2927 18.8168 27.5965 18.6902 26.9003C18.5636 26.1408 18.0573 25.4446 17.3611 25.1282C14.5762 23.7991 11.3484 23.7358 8.5003 25.0016C7.8041 25.318 7.29777 25.951 7.10789 26.7737C6.98131 27.4699 7.17118 28.1661 7.55093 28.7358L9.32308 27.5965V26.2041C9.32308 26.0775 9.44966 25.951 9.57625 25.8877C11.7281 25.1282 14.0699 25.1915 16.2218 25.951C16.3484 26.0142 16.475 26.1408 16.475 26.2674V27.6598L18.1838 28.7991Z" fill="#A19D9D"/>
<path d="M28.1841 3.16611H26.6651V1.64713C26.6651 1.20409 26.2853 0.824341 25.8423 0.824341C25.3993 0.824341 25.0195 1.20409 25.0195 1.64713V3.16611H23.5005C23.0575 3.16611 22.6777 3.54586 22.6777 3.9889C22.6777 4.43194 23.0575 4.81168 23.5005 4.81168H25.0195V6.33067C25.0195 6.77371 25.3993 7.15345 25.8423 7.15345C26.2853 7.15345 26.6651 6.77371 26.6651 6.33067V4.81168H28.1841C28.6271 4.81168 29.0068 4.43194 29.0068 3.9889C29.0068 3.54586 28.6271 3.16611 28.1841 3.16611Z" fill="#A19D9D"/>
<path d="M20.8422 20.0015C19.5763 18.7357 18.0574 17.7863 16.4118 17.2167C18.1839 16.0142 19.3232 13.9889 19.3232 11.7104C19.3232 7.97621 16.2852 5.00153 12.6143 5.00153C8.94343 5.00153 5.90546 8.0395 5.90546 11.7104C5.90546 13.9889 7.0447 16.0142 8.81685 17.2167C7.17128 17.7863 5.65229 18.7357 4.38647 20.0015C2.17128 22.2167 0.96875 25.1281 0.96875 28.2294H2.80419C2.80419 22.8496 7.23457 18.4192 12.6143 18.4192C17.9941 18.4192 22.4244 22.8496 22.4244 28.2294H24.2599C24.2599 25.1281 23.0574 22.2167 20.8422 20.0015ZM12.6776 16.5838C9.95609 16.5838 7.80419 14.3686 7.80419 11.7104C7.80419 9.05216 10.0194 6.83697 12.6776 6.83697C15.3358 6.83697 17.551 9.05216 17.551 11.7104C17.551 14.3686 15.3358 16.5838 12.6776 16.5838Z" fill="#A19D9D"/>
</svg>
