<?xml version="1.0" encoding="UTF-8" standalone="no"?>
<!-- Generator: Adobe Illustrator 18.1.1, SVG Export Plug-In . SVG Version: 6.00 Build 0)  -->

<svg
   xmlns:dc="http://purl.org/dc/elements/1.1/"
   xmlns:cc="http://creativecommons.org/ns#"
   xmlns:rdf="http://www.w3.org/1999/02/22-rdf-syntax-ns#"
   xmlns:svg="http://www.w3.org/2000/svg"
   xmlns="http://www.w3.org/2000/svg"
   xmlns:sodipodi="http://sodipodi.sourceforge.net/DTD/sodipodi-0.dtd"
   xmlns:inkscape="http://www.inkscape.org/namespaces/inkscape"
   version="1.1"
   id="Capa_1"
   x="0px"
   y="0px"
   viewBox="0 0 15.315 15.315"
   style="enable-background:new 0 0 15.315 15.315;"
   xml:space="preserve"
   sodipodi:docname="calender.svg"
   inkscape:version="0.92.4 (5da689c313, 2019-01-14)"><metadata
   id="metadata67"><rdf:RDF><cc:Work
       rdf:about=""><dc:format>image/svg+xml</dc:format><dc:type
         rdf:resource="http://purl.org/dc/dcmitype/StillImage" /></cc:Work></rdf:RDF></metadata><defs
   id="defs65" /><sodipodi:namedview
   pagecolor="#ffffff"
   bordercolor="#666666"
   borderopacity="1"
   objecttolerance="10"
   gridtolerance="10"
   guidetolerance="10"
   inkscape:pageopacity="0"
   inkscape:pageshadow="2"
   inkscape:window-width="1920"
   inkscape:window-height="1013"
   id="namedview63"
   showgrid="false"
   inkscape:zoom="15.409729"
   inkscape:cx="7.6574998"
   inkscape:cy="7.6574998"
   inkscape:window-x="1699"
   inkscape:window-y="-9"
   inkscape:window-maximized="1"
   inkscape:current-layer="g28" />
<g
   id="g30">
	<g
   id="g28">
		<path
   style="fill:#030104;"
   d="M3.669,3.71h0.696c0.256,0,0.464-0.165,0.464-0.367V0.367C4.829,0.164,4.621,0,4.365,0H3.669    C3.414,0,3.206,0.164,3.206,0.367v2.976C3.205,3.545,3.413,3.71,3.669,3.71z"
   id="path2" />
		<path
   style="fill:#030104;"
   d="M10.95,3.71h0.696c0.256,0,0.464-0.165,0.464-0.367V0.367C12.11,0.164,11.902,0,11.646,0H10.95    c-0.256,0-0.463,0.164-0.463,0.367v2.976C10.487,3.545,10.694,3.71,10.95,3.71z"
   id="path4" />
		<path
   style="fill:#000000;fill-opacity:0.60784316"
   d="M14.512,1.42h-1.846v2.278c0,0.509-0.458,0.923-1.021,0.923h-0.696    c-0.563,0-1.021-0.414-1.021-0.923V1.42H5.384v2.278c0,0.509-0.458,0.923-1.021,0.923H3.669c-0.562,0-1.02-0.414-1.02-0.923V1.42    H0.803c-0.307,0-0.557,0.25-0.557,0.557V14.76c0,0.307,0.25,0.555,0.557,0.555h13.709c0.308,0,0.557-0.248,0.557-0.555V1.977    C15.069,1.67,14.82,1.42,14.512,1.42z M14.316,9.49v4.349c0,0.096-0.078,0.176-0.175,0.176H7.457H1.174    c-0.097,0-0.175-0.08-0.175-0.176V10.31V5.961c0-0.096,0.078-0.176,0.175-0.176h6.683h6.284l0,0c0.097,0,0.175,0.08,0.175,0.176    V9.49z"
   id="path6" />
		<rect
   x="2.327"
   y="8.93"
   style="fill:#030104;"
   width="1.735"
   height="1.736"
   id="rect8" />
		<rect
   x="5.28"
   y="8.93"
   style="fill:#030104;"
   width="1.735"
   height="1.736"
   id="rect10" />
		<rect
   x="8.204"
   y="8.93"
   style="fill:#030104;"
   width="1.734"
   height="1.736"
   id="rect12" />
		<rect
   x="11.156"
   y="8.93"
   style="fill:#030104;"
   width="1.736"
   height="1.736"
   id="rect14" />
		<rect
   x="2.363"
   y="11.432"
   style="fill:#030104;"
   width="1.736"
   height="1.736"
   id="rect16" />
		<rect
   x="5.317"
   y="11.432"
   style="fill:#030104;"
   width="1.735"
   height="1.736"
   id="rect18" />
		<rect
   x="8.241"
   y="11.432"
   style="fill:#030104;"
   width="1.734"
   height="1.736"
   id="rect20" />
		<rect
   x="11.194"
   y="11.432"
   style="fill:#030104;"
   width="1.735"
   height="1.736"
   id="rect22" />
		<rect
   x="8.215"
   y="6.47"
   style="fill:#030104;"
   width="1.735"
   height="1.735"
   id="rect24" />
		<rect
   x="11.17"
   y="6.47"
   style="fill:#030104;"
   width="1.734"
   height="1.735"
   id="rect26" />
	</g>
</g>
<g
   id="g32">
</g>
<g
   id="g34">
</g>
<g
   id="g36">
</g>
<g
   id="g38">
</g>
<g
   id="g40">
</g>
<g
   id="g42">
</g>
<g
   id="g44">
</g>
<g
   id="g46">
</g>
<g
   id="g48">
</g>
<g
   id="g50">
</g>
<g
   id="g52">
</g>
<g
   id="g54">
</g>
<g
   id="g56">
</g>
<g
   id="g58">
</g>
<g
   id="g60">
</g>
</svg>