<svg width="26" height="13" viewBox="0 0 26 13" fill="none" xmlns="http://www.w3.org/2000/svg">
<path d="M1.86654 3.30739C2.38294 2.82448 2.98275 2.43277 3.6388 2.15002C6.61321 0.857451 9.84373 0.209635 13.1041 0.251947C16.3645 0.294258 19.576 1.02569 22.5135 2.39498C23.4308 2.8127 24.2267 3.44388 24.8301 4.23206C25.3936 4.99565 25.7668 5.87504 25.9205 6.8014C26.0743 7.72776 26.0043 8.67595 25.7162 9.57182C25.4074 10.5181 24.8591 11.3748 24.1212 12.0641C24.0078 12.1694 23.8607 12.2341 23.7042 12.2474C23.5476 12.2608 23.3911 12.222 23.2604 12.1376L18.9689 9.36977C18.8726 9.30893 18.7941 9.22515 18.7409 9.12649C18.6877 9.02783 18.6616 8.91759 18.6651 8.80637L18.6968 6.28345C15.0261 5.05695 11.0449 5.00543 7.34161 6.13649L7.30993 8.65941C7.30689 8.77066 7.27592 8.87953 7.21968 8.97661C7.16344 9.0737 7.08365 9.1561 6.98715 9.21668L2.61976 11.8682C2.48595 11.9484 2.32799 11.9824 2.17166 11.9646C2.01533 11.9468 1.86986 11.8783 1.75895 11.7702C1.04068 11.0609 0.516399 10.1896 0.233509 9.23503C-0.0268729 8.32973 -0.0701392 7.37887 0.106949 6.45493C0.288323 5.53629 0.686907 4.6707 1.27156 3.92588C1.45289 3.69547 1.65177 3.4785 1.86654 3.27678V3.30739ZM23.5389 10.7476C23.9992 10.2021 24.326 9.56307 24.4951 8.8782C24.6641 8.19334 24.671 7.48038 24.5152 6.79258C24.3593 6.10478 24.0449 5.45995 23.5952 4.90628C23.1456 4.35261 22.5724 3.90443 21.9185 3.59522C19.1628 2.30163 16.1467 1.61021 13.084 1.56999C10.0212 1.52978 6.98683 2.14176 4.19581 3.36252C3.53358 3.65403 2.94808 4.08668 2.48319 4.62813C2.0183 5.16957 1.68605 5.80577 1.51132 6.48905C1.33658 7.17233 1.32389 7.88501 1.47419 8.57371C1.62449 9.26241 1.9339 9.90926 2.37923 10.4659L5.93009 8.31036L5.96807 5.67109C5.9709 5.5355 6.01677 5.40403 6.09942 5.2945C6.18207 5.18496 6.29753 5.10265 6.43015 5.05873C10.7154 3.62608 15.3833 3.68675 19.6272 5.23021C19.7565 5.27758 19.8683 5.3611 19.9483 5.47016C20.0284 5.57922 20.073 5.70887 20.0766 5.84257L20.0387 8.48184L23.5389 10.7476Z" fill="#FF0000"/>
</svg>
