<svg width="19" height="11" viewBox="0 0 19 11" fill="none" xmlns="http://www.w3.org/2000/svg">
<g clip-path="url(#clip0)">
<path d="M18.0028 5.2C17.8987 5 14.049 0 9.15882 0C4.26865 0 0.41894 5 0.210847 5.2C0.106801 5.4 0.106801 5.7 0.210847 5.9C0.41894 6.1 4.26865 11 9.15882 11C14.049 11 17.8987 6 18.1068 5.8C18.2108 5.7 18.2108 5.4 18.0028 5.2ZM9.15882 9.9C5.51721 9.9 2.39582 6.6 1.4594 5.5C2.39582 4.4 5.51721 1.1 9.15882 1.1C12.8004 1.1 15.9218 4.4 16.8582 5.5C15.8178 6.6 12.6964 9.9 9.15882 9.9Z" fill="#3498DB"/>
<path d="M9.15867 2.10001C7.18179 2.10001 5.62109 3.60001 5.62109 5.50001C5.62109 7.40001 7.18179 9.00001 9.15867 9.00001C11.1355 9.00001 12.6962 7.50001 12.6962 5.60001C12.6962 3.70001 11.1355 2.10001 9.15867 2.10001ZM9.15867 7.80001C7.80606 7.80001 6.7656 6.80001 6.7656 5.50001C6.7656 4.20001 7.80606 3.20001 9.15867 3.20001C10.5113 3.20001 11.5517 4.20001 11.5517 5.50001C11.5517 6.80001 10.4072 7.80001 9.15867 7.80001Z" fill="#3498DB"/>
</g>
<defs>
<clipPath id="clip0">
<rect width="18" height="11" fill="white" transform="translate(0.107422)"/>
</clipPath>
</defs>
</svg>
