<!-- Generated by IcoMoon.io -->
<svg version="1.1" xmlns="http://www.w3.org/2000/svg" width="31" height="32" viewBox="0 0 31 32">
<title>filter</title>
<path fill="#808080" d="M29.882 0h-28.541c-0.512 0.003-0.956 0.293-1.179 0.716l-0.004 0.007c-0.099 0.184-0.157 0.402-0.157 0.634 0 0.291 0.092 0.561 0.248 0.783l-0.003-0.004 10.467 14.738c0.373 0.484 0.599 1.098 0.6 1.765v12.003c-0.001 0.016-0.001 0.034-0.001 0.053 0 0.355 0.149 0.674 0.389 0.9l0.001 0.001c0.239 0.24 0.57 0.388 0.935 0.388h0c0.001 0 0.002 0 0.004 0 0.19 0 0.371-0.039 0.535-0.109l5.869-2.238c0.507-0.168 0.866-0.638 0.866-1.192 0-0.022-0.001-0.043-0.002-0.064l0 0.003v-9.725c0.011-0.666 0.234-1.278 0.606-1.773l-0.006 0.008 10.467-14.738c0.156-0.222 0.249-0.498 0.249-0.796 0-0.224-0.053-0.436-0.147-0.624l0.004 0.008c-0.234-0.435-0.681-0.729-1.199-0.741l-0.002-0zM19.186 15.885c-0.561 0.755-0.899 1.706-0.9 2.736v9.62l-5.295 2.047v-11.632c-0.010-1.048-0.367-2.011-0.961-2.782l0.008 0.011-10.149-14.261h27.446z"></path>
</svg>
