<svg width="19" height="27" viewBox="0 0 19 27" fill="none" xmlns="http://www.w3.org/2000/svg">
<path d="M9.49663 17.25C10.8222 17.2482 12.0929 16.7266 13.0302 15.7995C13.9675 14.8723 14.4948 13.6154 14.4966 12.3043V5.37762C14.5213 4.71327 14.4104 4.05082 14.1704 3.42985C13.9305 2.80888 13.5664 2.24212 13.1 1.76348C12.6336 1.28483 12.0744 0.904098 11.4558 0.644055C10.8373 0.384012 10.1721 0.25 9.49998 0.25C8.82789 0.25 8.1627 0.384012 7.54416 0.644055C6.92562 0.904098 6.36643 1.28483 5.90001 1.76348C5.43359 2.24212 5.06955 2.80888 4.82958 3.42985C4.58961 4.05082 4.47866 4.71327 4.50338 5.37762V12.3244C4.51052 13.6309 5.03929 14.8817 5.97455 15.8042C6.90981 16.7268 8.17578 17.2465 9.49663 17.25ZM6.03922 5.35752C6.01855 4.89525 6.09274 4.43362 6.25734 4.00049C6.42194 3.56735 6.67355 3.1717 6.99695 2.83736C7.32035 2.50301 7.70884 2.23692 8.13903 2.05513C8.56922 1.87334 9.03217 1.77961 9.49998 1.77961C9.96778 1.77961 10.4308 1.87334 10.861 2.05513C11.2912 2.23692 11.6796 2.50301 12.003 2.83736C12.3264 3.1717 12.578 3.56735 12.7426 4.00049C12.9072 4.43362 12.9815 4.89525 12.9608 5.35752V12.3043C12.9214 13.186 12.5395 14.0187 11.8948 14.6288C11.2501 15.2389 10.3922 15.5794 9.49998 15.5794C8.60773 15.5794 7.74989 15.2389 7.10519 14.6288C6.46049 14.0187 6.07864 13.186 6.03922 12.3043V5.35752Z" fill="#0BB5FF"/>
<path d="M15.1906 21.5752H12.1391V19.5188C13.7013 18.9544 15.055 17.9108 16.0153 16.5307C16.9756 15.1505 17.4956 13.501 17.5044 11.8075V8.25H15.982V11.8075C15.9279 13.5277 15.2212 15.1588 14.0115 16.3561C12.8018 17.5533 11.1839 18.2227 9.50002 18.2227C7.81611 18.2227 6.19819 17.5533 4.98849 16.3561C3.7788 15.1588 3.07214 13.5277 3.018 11.8075V8.25H1.49561V11.8075C1.50442 13.501 2.02445 15.1505 2.98472 16.5307C3.94499 17.9108 5.2987 18.9544 6.86095 19.5188V21.5752H3.80942C2.79966 21.577 1.83172 21.9878 1.11771 22.7176C0.403695 23.4473 0.00177308 24.4366 0 25.4686V26.25H19V25.4686C18.9982 24.4366 18.5963 23.4473 17.8823 22.7176C17.1683 21.9878 16.2004 21.577 15.1906 21.5752ZM8.32971 19.9301C9.08826 20.0398 9.85812 20.0398 10.6167 19.9301V21.5752H8.32971V19.9301ZM1.62304 24.6872C1.78293 24.2325 2.07603 23.8391 2.46244 23.5607C2.84885 23.2823 3.30979 23.1323 3.78257 23.1312H15.1839C15.656 23.1317 16.1164 23.2816 16.5018 23.5602C16.8873 23.8388 17.1789 24.2324 17.3368 24.6872H1.62304Z" fill="#0BB5FF"/>
</svg>
