<svg width="158" height="126" viewBox="0 0 158 126" fill="none" xmlns="http://www.w3.org/2000/svg">
<path d="M24.3062 83.6941C24.0405 83.3533 23.7054 83.0728 23.3231 82.8713C22.9408 82.6698 22.5199 82.5519 22.0885 82.5253C21.6572 82.4987 21.2248 82.5641 20.8206 82.7171C20.4164 82.8701 20.0497 83.1073 19.7441 83.4129C19.4385 83.7185 19.2014 84.0856 19.0484 84.4897C18.8954 84.8939 18.8298 85.326 18.8564 85.7574C18.8829 86.1887 19.0011 86.6095 19.2026 86.9919C19.4041 87.3742 19.6842 87.7093 20.025 87.9751L31.9045 99.9083C32.4981 100.466 33.2843 100.773 34.0987 100.765C34.8968 100.77 35.6653 100.463 36.2394 99.9083C36.8048 99.3286 37.1212 98.5509 37.1212 97.7411C37.1212 96.9313 36.8048 96.1535 36.2394 95.5738L24.3062 83.6941Z" fill="#595959"/>
<path d="M29.9757 61.6988C30.7804 61.6851 31.5486 61.3593 32.1176 60.7902C32.6867 60.2212 33.0125 59.4533 33.0263 58.6486V41.7923C33.0125 40.9876 32.6867 40.2197 32.1176 39.6507C31.5486 39.0816 30.7804 38.7558 29.9757 38.7421C29.1667 38.7421 28.3914 39.0634 27.8194 39.6354C27.2474 40.2075 26.9258 40.9833 26.9258 41.7923V58.6486C26.9258 59.4576 27.2474 60.2334 27.8194 60.8055C28.3914 61.3775 29.1667 61.6988 29.9757 61.6988Z" fill="#595959"/>
<path d="M148.566 67.4255C145.757 64.6102 142.421 62.3766 138.748 60.8526C135.075 59.3285 131.137 58.5441 127.161 58.5441C123.184 58.5441 119.247 59.3285 115.574 60.8526C111.901 62.3766 108.564 64.6102 105.756 67.4255C104.79 68.4091 103.879 69.4452 103.027 70.5292V31.3582C103.067 23.5446 100.173 16.0004 94.9188 10.2175C89.6642 4.43454 82.4309 0.833955 74.6492 0.127749C66.8675 -0.578457 59.104 1.66114 52.8942 6.40365C46.6843 11.1462 42.4803 18.0463 41.1132 25.7394C37.0141 23.7979 32.4884 22.9303 27.9618 23.2182C23.4353 23.5061 19.0565 24.9399 15.2363 27.385C11.4161 29.8302 8.28016 33.2063 6.12318 37.1963C3.96619 41.1863 2.85891 45.6591 2.90539 50.1945C2.89765 53.9723 3.68993 57.7089 5.23022 61.1584C6.77051 64.6079 9.02347 67.6922 11.8415 70.2081C10.8296 70.9888 9.86512 71.8286 8.9523 72.7232C3.765 77.6338 0.740971 84.4038 0.545279 91.5441C0.349587 98.6844 2.99789 105.61 7.90844 110.797C12.819 115.985 19.5896 119.009 26.7298 119.204C33.8701 119.4 40.7951 116.751 45.9824 111.841C49.2471 116.634 53.7819 120.425 59.0783 122.788C64.3746 125.151 70.2239 125.994 75.972 125.222C81.7201 124.45 87.1395 122.094 91.6246 118.417C96.1098 114.74 99.4838 109.888 101.368 104.402C102.616 106.352 104.088 108.148 105.756 109.754C109.98 113.982 115.365 116.861 121.227 118.025C127.089 119.19 133.165 118.588 138.684 116.295C144.204 114.002 148.919 110.123 152.231 105.147C155.543 100.172 157.303 94.3256 157.288 88.3488C157.313 84.3732 156.545 80.4326 155.029 76.7574C153.513 73.0821 151.279 69.746 148.459 66.9439L148.566 67.4255ZM9.11299 50.1945C9.11299 46.0669 10.3368 42.0319 12.63 38.5999C14.9232 35.1679 18.1825 32.493 21.9959 30.9134C25.8094 29.3338 30.0055 28.9205 34.0538 29.7258C38.1022 30.531 41.8213 32.5187 44.74 35.4374C47.6586 38.3561 49.6458 42.0747 50.4511 46.123C51.2564 50.1714 50.8431 54.3676 49.2635 58.1811C47.684 61.9945 45.009 65.2539 41.577 67.5472C38.145 69.8404 34.1099 71.0643 29.9823 71.0643C27.2416 71.0643 24.528 70.5245 21.9959 69.4757C19.4639 68.4269 17.1632 66.8897 15.2252 64.9517C13.2873 63.0138 11.7498 60.7131 10.701 58.1811C9.65218 55.649 9.11299 52.9352 9.11299 50.1945V50.1945ZM42.8789 106.489C40.98 108.572 38.6787 110.249 36.1141 111.418C33.5495 112.588 30.775 113.225 27.9573 113.293C25.1395 113.36 22.3371 112.857 19.7194 111.812C17.1017 110.767 14.7226 109.202 12.726 107.213C10.7293 105.224 9.15622 102.85 8.1018 100.236C7.04737 97.6226 6.5335 94.8222 6.59089 92.0042C6.64827 89.1862 7.27563 86.409 8.4356 83.8402C9.59556 81.2714 11.264 78.9642 13.34 77.0577C14.5382 75.892 15.867 74.8685 17.2999 74.0075C21.2069 76.0776 25.5607 77.1615 29.9823 77.1647C33.6565 77.169 37.2948 76.4413 40.6847 75.0242C43.1097 76.7923 45.1216 79.0664 46.5807 81.6889C48.0399 84.3115 48.9116 87.2198 49.1355 90.2126C49.3595 93.2054 48.9307 96.2111 47.878 99.0215C46.8254 101.832 45.1745 104.38 43.0396 106.489H42.8789ZM97.0333 59.7733H87.7222C86.976 59.8719 86.2907 60.2383 85.7946 60.8044C85.2984 61.3704 85.0251 62.0975 85.0251 62.8502C85.0251 63.6029 85.2984 64.33 85.7946 64.896C86.2907 65.4621 86.976 65.8285 87.7222 65.9272H97.194V94.3422C97.1609 99.8293 95.3341 105.155 91.9924 109.507C88.6506 113.86 83.9773 117 78.6848 118.449C73.3924 119.898 67.7708 119.576 62.6782 117.533C57.5856 115.489 53.3013 111.837 50.4779 107.132C54.1106 101.955 55.7917 95.6582 55.2236 89.3594C54.6554 83.0605 51.8742 77.1666 47.3738 72.7232L46.3038 71.76C48.5025 70.1058 50.449 68.141 52.0829 65.9272H60.1097C60.8559 65.8285 61.5412 65.4621 62.0374 64.896C62.5335 64.33 62.8069 63.6029 62.8069 62.8502C62.8069 62.0975 62.5335 61.3704 62.0374 60.8044C61.5412 60.2383 60.8559 59.8719 60.1097 59.7733H55.347C57.3832 54.4672 57.6771 48.6506 56.1858 43.1665C54.6945 37.6823 51.4958 32.8155 47.053 29.2712C47.4498 22.7039 50.4098 16.5549 55.2954 12.1483C60.1811 7.74165 66.6015 5.42976 73.1749 5.71037C79.7483 5.99099 85.9486 8.84165 90.441 13.6486C94.9333 18.4556 97.3584 24.8344 97.194 31.4117L97.0333 59.7733ZM144.232 105.687C140.301 109.598 135.135 112.026 129.616 112.557C124.096 113.087 118.563 111.688 113.959 108.597C109.355 105.507 105.965 100.916 104.366 95.6059C102.767 90.2963 103.059 84.5966 105.19 79.4775C107.322 74.3584 111.162 70.1366 116.057 67.531C120.951 64.9254 126.598 64.0973 132.035 65.1876C137.472 66.2779 142.363 69.2193 145.874 73.5107C149.386 77.8021 151.302 83.1782 151.295 88.7234C151.269 95.0881 148.731 101.185 144.232 105.687V105.687Z" fill="#595959"/>
<path d="M136.691 79.2518C136.112 78.6863 135.334 78.3698 134.524 78.3698C133.714 78.3698 132.936 78.6863 132.357 79.2518L127.005 84.6031L121.654 79.2518C121.37 78.9672 121.032 78.7415 120.66 78.5874C120.288 78.4334 119.89 78.3541 119.487 78.3541C119.085 78.3541 118.686 78.4334 118.314 78.5874C117.942 78.7415 117.605 78.9672 117.32 79.2518C117.035 79.5364 116.81 79.8743 116.656 80.2462C116.502 80.618 116.422 81.0166 116.422 81.4191C116.422 81.8216 116.502 82.2201 116.656 82.592C116.81 82.9638 117.035 83.3017 117.32 83.5863L122.671 88.9376L117.32 94.0212C117.035 94.3058 116.81 94.6437 116.656 95.0156C116.502 95.3874 116.422 95.786 116.422 96.1885C116.422 96.591 116.502 96.9895 116.656 97.3614C116.81 97.7332 117.035 98.0711 117.32 98.3557C117.605 98.6403 117.942 98.8661 118.314 99.0201C118.686 99.1741 119.085 99.2534 119.487 99.2534C119.89 99.2534 120.288 99.1741 120.66 99.0201C121.032 98.8661 121.37 98.6403 121.654 98.3557L127.005 93.0045L132.357 98.3557C132.931 98.9305 133.711 99.2534 134.524 99.2534C135.337 99.2534 136.117 98.9305 136.691 98.3557C137.266 97.7809 137.589 97.0013 137.589 96.1885C137.589 95.3756 137.266 94.596 136.691 94.0212L131.34 88.9376L136.691 83.5863C137.257 83.0066 137.573 82.2289 137.573 81.4191C137.573 80.6092 137.257 79.8315 136.691 79.2518V79.2518Z" fill="#595959"/>
</svg>
