<svg width="22" height="24" viewBox="0 0 22 24" fill="none" xmlns="http://www.w3.org/2000/svg">
<path d="M13.6374 19.5384H2.63743C1.22222 19.5384 0 18.3503 0 16.8322V7.92163C0 6.46954 1.15789 5.21545 2.63743 5.21545H13.6374C15.0526 5.21545 16.2749 6.40353 16.2749 7.92163V16.8322C16.2749 18.3503 15.0526 19.5384 13.6374 19.5384ZM2.63743 6.99757C2.18713 6.99757 1.73684 7.3936 1.73684 7.92163V16.8322C1.73684 17.2943 2.12281 17.7563 2.63743 17.7563H13.6374C14.0877 17.7563 14.538 17.3603 14.538 16.8322V7.92163C14.538 7.4596 14.152 6.99757 13.6374 6.99757H2.63743Z" fill="#9A9A9B"/>
<path d="M21.1631 18.9443C21.0345 18.9443 20.9058 18.9443 20.7772 18.8783L14.9877 16.1722C14.5374 15.9741 14.3444 15.4461 14.5374 14.9841C14.7304 14.5221 15.245 14.324 15.6953 14.5221L20.2626 16.6342V8.05362L15.6953 10.1658C15.245 10.3638 14.7304 10.1658 14.5374 9.70373C14.3444 9.2417 14.5374 8.71366 14.9877 8.51565L20.7772 5.80947C21.0345 5.67746 21.3561 5.67746 21.6134 5.87547C21.8707 6.07349 21.9994 6.33751 21.9994 6.60152V17.8883C21.9994 18.2183 21.8707 18.4823 21.6134 18.6143C21.4848 18.8783 21.3561 18.9443 21.1631 18.9443Z" fill="#9A9A9B"/>
<path d="M20.8695 0.304986L20.4443 0.00738525L4.8547 23.4537L5.27982 23.7513L20.8695 0.304986Z" fill="#9A9A9B"/>
</svg>
