<!-- Generated by IcoMoon.io -->
<svg version="1.1" xmlns="http://www.w3.org/2000/svg" width="33" height="32" viewBox="0 0 33 32">
<title>view</title>
<path fill="#808080" d="M12.857 14.852h-10.861c-1.098-0.010-1.986-0.897-1.996-1.995v-10.862c0.010-1.098 0.897-1.986 1.995-1.996h10.862c1.098 0.010 1.986 0.897 1.996 1.995v10.862c-0.010 1.098-0.897 1.986-1.995 1.996h-0.001zM1.996 1.43c-0.312 0-0.565 0.253-0.565 0.565v0 10.861c0 0 0 0 0 0 0 0.302 0.245 0.547 0.547 0.547 0.006 0 0.012-0 0.019-0l-0.001 0h10.861c0.302 0 0.547-0.245 0.547-0.547v0-10.861c0-0 0-0 0-0 0-0.306-0.243-0.555-0.547-0.565l-0.001-0z"></path>
<path fill="#808080" d="M30.623 14.852h-10.861c-1.098-0.010-1.986-0.897-1.996-1.995v-10.862c0.010-1.098 0.897-1.986 1.995-1.996h10.862c1.102 0 1.996 0.893 1.996 1.996v0 10.861c0 1.102-0.893 1.996-1.996 1.996v0zM19.762 1.43c-0 0-0 0-0 0-0.302 0-0.547 0.245-0.547 0.547 0 0.006 0 0.012 0 0.019l-0-0.001v10.861c0 0.302 0.245 0.547 0.547 0.547v0h10.861c0.005 0 0.011 0 0.018 0 0.302 0 0.547-0.245 0.547-0.547 0-0 0-0 0-0v0-10.861c0-0.312-0.253-0.565-0.565-0.565v0z"></path>
<path fill="#808080" d="M12.857 32h-10.861c-1.092-0.010-1.976-0.887-1.996-1.976l-0-0.002v-10.879c0.010-1.098 0.897-1.986 1.995-1.996h10.862c1.098 0.010 1.986 0.897 1.996 1.995v10.88c-0.020 1.091-0.904 1.968-1.995 1.978h-0.001zM1.996 18.578c-0.312 0-0.565 0.253-0.565 0.565v0 10.879c0 0 0 0 0 0 0 0.302 0.245 0.547 0.547 0.547 0.006 0 0.012-0 0.019-0l-0.001 0h10.861c0.302 0 0.547-0.245 0.547-0.547v0-10.879c0-0 0-0 0-0 0-0.306-0.243-0.555-0.547-0.565l-0.001-0z"></path>
<path fill="#808080" d="M30.623 32h-10.861c-1.092-0.010-1.976-0.887-1.996-1.976l-0-0.002v-10.879c0.010-1.098 0.897-1.986 1.995-1.996h10.862c1.102 0 1.996 0.893 1.996 1.996v0 10.879c-0.010 1.095-0.9 1.978-1.995 1.978-0 0-0 0-0 0v0zM19.762 18.578c-0 0-0 0-0 0-0.302 0-0.547 0.245-0.547 0.547 0 0.006 0 0.012 0 0.019l-0-0.001v10.879c0 0.302 0.245 0.547 0.547 0.547v0h10.861c0.005 0 0.011 0 0.018 0 0.302 0 0.547-0.245 0.547-0.547 0-0 0-0 0-0v0-10.879c0-0.312-0.253-0.565-0.565-0.565v0z"></path>
</svg>
