<svg width="125" height="125" viewBox="0 0 125 125" fill="none" xmlns="http://www.w3.org/2000/svg">
<path d="M51.8569 0.23999C43.9243 0.23999 37.2441 6.92012 37.2441 14.8528C37.2441 22.7854 43.5068 29.4656 51.8569 29.4656C60.2071 29.4656 66.4697 22.7854 66.4697 14.8528C66.4697 6.92012 59.7896 0.23999 51.8569 0.23999ZM51.8569 21.9504C47.6819 21.9504 44.7593 18.6104 44.7593 14.8528C44.7593 11.0952 48.0994 7.75514 51.8569 7.75514C55.6145 7.75514 58.9546 10.6777 58.9546 14.8528C58.9546 19.0279 55.6145 21.9504 51.8569 21.9504Z" fill="#595959"/>
<path d="M99.0286 0.23999C84.8333 0.23999 73.5605 11.5127 73.5605 25.708C73.5605 39.9033 84.8333 51.176 99.0286 51.176C113.224 51.176 124.497 39.9033 124.497 25.708C124.497 11.5127 113.224 0.23999 99.0286 0.23999ZM99.0286 44.0784C89.0084 44.0784 80.6582 35.7282 80.6582 25.708C80.6582 15.6878 89.0084 7.33763 99.0286 7.33763C109.049 7.33763 117.399 15.6878 117.399 25.708C117.399 35.7282 109.049 44.0784 99.0286 44.0784Z" fill="#595959"/>
<path d="M106.548 21.9497H102.791V18.6096C102.791 16.5221 101.121 14.8521 99.033 14.8521C96.9454 14.8521 95.2754 16.5221 95.2754 18.6096V25.7073C95.2754 27.7948 96.9454 29.4648 99.033 29.4648H106.131C108.218 29.4648 109.888 27.7948 109.888 25.7073C109.888 23.6197 108.636 21.9497 106.548 21.9497Z" fill="#595959"/>
<path d="M84.8367 65.7896H66.4663V43.6616C66.4663 35.7289 59.7862 29.0488 51.8535 29.0488C43.9209 29.0488 37.2407 35.7289 37.2407 43.6616V76.6448C37.2407 77.8973 37.6582 79.1498 37.6582 80.4024H28.4731C28.4731 80.4024 24.7155 49.5067 22.6279 32.8064C22.6279 26.9613 17.6178 21.9512 11.7727 21.9512C5.5101 21.9512 0.5 26.9613 0.5 32.8064V33.2239L7.59764 91.6751C7.59764 96.2677 10.5202 100.443 14.6953 101.695V120.901C14.6953 122.988 16.3653 124.658 18.4529 124.658C20.5404 124.658 22.2104 122.988 22.2104 120.901V102.53H51.436V120.901C51.436 122.988 53.1061 124.658 55.1936 124.658C57.2811 124.658 58.9512 122.988 58.9512 120.901V101.695C63.1263 100.025 66.0488 96.2677 66.0488 91.2576C66.0488 90.005 65.6313 88.7525 65.6313 87.5H73.9815V113.386C73.9815 119.231 78.9916 124.241 84.8367 124.241C90.6818 124.241 95.6919 119.231 95.6919 113.386V76.6448C95.6919 70.7997 90.6818 65.7896 84.8367 65.7896ZM55.1936 95.0151H18.8704C16.7828 95.0151 15.1128 93.3451 15.1128 91.2576C15.1128 90.8401 15.5303 94.1801 8.01515 32.8064C8.01515 30.7189 9.26768 29.4663 11.3552 29.4663C13.4428 29.4663 15.1128 31.1364 15.1128 33.2239C15.1128 33.6414 21.3754 84.5774 21.3754 84.5774C21.7929 86.2475 23.0455 87.9175 25.133 87.9175C26.3855 87.9175 53.9411 87.9175 55.1936 87.9175C57.2811 87.9175 58.9512 89.5875 58.9512 91.6751C58.9512 93.7626 57.2811 95.0151 55.1936 95.0151ZM88.1768 113.386C88.1768 115.473 86.5067 117.143 84.4192 117.143C82.3317 117.143 80.6616 115.473 80.6616 113.386V84.1599C80.6616 82.0724 78.9916 80.4024 76.904 80.4024C76.069 80.4024 49.3485 80.4024 47.6785 80.4024C45.5909 80.4024 43.9209 78.7323 43.9209 76.6448V43.6616C43.9209 39.4865 47.2609 36.564 51.0185 36.564C54.7761 36.564 58.9512 39.904 58.9512 44.0791V69.9646C58.9512 72.0522 60.6212 73.7222 62.7088 73.7222H84.8367C86.9242 73.7222 88.5943 75.3922 88.5943 77.4798V113.386H88.1768Z" fill="#595959"/>
</svg>
